<?xml version="1.0" encoding="UTF-8" standalone="no"?>
<!DOCTYPE svg PUBLIC "-//W3C//DTD SVG 1.1//EN"
 "http://www.w3.org/Graphics/SVG/1.1/DTD/svg11.dtd">
<!-- Generated by graphviz version 3.0.0 (20220226.1711)
 -->
<!-- Title: dependencies Pages: 1 -->
<svg width="330pt" height="247pt"
 viewBox="0.00 0.00 330.00 246.80" xmlns="http://www.w3.org/2000/svg" xmlns:xlink="http://www.w3.org/1999/xlink">
<g id="graph0" class="graph" transform="scale(1 1) rotate(0) translate(4 242.8)">
<title>dependencies</title>
<polygon fill="white" stroke="transparent" points="-4,4 -4,-242.8 326,-242.8 326,4 -4,4"/>
<text text-anchor="middle" x="161" y="-8.2" font-family="sans-serif" font-size="14.00">dependencies</text>
<g id="clust1" class="cluster">
<title>cluster_LoggerModule</title>
<polygon fill="none" stroke="black" stroke-dasharray="1,5" points="8,-32.8 8,-230.8 314,-230.8 314,-32.8 8,-32.8"/>
</g>
<g id="clust6" class="cluster">
<title>cluster_LoggerModule_providers</title>
<polygon fill="none" stroke="black" points="16,-40.8 16,-92.8 306,-92.8 306,-40.8 16,-40.8"/>
</g>
<g id="clust4" class="cluster">
<title>cluster_LoggerModule_exports</title>
<polygon fill="none" stroke="black" points="96,-170.8 96,-222.8 216,-222.8 216,-170.8 96,-170.8"/>
</g>
<!-- CustomLogger  -->
<g id="node1" class="node">
<title>CustomLogger </title>
<polygon fill="#fb8072" stroke="black" points="207.99,-214.8 104.01,-214.8 104.01,-178.8 207.99,-178.8 207.99,-214.8"/>
<text text-anchor="middle" x="156" y="-192.6" font-family="Times,serif" font-size="14.00">CustomLogger </text>
</g>
<!-- LoggerModule -->
<g id="node2" class="node">
<title>LoggerModule</title>
<polygon fill="#8dd3c7" stroke="black" points="205.98,-149.8 202.98,-153.8 181.98,-153.8 178.98,-149.8 106.02,-149.8 106.02,-113.8 205.98,-113.8 205.98,-149.8"/>
<text text-anchor="middle" x="156" y="-127.6" font-family="Times,serif" font-size="14.00">LoggerModule</text>
</g>
<!-- LoggerModule&#45;&gt;CustomLogger  -->
<g id="edge1" class="edge">
<title>LoggerModule&#45;&gt;CustomLogger </title>
<path fill="none" stroke="black" stroke-dasharray="5,2" d="M156,-149.91C156,-149.91 156,-168.79 156,-168.79"/>
<polygon fill="black" stroke="black" points="152.5,-168.79 156,-178.79 159.5,-168.79 152.5,-168.79"/>
</g>
<!-- CustomLogger -->
<g id="node3" class="node">
<title>CustomLogger</title>
<ellipse fill="#fdb462" stroke="black" cx="229" cy="-66.8" rx="68.95" ry="18"/>
<text text-anchor="middle" x="229" y="-62.6" font-family="Times,serif" font-size="14.00">CustomLogger</text>
</g>
<!-- CustomLogger&#45;&gt;LoggerModule -->
<g id="edge2" class="edge">
<title>CustomLogger&#45;&gt;LoggerModule</title>
<path fill="none" stroke="black" d="M183.01,-80.27C183.01,-80.27 183.01,-103.66 183.01,-103.66"/>
<polygon fill="black" stroke="black" points="179.51,-103.66 183.01,-113.66 186.51,-103.66 179.51,-103.66"/>
</g>
<!-- LogsService -->
<g id="node4" class="node">
<title>LogsService</title>
<ellipse fill="#fdb462" stroke="black" cx="83" cy="-66.8" rx="59.11" ry="18"/>
<text text-anchor="middle" x="83" y="-62.6" font-family="Times,serif" font-size="14.00">LogsService</text>
</g>
<!-- LogsService&#45;&gt;LoggerModule -->
<g id="edge3" class="edge">
<title>LogsService&#45;&gt;LoggerModule</title>
<path fill="none" stroke="black" d="M124.16,-79.95C124.16,-79.95 124.16,-103.49 124.16,-103.49"/>
<polygon fill="black" stroke="black" points="120.66,-103.49 124.16,-113.49 127.66,-103.49 120.66,-103.49"/>
</g>
</g>
</svg>
