<?xml version="1.0" encoding="UTF-8" standalone="no"?>
<!DOCTYPE svg PUBLIC "-//W3C//DTD SVG 1.1//EN"
 "http://www.w3.org/Graphics/SVG/1.1/DTD/svg11.dtd">
<!-- Generated by graphviz version 3.0.0 (20220226.1711)
 -->
<!-- Title: dependencies Pages: 1 -->
<svg width="583pt" height="247pt"
 viewBox="0.00 0.00 583.00 246.80" xmlns="http://www.w3.org/2000/svg" xmlns:xlink="http://www.w3.org/1999/xlink">
<g id="graph0" class="graph" transform="scale(1 1) rotate(0) translate(4 242.8)">
<title>dependencies</title>
<polygon fill="white" stroke="transparent" points="-4,4 -4,-242.8 579,-242.8 579,4 -4,4"/>
<text text-anchor="middle" x="287.5" y="-8.2" font-family="sans-serif" font-size="14.00">dependencies</text>
<g id="clust1" class="cluster">
<title>cluster_UsersModule</title>
<polygon fill="none" stroke="black" stroke-dasharray="1,5" points="8,-32.8 8,-230.8 567,-230.8 567,-32.8 8,-32.8"/>
</g>
<g id="clust6" class="cluster">
<title>cluster_UsersModule_providers</title>
<polygon fill="none" stroke="black" points="419,-40.8 419,-92.8 559,-92.8 559,-40.8 419,-40.8"/>
</g>
<g id="clust3" class="cluster">
<title>cluster_UsersModule_imports</title>
<polygon fill="none" stroke="black" points="16,-40.8 16,-92.8 411,-92.8 411,-40.8 16,-40.8"/>
</g>
<g id="clust4" class="cluster">
<title>cluster_UsersModule_exports</title>
<polygon fill="none" stroke="black" points="214,-170.8 214,-222.8 324,-222.8 324,-170.8 214,-170.8"/>
</g>
<!-- DatabaseFilesModule -->
<g id="node1" class="node">
<title>DatabaseFilesModule</title>
<polygon fill="#8dd3c7" stroke="black" points="403.08,-84.8 400.08,-88.8 379.08,-88.8 376.08,-84.8 264.92,-84.8 264.92,-48.8 403.08,-48.8 403.08,-84.8"/>
<text text-anchor="middle" x="334" y="-62.6" font-family="Times,serif" font-size="14.00">DatabaseFilesModule</text>
</g>
<!-- UsersModule -->
<g id="node4" class="node">
<title>UsersModule</title>
<polygon fill="#8dd3c7" stroke="black" points="314.94,-149.8 311.94,-153.8 290.94,-153.8 287.94,-149.8 223.06,-149.8 223.06,-113.8 314.94,-113.8 314.94,-149.8"/>
<text text-anchor="middle" x="269" y="-127.6" font-family="Times,serif" font-size="14.00">UsersModule</text>
</g>
<!-- DatabaseFilesModule&#45;&gt;UsersModule -->
<g id="edge1" class="edge">
<title>DatabaseFilesModule&#45;&gt;UsersModule</title>
<path fill="none" stroke="black" d="M289.84,-84.91C289.84,-84.91 289.84,-103.79 289.84,-103.79"/>
<polygon fill="black" stroke="black" points="286.34,-103.79 289.84,-113.79 293.34,-103.79 286.34,-103.79"/>
</g>
<!-- FilesModule -->
<g id="node2" class="node">
<title>FilesModule</title>
<polygon fill="#8dd3c7" stroke="black" points="247.28,-84.8 244.28,-88.8 223.28,-88.8 220.28,-84.8 160.72,-84.8 160.72,-48.8 247.28,-48.8 247.28,-84.8"/>
<text text-anchor="middle" x="204" y="-62.6" font-family="Times,serif" font-size="14.00">FilesModule</text>
</g>
<!-- FilesModule&#45;&gt;UsersModule -->
<g id="edge2" class="edge">
<title>FilesModule&#45;&gt;UsersModule</title>
<path fill="none" stroke="black" d="M235.34,-84.91C235.34,-84.91 235.34,-103.79 235.34,-103.79"/>
<polygon fill="black" stroke="black" points="231.84,-103.79 235.34,-113.79 238.84,-103.79 231.84,-103.79"/>
</g>
<!-- LocalFilesModule -->
<g id="node3" class="node">
<title>LocalFilesModule</title>
<polygon fill="#8dd3c7" stroke="black" points="142.15,-84.8 139.15,-88.8 118.15,-88.8 115.15,-84.8 23.85,-84.8 23.85,-48.8 142.15,-48.8 142.15,-84.8"/>
<text text-anchor="middle" x="83" y="-62.6" font-family="Times,serif" font-size="14.00">LocalFilesModule</text>
</g>
<!-- LocalFilesModule&#45;&gt;UsersModule -->
<g id="edge3" class="edge">
<title>LocalFilesModule&#45;&gt;UsersModule</title>
<path fill="none" stroke="black" d="M83,-84.91C83,-104.14 83,-131.8 83,-131.8 83,-131.8 213.02,-131.8 213.02,-131.8"/>
<polygon fill="black" stroke="black" points="213.02,-135.3 223.02,-131.8 213.02,-128.3 213.02,-135.3"/>
</g>
<!-- UsersService  -->
<g id="node5" class="node">
<title>UsersService </title>
<polygon fill="#fb8072" stroke="black" points="315.86,-214.8 222.14,-214.8 222.14,-178.8 315.86,-178.8 315.86,-214.8"/>
<text text-anchor="middle" x="269" y="-192.6" font-family="Times,serif" font-size="14.00">UsersService </text>
</g>
<!-- UsersModule&#45;&gt;UsersService  -->
<g id="edge4" class="edge">
<title>UsersModule&#45;&gt;UsersService </title>
<path fill="none" stroke="black" stroke-dasharray="5,2" d="M269,-149.91C269,-149.91 269,-168.79 269,-168.79"/>
<polygon fill="black" stroke="black" points="265.5,-168.79 269,-178.79 272.5,-168.79 265.5,-168.79"/>
</g>
<!-- UsersService -->
<g id="node6" class="node">
<title>UsersService</title>
<ellipse fill="#fdb462" stroke="black" cx="489" cy="-66.8" rx="61.97" ry="18"/>
<text text-anchor="middle" x="489" y="-62.6" font-family="Times,serif" font-size="14.00">UsersService</text>
</g>
<!-- UsersService&#45;&gt;UsersModule -->
<g id="edge5" class="edge">
<title>UsersService&#45;&gt;UsersModule</title>
<path fill="none" stroke="black" d="M489,-84.91C489,-104.14 489,-131.8 489,-131.8 489,-131.8 324.85,-131.8 324.85,-131.8"/>
<polygon fill="black" stroke="black" points="324.85,-128.3 314.85,-131.8 324.85,-135.3 324.85,-128.3"/>
</g>
</g>
</svg>
