<?xml version="1.0" encoding="UTF-8" standalone="no"?>
<!DOCTYPE svg PUBLIC "-//W3C//DTD SVG 1.1//EN"
 "http://www.w3.org/Graphics/SVG/1.1/DTD/svg11.dtd">
<!-- Generated by graphviz version 3.0.0 (20220226.1711)
 -->
<!-- Title: dependencies Pages: 1 -->
<svg width="583pt" height="247pt"
 viewBox="0.00 0.00 583.00 246.80" xmlns="http://www.w3.org/2000/svg" xmlns:xlink="http://www.w3.org/1999/xlink">
<g id="graph0" class="graph" transform="scale(1 1) rotate(0) translate(4 242.8)">
<title>dependencies</title>
<polygon fill="white" stroke="transparent" points="-4,4 -4,-242.8 579,-242.8 579,4 -4,4"/>
<text text-anchor="middle" x="287.5" y="-8.2" font-family="sans-serif" font-size="14.00">dependencies</text>
<g id="clust1" class="cluster">
<title>cluster_UsersModule</title>
<polygon fill="none" stroke="black" stroke-dasharray="1,5" points="8,-32.8 8,-230.8 567,-230.8 567,-32.8 8,-32.8"/>
</g>
<g id="clust3" class="cluster">
<title>cluster_UsersModule_imports</title>
<polygon fill="none" stroke="black" points="164,-40.8 164,-92.8 559,-92.8 559,-40.8 164,-40.8"/>
</g>
<g id="clust6" class="cluster">
<title>cluster_UsersModule_providers</title>
<polygon fill="none" stroke="black" points="16,-40.8 16,-92.8 156,-92.8 156,-40.8 16,-40.8"/>
</g>
<g id="clust4" class="cluster">
<title>cluster_UsersModule_exports</title>
<polygon fill="none" stroke="black" points="236,-170.8 236,-222.8 346,-222.8 346,-170.8 236,-170.8"/>
</g>
<!-- DatabaseFilesModule -->
<g id="node1" class="node">
<title>DatabaseFilesModule</title>
<polygon fill="#8dd3c7" stroke="black" points="551.08,-84.8 548.08,-88.8 527.08,-88.8 524.08,-84.8 412.92,-84.8 412.92,-48.8 551.08,-48.8 551.08,-84.8"/>
<text text-anchor="middle" x="482" y="-62.6" font-family="Times,serif" font-size="14.00">DatabaseFilesModule</text>
</g>
<!-- UsersModule -->
<g id="node4" class="node">
<title>UsersModule</title>
<polygon fill="#8dd3c7" stroke="black" points="336.94,-149.8 333.94,-153.8 312.94,-153.8 309.94,-149.8 245.06,-149.8 245.06,-113.8 336.94,-113.8 336.94,-149.8"/>
<text text-anchor="middle" x="291" y="-127.6" font-family="Times,serif" font-size="14.00">UsersModule</text>
</g>
<!-- DatabaseFilesModule&#45;&gt;UsersModule -->
<g id="edge1" class="edge">
<title>DatabaseFilesModule&#45;&gt;UsersModule</title>
<path fill="none" stroke="black" d="M482,-84.91C482,-104.14 482,-131.8 482,-131.8 482,-131.8 346.75,-131.8 346.75,-131.8"/>
<polygon fill="black" stroke="black" points="346.75,-128.3 336.75,-131.8 346.75,-135.3 346.75,-128.3"/>
</g>
<!-- FilesModule -->
<g id="node2" class="node">
<title>FilesModule</title>
<polygon fill="#8dd3c7" stroke="black" points="395.28,-84.8 392.28,-88.8 371.28,-88.8 368.28,-84.8 308.72,-84.8 308.72,-48.8 395.28,-48.8 395.28,-84.8"/>
<text text-anchor="middle" x="352" y="-62.6" font-family="Times,serif" font-size="14.00">FilesModule</text>
</g>
<!-- FilesModule&#45;&gt;UsersModule -->
<g id="edge2" class="edge">
<title>FilesModule&#45;&gt;UsersModule</title>
<path fill="none" stroke="black" d="M322.66,-84.91C322.66,-84.91 322.66,-103.79 322.66,-103.79"/>
<polygon fill="black" stroke="black" points="319.16,-103.79 322.66,-113.79 326.16,-103.79 319.16,-103.79"/>
</g>
<!-- LocalFilesModule -->
<g id="node3" class="node">
<title>LocalFilesModule</title>
<polygon fill="#8dd3c7" stroke="black" points="290.15,-84.8 287.15,-88.8 266.15,-88.8 263.15,-84.8 171.85,-84.8 171.85,-48.8 290.15,-48.8 290.15,-84.8"/>
<text text-anchor="middle" x="231" y="-62.6" font-family="Times,serif" font-size="14.00">LocalFilesModule</text>
</g>
<!-- LocalFilesModule&#45;&gt;UsersModule -->
<g id="edge3" class="edge">
<title>LocalFilesModule&#45;&gt;UsersModule</title>
<path fill="none" stroke="black" d="M267.8,-84.91C267.8,-84.91 267.8,-103.79 267.8,-103.79"/>
<polygon fill="black" stroke="black" points="264.3,-103.79 267.8,-113.79 271.3,-103.79 264.3,-103.79"/>
</g>
<!-- UsersService  -->
<g id="node5" class="node">
<title>UsersService </title>
<polygon fill="#fb8072" stroke="black" points="337.86,-214.8 244.14,-214.8 244.14,-178.8 337.86,-178.8 337.86,-214.8"/>
<text text-anchor="middle" x="291" y="-192.6" font-family="Times,serif" font-size="14.00">UsersService </text>
</g>
<!-- UsersModule&#45;&gt;UsersService  -->
<g id="edge4" class="edge">
<title>UsersModule&#45;&gt;UsersService </title>
<path fill="none" stroke="black" stroke-dasharray="5,2" d="M291,-149.91C291,-149.91 291,-168.79 291,-168.79"/>
<polygon fill="black" stroke="black" points="287.5,-168.79 291,-178.79 294.5,-168.79 287.5,-168.79"/>
</g>
<!-- UsersService -->
<g id="node6" class="node">
<title>UsersService</title>
<ellipse fill="#fdb462" stroke="black" cx="86" cy="-66.8" rx="61.97" ry="18"/>
<text text-anchor="middle" x="86" y="-62.6" font-family="Times,serif" font-size="14.00">UsersService</text>
</g>
<!-- UsersService&#45;&gt;UsersModule -->
<g id="edge5" class="edge">
<title>UsersService&#45;&gt;UsersModule</title>
<path fill="none" stroke="black" d="M86,-84.91C86,-104.14 86,-131.8 86,-131.8 86,-131.8 235.25,-131.8 235.25,-131.8"/>
<polygon fill="black" stroke="black" points="235.25,-135.3 245.25,-131.8 235.25,-128.3 235.25,-135.3"/>
</g>
</g>
</svg>
