<?xml version="1.0" encoding="UTF-8" standalone="no"?>
<!DOCTYPE svg PUBLIC "-//W3C//DTD SVG 1.1//EN"
 "http://www.w3.org/Graphics/SVG/1.1/DTD/svg11.dtd">
<!-- Generated by graphviz version 3.0.0 (20220226.1711)
 -->
<!-- Title: dependencies Pages: 1 -->
<svg width="584pt" height="174pt"
 viewBox="0.00 0.00 584.00 173.80" xmlns="http://www.w3.org/2000/svg" xmlns:xlink="http://www.w3.org/1999/xlink">
<g id="graph0" class="graph" transform="scale(1 1) rotate(0) translate(4 169.8)">
<title>dependencies</title>
<polygon fill="white" stroke="transparent" points="-4,4 -4,-169.8 580,-169.8 580,4 -4,4"/>
<text text-anchor="middle" x="288" y="-8.2" font-family="sans-serif" font-size="14.00">dependencies</text>
<g id="clust1" class="cluster">
<title>cluster_GoogleAuthenticationModule</title>
<polygon fill="none" stroke="black" stroke-dasharray="1,5" points="8,-32.8 8,-157.8 568,-157.8 568,-32.8 8,-32.8"/>
</g>
<g id="clust3" class="cluster">
<title>cluster_GoogleAuthenticationModule_imports</title>
<polygon fill="none" stroke="black" points="292,-40.8 292,-92.8 560,-92.8 560,-40.8 292,-40.8"/>
</g>
<g id="clust6" class="cluster">
<title>cluster_GoogleAuthenticationModule_providers</title>
<polygon fill="none" stroke="black" points="16,-40.8 16,-92.8 284,-92.8 284,-40.8 16,-40.8"/>
</g>
<!-- AuthenticationModule -->
<g id="node1" class="node">
<title>AuthenticationModule</title>
<polygon fill="#8dd3c7" stroke="black" points="552.25,-84.8 549.25,-88.8 528.25,-88.8 525.25,-84.8 409.75,-84.8 409.75,-48.8 552.25,-48.8 552.25,-84.8"/>
<text text-anchor="middle" x="481" y="-62.6" font-family="Times,serif" font-size="14.00">AuthenticationModule</text>
</g>
<!-- GoogleAuthenticationModule -->
<g id="node3" class="node">
<title>GoogleAuthenticationModule</title>
<polygon fill="#8dd3c7" stroke="black" points="437.97,-149.8 434.97,-153.8 413.97,-153.8 410.97,-149.8 254.03,-149.8 254.03,-113.8 437.97,-113.8 437.97,-149.8"/>
<text text-anchor="middle" x="346" y="-127.6" font-family="Times,serif" font-size="14.00">GoogleAuthenticationModule</text>
</g>
<!-- AuthenticationModule&#45;&gt;GoogleAuthenticationModule -->
<g id="edge1" class="edge">
<title>AuthenticationModule&#45;&gt;GoogleAuthenticationModule</title>
<path fill="none" stroke="black" d="M423.8,-84.91C423.8,-84.91 423.8,-103.79 423.8,-103.79"/>
<polygon fill="black" stroke="black" points="420.3,-103.79 423.8,-113.79 427.3,-103.79 420.3,-103.79"/>
</g>
<!-- UsersModule -->
<g id="node2" class="node">
<title>UsersModule</title>
<polygon fill="#8dd3c7" stroke="black" points="391.94,-84.8 388.94,-88.8 367.94,-88.8 364.94,-84.8 300.06,-84.8 300.06,-48.8 391.94,-48.8 391.94,-84.8"/>
<text text-anchor="middle" x="346" y="-62.6" font-family="Times,serif" font-size="14.00">UsersModule</text>
</g>
<!-- UsersModule&#45;&gt;GoogleAuthenticationModule -->
<g id="edge2" class="edge">
<title>UsersModule&#45;&gt;GoogleAuthenticationModule</title>
<path fill="none" stroke="black" d="M346,-84.91C346,-84.91 346,-103.79 346,-103.79"/>
<polygon fill="black" stroke="black" points="342.5,-103.79 346,-113.79 349.5,-103.79 342.5,-103.79"/>
</g>
<!-- GoogleAuthenticationService -->
<g id="node4" class="node">
<title>GoogleAuthenticationService</title>
<ellipse fill="#fdb462" stroke="black" cx="150" cy="-66.8" rx="125.62" ry="18"/>
<text text-anchor="middle" x="150" y="-62.6" font-family="Times,serif" font-size="14.00">GoogleAuthenticationService</text>
</g>
<!-- GoogleAuthenticationService&#45;&gt;GoogleAuthenticationModule -->
<g id="edge3" class="edge">
<title>GoogleAuthenticationService&#45;&gt;GoogleAuthenticationModule</title>
<path fill="none" stroke="black" d="M264.91,-74.26C264.91,-74.26 264.91,-103.64 264.91,-103.64"/>
<polygon fill="black" stroke="black" points="261.41,-103.64 264.91,-113.64 268.41,-103.64 261.41,-103.64"/>
</g>
</g>
</svg>
