<?xml version="1.0" encoding="UTF-8" standalone="no"?>
<!DOCTYPE svg PUBLIC "-//W3C//DTD SVG 1.1//EN"
 "http://www.w3.org/Graphics/SVG/1.1/DTD/svg11.dtd">
<!-- Generated by graphviz version 3.0.0 (20220226.1711)
 -->
<!-- Title: dependencies Pages: 1 -->
<svg width="490pt" height="174pt"
 viewBox="0.00 0.00 490.00 173.80" xmlns="http://www.w3.org/2000/svg" xmlns:xlink="http://www.w3.org/1999/xlink">
<g id="graph0" class="graph" transform="scale(1 1) rotate(0) translate(4 169.8)">
<title>dependencies</title>
<polygon fill="white" stroke="transparent" points="-4,4 -4,-169.8 486,-169.8 486,4 -4,4"/>
<text text-anchor="middle" x="241" y="-8.2" font-family="sans-serif" font-size="14.00">dependencies</text>
<g id="clust1" class="cluster">
<title>cluster_PostsModule</title>
<polygon fill="none" stroke="black" stroke-dasharray="1,5" points="8,-32.8 8,-157.8 474,-157.8 474,-32.8 8,-32.8"/>
</g>
<g id="clust3" class="cluster">
<title>cluster_PostsModule_imports</title>
<polygon fill="none" stroke="black" points="352,-40.8 352,-92.8 466,-92.8 466,-40.8 352,-40.8"/>
</g>
<g id="clust6" class="cluster">
<title>cluster_PostsModule_providers</title>
<polygon fill="none" stroke="black" points="16,-40.8 16,-92.8 344,-92.8 344,-40.8 16,-40.8"/>
</g>
<!-- SearchModule -->
<g id="node1" class="node">
<title>SearchModule</title>
<polygon fill="#8dd3c7" stroke="black" points="457.64,-84.8 454.64,-88.8 433.64,-88.8 430.64,-84.8 360.36,-84.8 360.36,-48.8 457.64,-48.8 457.64,-84.8"/>
<text text-anchor="middle" x="409" y="-62.6" font-family="Times,serif" font-size="14.00">SearchModule</text>
</g>
<!-- PostsModule -->
<g id="node2" class="node">
<title>PostsModule</title>
<polygon fill="#8dd3c7" stroke="black" points="293.62,-149.8 290.62,-153.8 269.62,-153.8 266.62,-149.8 204.38,-149.8 204.38,-113.8 293.62,-113.8 293.62,-149.8"/>
<text text-anchor="middle" x="249" y="-127.6" font-family="Times,serif" font-size="14.00">PostsModule</text>
</g>
<!-- SearchModule&#45;&gt;PostsModule -->
<g id="edge1" class="edge">
<title>SearchModule&#45;&gt;PostsModule</title>
<path fill="none" stroke="black" d="M409,-84.91C409,-104.14 409,-131.8 409,-131.8 409,-131.8 303.57,-131.8 303.57,-131.8"/>
<polygon fill="black" stroke="black" points="303.57,-128.3 293.57,-131.8 303.57,-135.3 303.57,-128.3"/>
</g>
<!-- PostsSearchService -->
<g id="node3" class="node">
<title>PostsSearchService</title>
<ellipse fill="#fdb462" stroke="black" cx="249" cy="-66.8" rx="86.83" ry="18"/>
<text text-anchor="middle" x="249" y="-62.6" font-family="Times,serif" font-size="14.00">PostsSearchService</text>
</g>
<!-- PostsSearchService&#45;&gt;PostsModule -->
<g id="edge2" class="edge">
<title>PostsSearchService&#45;&gt;PostsModule</title>
<path fill="none" stroke="black" d="M249,-84.91C249,-84.91 249,-103.79 249,-103.79"/>
<polygon fill="black" stroke="black" points="245.5,-103.79 249,-113.79 252.5,-103.79 245.5,-103.79"/>
</g>
<!-- PostsService -->
<g id="node4" class="node">
<title>PostsService</title>
<ellipse fill="#fdb462" stroke="black" cx="84" cy="-66.8" rx="60.28" ry="18"/>
<text text-anchor="middle" x="84" y="-62.6" font-family="Times,serif" font-size="14.00">PostsService</text>
</g>
<!-- PostsService&#45;&gt;PostsModule -->
<g id="edge3" class="edge">
<title>PostsService&#45;&gt;PostsModule</title>
<path fill="none" stroke="black" d="M84,-84.91C84,-104.14 84,-131.8 84,-131.8 84,-131.8 194.35,-131.8 194.35,-131.8"/>
<polygon fill="black" stroke="black" points="194.35,-135.3 204.35,-131.8 194.35,-128.3 194.35,-135.3"/>
</g>
</g>
</svg>
