<?xml version="1.0" encoding="UTF-8" standalone="no"?>
<!DOCTYPE svg PUBLIC "-//W3C//DTD SVG 1.1//EN"
 "http://www.w3.org/Graphics/SVG/1.1/DTD/svg11.dtd">
<!-- Generated by graphviz version 3.0.0 (20220226.1711)
 -->
<!-- Title: dependencies Pages: 1 -->
<svg width="1401pt" height="247pt"
 viewBox="0.00 0.00 1401.00 246.80" xmlns="http://www.w3.org/2000/svg" xmlns:xlink="http://www.w3.org/1999/xlink">
<g id="graph0" class="graph" transform="scale(1 1) rotate(0) translate(4 242.8)">
<title>dependencies</title>
<polygon fill="white" stroke="transparent" points="-4,4 -4,-242.8 1397,-242.8 1397,4 -4,4"/>
<text text-anchor="middle" x="696.5" y="-8.2" font-family="sans-serif" font-size="14.00">dependencies</text>
<g id="clust1" class="cluster">
<title>cluster_AuthenticationModule</title>
<polygon fill="none" stroke="black" stroke-dasharray="1,5" points="8,-32.8 8,-230.8 1385,-230.8 1385,-32.8 8,-32.8"/>
</g>
<g id="clust3" class="cluster">
<title>cluster_AuthenticationModule_imports</title>
<polygon fill="none" stroke="black" points="1269,-40.8 1269,-92.8 1377,-92.8 1377,-40.8 1269,-40.8"/>
</g>
<g id="clust4" class="cluster">
<title>cluster_AuthenticationModule_exports</title>
<polygon fill="none" stroke="black" points="663,-170.8 663,-222.8 823,-222.8 823,-170.8 663,-170.8"/>
</g>
<g id="clust6" class="cluster">
<title>cluster_AuthenticationModule_providers</title>
<polygon fill="none" stroke="black" points="16,-40.8 16,-92.8 1261,-92.8 1261,-40.8 16,-40.8"/>
</g>
<!-- UsersModule -->
<g id="node1" class="node">
<title>UsersModule</title>
<polygon fill="#8dd3c7" stroke="black" points="1368.94,-84.8 1365.94,-88.8 1344.94,-88.8 1341.94,-84.8 1277.06,-84.8 1277.06,-48.8 1368.94,-48.8 1368.94,-84.8"/>
<text text-anchor="middle" x="1323" y="-62.6" font-family="Times,serif" font-size="14.00">UsersModule</text>
</g>
<!-- AuthenticationModule -->
<g id="node2" class="node">
<title>AuthenticationModule</title>
<polygon fill="#8dd3c7" stroke="black" points="814.25,-149.8 811.25,-153.8 790.25,-153.8 787.25,-149.8 671.75,-149.8 671.75,-113.8 814.25,-113.8 814.25,-149.8"/>
<text text-anchor="middle" x="743" y="-127.6" font-family="Times,serif" font-size="14.00">AuthenticationModule</text>
</g>
<!-- UsersModule&#45;&gt;AuthenticationModule -->
<g id="edge1" class="edge">
<title>UsersModule&#45;&gt;AuthenticationModule</title>
<path fill="none" stroke="black" d="M1323,-85.08C1323,-106.12 1323,-137.8 1323,-137.8 1323,-137.8 824.41,-137.8 824.41,-137.8"/>
<polygon fill="black" stroke="black" points="824.41,-134.3 814.41,-137.8 824.41,-141.3 824.41,-134.3"/>
</g>
<!-- AuthenticationService  -->
<g id="node3" class="node">
<title>AuthenticationService </title>
<polygon fill="#fb8072" stroke="black" points="815.18,-214.8 670.82,-214.8 670.82,-178.8 815.18,-178.8 815.18,-214.8"/>
<text text-anchor="middle" x="743" y="-192.6" font-family="Times,serif" font-size="14.00">AuthenticationService </text>
</g>
<!-- AuthenticationModule&#45;&gt;AuthenticationService  -->
<g id="edge2" class="edge">
<title>AuthenticationModule&#45;&gt;AuthenticationService </title>
<path fill="none" stroke="black" stroke-dasharray="5,2" d="M743,-149.91C743,-149.91 743,-168.79 743,-168.79"/>
<polygon fill="black" stroke="black" points="739.5,-168.79 743,-178.79 746.5,-168.79 739.5,-168.79"/>
</g>
<!-- AuthenticationService -->
<g id="node4" class="node">
<title>AuthenticationService</title>
<ellipse fill="#fdb462" stroke="black" cx="1156" cy="-66.8" rx="97.27" ry="18"/>
<text text-anchor="middle" x="1156" y="-62.6" font-family="Times,serif" font-size="14.00">AuthenticationService</text>
</g>
<!-- AuthenticationService&#45;&gt;AuthenticationModule -->
<g id="edge3" class="edge">
<title>AuthenticationService&#45;&gt;AuthenticationModule</title>
<path fill="none" stroke="black" d="M1156,-84.82C1156,-102.17 1156,-125.8 1156,-125.8 1156,-125.8 824.47,-125.8 824.47,-125.8"/>
<polygon fill="black" stroke="black" points="824.47,-122.3 814.47,-125.8 824.47,-129.3 824.47,-122.3"/>
</g>
<!-- JwtRefreshTokenStrategy -->
<g id="node5" class="node">
<title>JwtRefreshTokenStrategy</title>
<ellipse fill="#fdb462" stroke="black" cx="929" cy="-66.8" rx="111.17" ry="18"/>
<text text-anchor="middle" x="929" y="-62.6" font-family="Times,serif" font-size="14.00">JwtRefreshTokenStrategy</text>
</g>
<!-- JwtRefreshTokenStrategy&#45;&gt;AuthenticationModule -->
<g id="edge4" class="edge">
<title>JwtRefreshTokenStrategy&#45;&gt;AuthenticationModule</title>
<path fill="none" stroke="black" d="M817.41,-66.8C810.94,-66.8 807,-66.8 807,-66.8 807,-66.8 807,-103.69 807,-103.69"/>
<polygon fill="black" stroke="black" points="803.5,-103.69 807,-113.69 810.5,-103.69 803.5,-103.69"/>
</g>
<!-- JwtStrategy -->
<g id="node6" class="node">
<title>JwtStrategy</title>
<ellipse fill="#fdb462" stroke="black" cx="743" cy="-66.8" rx="56.77" ry="18"/>
<text text-anchor="middle" x="743" y="-62.6" font-family="Times,serif" font-size="14.00">JwtStrategy</text>
</g>
<!-- JwtStrategy&#45;&gt;AuthenticationModule -->
<g id="edge5" class="edge">
<title>JwtStrategy&#45;&gt;AuthenticationModule</title>
<path fill="none" stroke="black" d="M743,-84.91C743,-84.91 743,-103.79 743,-103.79"/>
<polygon fill="black" stroke="black" points="739.5,-103.79 743,-113.79 746.5,-103.79 739.5,-103.79"/>
</g>
<!-- JwtTwoFactorStrategy -->
<g id="node7" class="node">
<title>JwtTwoFactorStrategy</title>
<ellipse fill="#fdb462" stroke="black" cx="569" cy="-66.8" rx="99.01" ry="18"/>
<text text-anchor="middle" x="569" y="-62.6" font-family="Times,serif" font-size="14.00">JwtTwoFactorStrategy</text>
</g>
<!-- JwtTwoFactorStrategy&#45;&gt;AuthenticationModule -->
<g id="edge6" class="edge">
<title>JwtTwoFactorStrategy&#45;&gt;AuthenticationModule</title>
<path fill="none" stroke="black" d="M668.05,-66.8C674.8,-66.8 679,-66.8 679,-66.8 679,-66.8 679,-103.69 679,-103.69"/>
<polygon fill="black" stroke="black" points="675.5,-103.69 679,-113.69 682.5,-103.69 675.5,-103.69"/>
</g>
<!-- LocalStrategy -->
<g id="node8" class="node">
<title>LocalStrategy</title>
<ellipse fill="#fdb462" stroke="black" cx="387" cy="-66.8" rx="65.4" ry="18"/>
<text text-anchor="middle" x="387" y="-62.6" font-family="Times,serif" font-size="14.00">LocalStrategy</text>
</g>
<!-- LocalStrategy&#45;&gt;AuthenticationModule -->
<g id="edge7" class="edge">
<title>LocalStrategy&#45;&gt;AuthenticationModule</title>
<path fill="none" stroke="black" d="M387,-84.82C387,-102.17 387,-125.8 387,-125.8 387,-125.8 661.39,-125.8 661.39,-125.8"/>
<polygon fill="black" stroke="black" points="661.39,-129.3 671.39,-125.8 661.39,-122.3 661.39,-129.3"/>
</g>
<!-- TwoFactorAuthenticationService -->
<g id="node9" class="node">
<title>TwoFactorAuthenticationService</title>
<ellipse fill="#fdb462" stroke="black" cx="164" cy="-66.8" rx="139.51" ry="18"/>
<text text-anchor="middle" x="164" y="-62.6" font-family="Times,serif" font-size="14.00">TwoFactorAuthenticationService</text>
</g>
<!-- TwoFactorAuthenticationService&#45;&gt;AuthenticationModule -->
<g id="edge8" class="edge">
<title>TwoFactorAuthenticationService&#45;&gt;AuthenticationModule</title>
<path fill="none" stroke="black" d="M164,-85.08C164,-106.12 164,-137.8 164,-137.8 164,-137.8 661.71,-137.8 661.71,-137.8"/>
<polygon fill="black" stroke="black" points="661.71,-141.3 671.71,-137.8 661.71,-134.3 661.71,-141.3"/>
</g>
</g>
</svg>
