<?xml version="1.0" encoding="UTF-8" standalone="no"?>
<!DOCTYPE svg PUBLIC "-//W3C//DTD SVG 1.1//EN"
 "http://www.w3.org/Graphics/SVG/1.1/DTD/svg11.dtd">
<!-- Generated by graphviz version 3.0.0 (20220226.1711)
 -->
<!-- Title: dependencies Pages: 1 -->
<svg width="1587pt" height="247pt"
 viewBox="0.00 0.00 1587.00 246.80" xmlns="http://www.w3.org/2000/svg" xmlns:xlink="http://www.w3.org/1999/xlink">
<g id="graph0" class="graph" transform="scale(1 1) rotate(0) translate(4 242.8)">
<title>dependencies</title>
<polygon fill="white" stroke="transparent" points="-4,4 -4,-242.8 1583,-242.8 1583,4 -4,4"/>
<text text-anchor="middle" x="789.5" y="-8.2" font-family="sans-serif" font-size="14.00">dependencies</text>
<g id="clust1" class="cluster">
<title>cluster_AuthenticationModule</title>
<polygon fill="none" stroke="black" stroke-dasharray="1,5" points="8,-32.8 8,-230.8 1571,-230.8 1571,-32.8 8,-32.8"/>
</g>
<g id="clust3" class="cluster">
<title>cluster_AuthenticationModule_imports</title>
<polygon fill="none" stroke="black" points="1269,-40.8 1269,-92.8 1563,-92.8 1563,-40.8 1269,-40.8"/>
</g>
<g id="clust6" class="cluster">
<title>cluster_AuthenticationModule_providers</title>
<polygon fill="none" stroke="black" points="16,-40.8 16,-92.8 1261,-92.8 1261,-40.8 16,-40.8"/>
</g>
<g id="clust4" class="cluster">
<title>cluster_AuthenticationModule_exports</title>
<polygon fill="none" stroke="black" points="756,-170.8 756,-222.8 916,-222.8 916,-170.8 756,-170.8"/>
</g>
<!-- EmailConfirmationModule -->
<g id="node1" class="node">
<title>EmailConfirmationModule</title>
<polygon fill="#8dd3c7" stroke="black" points="1555.42,-84.8 1552.42,-88.8 1531.42,-88.8 1528.42,-84.8 1386.58,-84.8 1386.58,-48.8 1555.42,-48.8 1555.42,-84.8"/>
<text text-anchor="middle" x="1471" y="-62.6" font-family="Times,serif" font-size="14.00">EmailConfirmationModule</text>
</g>
<!-- AuthenticationModule -->
<g id="node3" class="node">
<title>AuthenticationModule</title>
<polygon fill="#8dd3c7" stroke="black" points="907.25,-149.8 904.25,-153.8 883.25,-153.8 880.25,-149.8 764.75,-149.8 764.75,-113.8 907.25,-113.8 907.25,-149.8"/>
<text text-anchor="middle" x="836" y="-127.6" font-family="Times,serif" font-size="14.00">AuthenticationModule</text>
</g>
<!-- EmailConfirmationModule&#45;&gt;AuthenticationModule -->
<g id="edge1" class="edge">
<title>EmailConfirmationModule&#45;&gt;AuthenticationModule</title>
<path fill="none" stroke="black" d="M1471,-85.09C1471,-107.01 1471,-140.8 1471,-140.8 1471,-140.8 917.3,-140.8 917.3,-140.8"/>
<polygon fill="black" stroke="black" points="917.3,-137.3 907.3,-140.8 917.3,-144.3 917.3,-137.3"/>
</g>
<!-- UsersModule -->
<g id="node2" class="node">
<title>UsersModule</title>
<polygon fill="#8dd3c7" stroke="black" points="1368.94,-84.8 1365.94,-88.8 1344.94,-88.8 1341.94,-84.8 1277.06,-84.8 1277.06,-48.8 1368.94,-48.8 1368.94,-84.8"/>
<text text-anchor="middle" x="1323" y="-62.6" font-family="Times,serif" font-size="14.00">UsersModule</text>
</g>
<!-- UsersModule&#45;&gt;AuthenticationModule -->
<g id="edge2" class="edge">
<title>UsersModule&#45;&gt;AuthenticationModule</title>
<path fill="none" stroke="black" d="M1323,-84.91C1323,-104.14 1323,-131.8 1323,-131.8 1323,-131.8 917.34,-131.8 917.34,-131.8"/>
<polygon fill="black" stroke="black" points="917.34,-128.3 907.34,-131.8 917.34,-135.3 917.34,-128.3"/>
</g>
<!-- AuthenticationService  -->
<g id="node4" class="node">
<title>AuthenticationService </title>
<polygon fill="#fb8072" stroke="black" points="908.18,-214.8 763.82,-214.8 763.82,-178.8 908.18,-178.8 908.18,-214.8"/>
<text text-anchor="middle" x="836" y="-192.6" font-family="Times,serif" font-size="14.00">AuthenticationService </text>
</g>
<!-- AuthenticationModule&#45;&gt;AuthenticationService  -->
<g id="edge3" class="edge">
<title>AuthenticationModule&#45;&gt;AuthenticationService </title>
<path fill="none" stroke="black" stroke-dasharray="5,2" d="M836,-149.91C836,-149.91 836,-168.79 836,-168.79"/>
<polygon fill="black" stroke="black" points="832.5,-168.79 836,-178.79 839.5,-168.79 832.5,-168.79"/>
</g>
<!-- AuthenticationService -->
<g id="node5" class="node">
<title>AuthenticationService</title>
<ellipse fill="#fdb462" stroke="black" cx="1156" cy="-66.8" rx="97.27" ry="18"/>
<text text-anchor="middle" x="1156" y="-62.6" font-family="Times,serif" font-size="14.00">AuthenticationService</text>
</g>
<!-- AuthenticationService&#45;&gt;AuthenticationModule -->
<g id="edge4" class="edge">
<title>AuthenticationService&#45;&gt;AuthenticationModule</title>
<path fill="none" stroke="black" d="M1156,-84.83C1156,-101.2 1156,-122.8 1156,-122.8 1156,-122.8 917.42,-122.8 917.42,-122.8"/>
<polygon fill="black" stroke="black" points="917.42,-119.3 907.42,-122.8 917.42,-126.3 917.42,-119.3"/>
</g>
<!-- JwtRefreshTokenStrategy -->
<g id="node6" class="node">
<title>JwtRefreshTokenStrategy</title>
<ellipse fill="#fdb462" stroke="black" cx="929" cy="-66.8" rx="111.17" ry="18"/>
<text text-anchor="middle" x="929" y="-62.6" font-family="Times,serif" font-size="14.00">JwtRefreshTokenStrategy</text>
</g>
<!-- JwtRefreshTokenStrategy&#45;&gt;AuthenticationModule -->
<g id="edge5" class="edge">
<title>JwtRefreshTokenStrategy&#45;&gt;AuthenticationModule</title>
<path fill="none" stroke="black" d="M862.52,-81.55C862.52,-81.55 862.52,-103.39 862.52,-103.39"/>
<polygon fill="black" stroke="black" points="859.02,-103.39 862.52,-113.39 866.02,-103.39 859.02,-103.39"/>
</g>
<!-- JwtStrategy -->
<g id="node7" class="node">
<title>JwtStrategy</title>
<ellipse fill="#fdb462" stroke="black" cx="743" cy="-66.8" rx="56.77" ry="18"/>
<text text-anchor="middle" x="743" y="-62.6" font-family="Times,serif" font-size="14.00">JwtStrategy</text>
</g>
<!-- JwtStrategy&#45;&gt;AuthenticationModule -->
<g id="edge6" class="edge">
<title>JwtStrategy&#45;&gt;AuthenticationModule</title>
<path fill="none" stroke="black" d="M782.13,-79.95C782.13,-79.95 782.13,-103.49 782.13,-103.49"/>
<polygon fill="black" stroke="black" points="778.63,-103.49 782.13,-113.49 785.63,-103.49 778.63,-103.49"/>
</g>
<!-- JwtTwoFactorStrategy -->
<g id="node8" class="node">
<title>JwtTwoFactorStrategy</title>
<ellipse fill="#fdb462" stroke="black" cx="569" cy="-66.8" rx="99.01" ry="18"/>
<text text-anchor="middle" x="569" y="-62.6" font-family="Times,serif" font-size="14.00">JwtTwoFactorStrategy</text>
</g>
<!-- JwtTwoFactorStrategy&#45;&gt;AuthenticationModule -->
<g id="edge7" class="edge">
<title>JwtTwoFactorStrategy&#45;&gt;AuthenticationModule</title>
<path fill="none" stroke="black" d="M569,-84.83C569,-101.2 569,-122.8 569,-122.8 569,-122.8 754.45,-122.8 754.45,-122.8"/>
<polygon fill="black" stroke="black" points="754.45,-126.3 764.45,-122.8 754.45,-119.3 754.45,-126.3"/>
</g>
<!-- LocalStrategy -->
<g id="node9" class="node">
<title>LocalStrategy</title>
<ellipse fill="#fdb462" stroke="black" cx="387" cy="-66.8" rx="65.4" ry="18"/>
<text text-anchor="middle" x="387" y="-62.6" font-family="Times,serif" font-size="14.00">LocalStrategy</text>
</g>
<!-- LocalStrategy&#45;&gt;AuthenticationModule -->
<g id="edge8" class="edge">
<title>LocalStrategy&#45;&gt;AuthenticationModule</title>
<path fill="none" stroke="black" d="M387,-84.91C387,-104.14 387,-131.8 387,-131.8 387,-131.8 754.36,-131.8 754.36,-131.8"/>
<polygon fill="black" stroke="black" points="754.36,-135.3 764.36,-131.8 754.36,-128.3 754.36,-135.3"/>
</g>
<!-- TwoFactorAuthenticationService -->
<g id="node10" class="node">
<title>TwoFactorAuthenticationService</title>
<ellipse fill="#fdb462" stroke="black" cx="164" cy="-66.8" rx="139.51" ry="18"/>
<text text-anchor="middle" x="164" y="-62.6" font-family="Times,serif" font-size="14.00">TwoFactorAuthenticationService</text>
</g>
<!-- TwoFactorAuthenticationService&#45;&gt;AuthenticationModule -->
<g id="edge9" class="edge">
<title>TwoFactorAuthenticationService&#45;&gt;AuthenticationModule</title>
<path fill="none" stroke="black" d="M164,-85.09C164,-107.01 164,-140.8 164,-140.8 164,-140.8 754.72,-140.8 754.72,-140.8"/>
<polygon fill="black" stroke="black" points="754.72,-144.3 764.72,-140.8 754.72,-137.3 754.72,-144.3"/>
</g>
</g>
</svg>
