<?xml version="1.0" encoding="UTF-8" standalone="no"?>
<!DOCTYPE svg PUBLIC "-//W3C//DTD SVG 1.1//EN"
 "http://www.w3.org/Graphics/SVG/1.1/DTD/svg11.dtd">
<!-- Generated by graphviz version 3.0.0 (20220226.1711)
 -->
<!-- Title: dependencies Pages: 1 -->
<svg width="1587pt" height="247pt"
 viewBox="0.00 0.00 1587.00 246.80" xmlns="http://www.w3.org/2000/svg" xmlns:xlink="http://www.w3.org/1999/xlink">
<g id="graph0" class="graph" transform="scale(1 1) rotate(0) translate(4 242.8)">
<title>dependencies</title>
<polygon fill="white" stroke="transparent" points="-4,4 -4,-242.8 1583,-242.8 1583,4 -4,4"/>
<text text-anchor="middle" x="789.5" y="-8.2" font-family="sans-serif" font-size="14.00">dependencies</text>
<g id="clust1" class="cluster">
<title>cluster_AuthenticationModule</title>
<polygon fill="none" stroke="black" stroke-dasharray="1,5" points="8,-32.8 8,-230.8 1571,-230.8 1571,-32.8 8,-32.8"/>
</g>
<g id="clust4" class="cluster">
<title>cluster_AuthenticationModule_exports</title>
<polygon fill="none" stroke="black" points="700,-170.8 700,-222.8 860,-222.8 860,-170.8 700,-170.8"/>
</g>
<g id="clust6" class="cluster">
<title>cluster_AuthenticationModule_providers</title>
<polygon fill="none" stroke="black" points="318,-40.8 318,-92.8 1563,-92.8 1563,-40.8 318,-40.8"/>
</g>
<g id="clust3" class="cluster">
<title>cluster_AuthenticationModule_imports</title>
<polygon fill="none" stroke="black" points="16,-40.8 16,-92.8 310,-92.8 310,-40.8 16,-40.8"/>
</g>
<!-- EmailConfirmationModule -->
<g id="node1" class="node">
<title>EmailConfirmationModule</title>
<polygon fill="#8dd3c7" stroke="black" points="302.42,-84.8 299.42,-88.8 278.42,-88.8 275.42,-84.8 133.58,-84.8 133.58,-48.8 302.42,-48.8 302.42,-84.8"/>
<text text-anchor="middle" x="218" y="-62.6" font-family="Times,serif" font-size="14.00">EmailConfirmationModule</text>
</g>
<!-- AuthenticationModule -->
<g id="node3" class="node">
<title>AuthenticationModule</title>
<polygon fill="#8dd3c7" stroke="black" points="851.25,-149.8 848.25,-153.8 827.25,-153.8 824.25,-149.8 708.75,-149.8 708.75,-113.8 851.25,-113.8 851.25,-149.8"/>
<text text-anchor="middle" x="780" y="-127.6" font-family="Times,serif" font-size="14.00">AuthenticationModule</text>
</g>
<!-- EmailConfirmationModule&#45;&gt;AuthenticationModule -->
<g id="edge1" class="edge">
<title>EmailConfirmationModule&#45;&gt;AuthenticationModule</title>
<path fill="none" stroke="black" d="M218,-84.91C218,-104.14 218,-131.8 218,-131.8 218,-131.8 698.54,-131.8 698.54,-131.8"/>
<polygon fill="black" stroke="black" points="698.54,-135.3 708.54,-131.8 698.54,-128.3 698.54,-135.3"/>
</g>
<!-- UsersModule -->
<g id="node2" class="node">
<title>UsersModule</title>
<polygon fill="#8dd3c7" stroke="black" points="115.94,-84.8 112.94,-88.8 91.94,-88.8 88.94,-84.8 24.06,-84.8 24.06,-48.8 115.94,-48.8 115.94,-84.8"/>
<text text-anchor="middle" x="70" y="-62.6" font-family="Times,serif" font-size="14.00">UsersModule</text>
</g>
<!-- UsersModule&#45;&gt;AuthenticationModule -->
<g id="edge2" class="edge">
<title>UsersModule&#45;&gt;AuthenticationModule</title>
<path fill="none" stroke="black" d="M70,-85.09C70,-107.01 70,-140.8 70,-140.8 70,-140.8 698.67,-140.8 698.67,-140.8"/>
<polygon fill="black" stroke="black" points="698.67,-144.3 708.67,-140.8 698.67,-137.3 698.67,-144.3"/>
</g>
<!-- AuthenticationService  -->
<g id="node4" class="node">
<title>AuthenticationService </title>
<polygon fill="#fb8072" stroke="black" points="852.18,-214.8 707.82,-214.8 707.82,-178.8 852.18,-178.8 852.18,-214.8"/>
<text text-anchor="middle" x="780" y="-192.6" font-family="Times,serif" font-size="14.00">AuthenticationService </text>
</g>
<!-- AuthenticationModule&#45;&gt;AuthenticationService  -->
<g id="edge3" class="edge">
<title>AuthenticationModule&#45;&gt;AuthenticationService </title>
<path fill="none" stroke="black" stroke-dasharray="5,2" d="M780,-149.91C780,-149.91 780,-168.79 780,-168.79"/>
<polygon fill="black" stroke="black" points="776.5,-168.79 780,-178.79 783.5,-168.79 776.5,-168.79"/>
</g>
<!-- AuthenticationService -->
<g id="node5" class="node">
<title>AuthenticationService</title>
<ellipse fill="#fdb462" stroke="black" cx="1458" cy="-66.8" rx="97.27" ry="18"/>
<text text-anchor="middle" x="1458" y="-62.6" font-family="Times,serif" font-size="14.00">AuthenticationService</text>
</g>
<!-- AuthenticationService&#45;&gt;AuthenticationModule -->
<g id="edge4" class="edge">
<title>AuthenticationService&#45;&gt;AuthenticationModule</title>
<path fill="none" stroke="black" d="M1458,-85.09C1458,-107.01 1458,-140.8 1458,-140.8 1458,-140.8 861.28,-140.8 861.28,-140.8"/>
<polygon fill="black" stroke="black" points="861.28,-137.3 851.28,-140.8 861.28,-144.3 861.28,-137.3"/>
</g>
<!-- JwtRefreshTokenStrategy -->
<g id="node6" class="node">
<title>JwtRefreshTokenStrategy</title>
<ellipse fill="#fdb462" stroke="black" cx="1231" cy="-66.8" rx="111.17" ry="18"/>
<text text-anchor="middle" x="1231" y="-62.6" font-family="Times,serif" font-size="14.00">JwtRefreshTokenStrategy</text>
</g>
<!-- JwtRefreshTokenStrategy&#45;&gt;AuthenticationModule -->
<g id="edge5" class="edge">
<title>JwtRefreshTokenStrategy&#45;&gt;AuthenticationModule</title>
<path fill="none" stroke="black" d="M1231,-84.91C1231,-104.14 1231,-131.8 1231,-131.8 1231,-131.8 861.46,-131.8 861.46,-131.8"/>
<polygon fill="black" stroke="black" points="861.46,-128.3 851.46,-131.8 861.46,-135.3 861.46,-128.3"/>
</g>
<!-- JwtStrategy -->
<g id="node7" class="node">
<title>JwtStrategy</title>
<ellipse fill="#fdb462" stroke="black" cx="1045" cy="-66.8" rx="56.77" ry="18"/>
<text text-anchor="middle" x="1045" y="-62.6" font-family="Times,serif" font-size="14.00">JwtStrategy</text>
</g>
<!-- JwtStrategy&#45;&gt;AuthenticationModule -->
<g id="edge6" class="edge">
<title>JwtStrategy&#45;&gt;AuthenticationModule</title>
<path fill="none" stroke="black" d="M1045,-84.83C1045,-101.2 1045,-122.8 1045,-122.8 1045,-122.8 861.36,-122.8 861.36,-122.8"/>
<polygon fill="black" stroke="black" points="861.36,-119.3 851.36,-122.8 861.36,-126.3 861.36,-119.3"/>
</g>
<!-- JwtTwoFactorStrategy -->
<g id="node8" class="node">
<title>JwtTwoFactorStrategy</title>
<ellipse fill="#fdb462" stroke="black" cx="871" cy="-66.8" rx="99.01" ry="18"/>
<text text-anchor="middle" x="871" y="-62.6" font-family="Times,serif" font-size="14.00">JwtTwoFactorStrategy</text>
</g>
<!-- JwtTwoFactorStrategy&#45;&gt;AuthenticationModule -->
<g id="edge7" class="edge">
<title>JwtTwoFactorStrategy&#45;&gt;AuthenticationModule</title>
<path fill="none" stroke="black" d="M811.69,-81.23C811.69,-81.23 811.69,-103.69 811.69,-103.69"/>
<polygon fill="black" stroke="black" points="808.19,-103.69 811.69,-113.69 815.19,-103.69 808.19,-103.69"/>
</g>
<!-- LocalStrategy -->
<g id="node9" class="node">
<title>LocalStrategy</title>
<ellipse fill="#fdb462" stroke="black" cx="689" cy="-66.8" rx="65.4" ry="18"/>
<text text-anchor="middle" x="689" y="-62.6" font-family="Times,serif" font-size="14.00">LocalStrategy</text>
</g>
<!-- LocalStrategy&#45;&gt;AuthenticationModule -->
<g id="edge8" class="edge">
<title>LocalStrategy&#45;&gt;AuthenticationModule</title>
<path fill="none" stroke="black" d="M731.41,-80.58C731.41,-80.58 731.41,-103.35 731.41,-103.35"/>
<polygon fill="black" stroke="black" points="727.91,-103.35 731.41,-113.35 734.91,-103.35 727.91,-103.35"/>
</g>
<!-- TwoFactorAuthenticationService -->
<g id="node10" class="node">
<title>TwoFactorAuthenticationService</title>
<ellipse fill="#fdb462" stroke="black" cx="466" cy="-66.8" rx="139.51" ry="18"/>
<text text-anchor="middle" x="466" y="-62.6" font-family="Times,serif" font-size="14.00">TwoFactorAuthenticationService</text>
</g>
<!-- TwoFactorAuthenticationService&#45;&gt;AuthenticationModule -->
<g id="edge9" class="edge">
<title>TwoFactorAuthenticationService&#45;&gt;AuthenticationModule</title>
<path fill="none" stroke="black" d="M466,-84.83C466,-101.2 466,-122.8 466,-122.8 466,-122.8 698.36,-122.8 698.36,-122.8"/>
<polygon fill="black" stroke="black" points="698.36,-126.3 708.36,-122.8 698.36,-119.3 698.36,-126.3"/>
</g>
</g>
</svg>
