<?xml version="1.0" encoding="UTF-8" standalone="no"?>
<!DOCTYPE svg PUBLIC "-//W3C//DTD SVG 1.1//EN"
 "http://www.w3.org/Graphics/SVG/1.1/DTD/svg11.dtd">
<!-- Generated by graphviz version 3.0.0 (20220226.1711)
 -->
<!-- Title: dependencies Pages: 1 -->
<svg width="204pt" height="174pt"
 viewBox="0.00 0.00 204.00 173.80" xmlns="http://www.w3.org/2000/svg" xmlns:xlink="http://www.w3.org/1999/xlink">
<g id="graph0" class="graph" transform="scale(1 1) rotate(0) translate(4 169.8)">
<title>dependencies</title>
<polygon fill="white" stroke="transparent" points="-4,4 -4,-169.8 200,-169.8 200,4 -4,4"/>
<text text-anchor="middle" x="98" y="-8.2" font-family="sans-serif" font-size="14.00">dependencies</text>
<g id="clust1" class="cluster">
<title>cluster_ProductsModule</title>
<polygon fill="none" stroke="black" stroke-dasharray="1,5" points="8,-32.8 8,-157.8 188,-157.8 188,-32.8 8,-32.8"/>
</g>
<g id="clust6" class="cluster">
<title>cluster_ProductsModule_providers</title>
<polygon fill="none" stroke="black" points="16,-40.8 16,-92.8 180,-92.8 180,-40.8 16,-40.8"/>
</g>
<!-- ProductsService -->
<g id="node1" class="node">
<title>ProductsService</title>
<ellipse fill="#fdb462" stroke="black" cx="98" cy="-66.8" rx="73.59" ry="18"/>
<text text-anchor="middle" x="98" y="-62.6" font-family="Times,serif" font-size="14.00">ProductsService</text>
</g>
<!-- ProductsModule -->
<g id="node2" class="node">
<title>ProductsModule</title>
<polygon fill="#8dd3c7" stroke="black" points="152.05,-149.8 149.05,-153.8 128.05,-153.8 125.05,-149.8 43.95,-149.8 43.95,-113.8 152.05,-113.8 152.05,-149.8"/>
<text text-anchor="middle" x="98" y="-127.6" font-family="Times,serif" font-size="14.00">ProductsModule</text>
</g>
<!-- ProductsService&#45;&gt;ProductsModule -->
<g id="edge1" class="edge">
<title>ProductsService&#45;&gt;ProductsModule</title>
<path fill="none" stroke="black" d="M98,-84.91C98,-84.91 98,-103.79 98,-103.79"/>
<polygon fill="black" stroke="black" points="94.5,-103.79 98,-113.79 101.5,-103.79 94.5,-103.79"/>
</g>
</g>
</svg>
