<?xml version="1.0" encoding="UTF-8" standalone="no"?>
<!DOCTYPE svg PUBLIC "-//W3C//DTD SVG 1.1//EN"
 "http://www.w3.org/Graphics/SVG/1.1/DTD/svg11.dtd">
<!-- Generated by graphviz version 3.0.0 (20220226.1711)
 -->
<!-- Title: dependencies Pages: 1 -->
<svg width="512pt" height="247pt"
 viewBox="0.00 0.00 512.00 246.80" xmlns="http://www.w3.org/2000/svg" xmlns:xlink="http://www.w3.org/1999/xlink">
<g id="graph0" class="graph" transform="scale(1 1) rotate(0) translate(4 242.8)">
<title>dependencies</title>
<polygon fill="white" stroke="transparent" points="-4,4 -4,-242.8 508,-242.8 508,4 -4,4"/>
<text text-anchor="middle" x="252" y="-8.2" font-family="sans-serif" font-size="14.00">dependencies</text>
<g id="clust1" class="cluster">
<title>cluster_EmailConfirmationModule</title>
<polygon fill="none" stroke="black" stroke-dasharray="1,5" points="8,-32.8 8,-230.8 496,-230.8 496,-32.8 8,-32.8"/>
</g>
<g id="clust3" class="cluster">
<title>cluster_EmailConfirmationModule_imports</title>
<polygon fill="none" stroke="black" points="270,-40.8 270,-92.8 488,-92.8 488,-40.8 270,-40.8"/>
</g>
<g id="clust4" class="cluster">
<title>cluster_EmailConfirmationModule_exports</title>
<polygon fill="none" stroke="black" points="231,-170.8 231,-222.8 417,-222.8 417,-170.8 231,-170.8"/>
</g>
<g id="clust6" class="cluster">
<title>cluster_EmailConfirmationModule_providers</title>
<polygon fill="none" stroke="black" points="16,-40.8 16,-92.8 262,-92.8 262,-40.8 16,-40.8"/>
</g>
<!-- EmailModule -->
<g id="node1" class="node">
<title>EmailModule</title>
<polygon fill="#8dd3c7" stroke="black" points="480.49,-84.8 477.49,-88.8 456.49,-88.8 453.49,-84.8 387.51,-84.8 387.51,-48.8 480.49,-48.8 480.49,-84.8"/>
<text text-anchor="middle" x="434" y="-62.6" font-family="Times,serif" font-size="14.00">EmailModule</text>
</g>
<!-- EmailConfirmationModule -->
<g id="node3" class="node">
<title>EmailConfirmationModule</title>
<polygon fill="#8dd3c7" stroke="black" points="408.42,-149.8 405.42,-153.8 384.42,-153.8 381.42,-149.8 239.58,-149.8 239.58,-113.8 408.42,-113.8 408.42,-149.8"/>
<text text-anchor="middle" x="324" y="-127.6" font-family="Times,serif" font-size="14.00">EmailConfirmationModule</text>
</g>
<!-- EmailModule&#45;&gt;EmailConfirmationModule -->
<g id="edge1" class="edge">
<title>EmailModule&#45;&gt;EmailConfirmationModule</title>
<path fill="none" stroke="black" d="M397.86,-84.91C397.86,-84.91 397.86,-103.79 397.86,-103.79"/>
<polygon fill="black" stroke="black" points="394.36,-103.79 397.86,-113.79 401.36,-103.79 394.36,-103.79"/>
</g>
<!-- UsersModule -->
<g id="node2" class="node">
<title>UsersModule</title>
<polygon fill="#8dd3c7" stroke="black" points="369.94,-84.8 366.94,-88.8 345.94,-88.8 342.94,-84.8 278.06,-84.8 278.06,-48.8 369.94,-48.8 369.94,-84.8"/>
<text text-anchor="middle" x="324" y="-62.6" font-family="Times,serif" font-size="14.00">UsersModule</text>
</g>
<!-- UsersModule&#45;&gt;EmailConfirmationModule -->
<g id="edge2" class="edge">
<title>UsersModule&#45;&gt;EmailConfirmationModule</title>
<path fill="none" stroke="black" d="M324,-84.91C324,-84.91 324,-103.79 324,-103.79"/>
<polygon fill="black" stroke="black" points="320.5,-103.79 324,-113.79 327.5,-103.79 320.5,-103.79"/>
</g>
<!-- EmailConfirmationService  -->
<g id="node4" class="node">
<title>EmailConfirmationService </title>
<polygon fill="#fb8072" stroke="black" points="409.35,-214.8 238.65,-214.8 238.65,-178.8 409.35,-178.8 409.35,-214.8"/>
<text text-anchor="middle" x="324" y="-192.6" font-family="Times,serif" font-size="14.00">EmailConfirmationService </text>
</g>
<!-- EmailConfirmationModule&#45;&gt;EmailConfirmationService  -->
<g id="edge3" class="edge">
<title>EmailConfirmationModule&#45;&gt;EmailConfirmationService </title>
<path fill="none" stroke="black" stroke-dasharray="5,2" d="M324,-149.91C324,-149.91 324,-168.79 324,-168.79"/>
<polygon fill="black" stroke="black" points="320.5,-168.79 324,-178.79 327.5,-168.79 320.5,-168.79"/>
</g>
<!-- EmailConfirmationService -->
<g id="node5" class="node">
<title>EmailConfirmationService</title>
<ellipse fill="#fdb462" stroke="black" cx="139" cy="-66.8" rx="115.18" ry="18"/>
<text text-anchor="middle" x="139" y="-62.6" font-family="Times,serif" font-size="14.00">EmailConfirmationService</text>
</g>
<!-- EmailConfirmationService&#45;&gt;EmailConfirmationModule -->
<g id="edge4" class="edge">
<title>EmailConfirmationService&#45;&gt;EmailConfirmationModule</title>
<path fill="none" stroke="black" d="M246.94,-73.27C246.94,-73.27 246.94,-103.58 246.94,-103.58"/>
<polygon fill="black" stroke="black" points="243.44,-103.58 246.94,-113.58 250.44,-103.58 243.44,-103.58"/>
</g>
</g>
</svg>
