<?xml version="1.0" encoding="UTF-8" standalone="no"?>
<!DOCTYPE svg PUBLIC "-//W3C//DTD SVG 1.1//EN"
 "http://www.w3.org/Graphics/SVG/1.1/DTD/svg11.dtd">
<!-- Generated by graphviz version 3.0.0 (20220226.1711)
 -->
<!-- Title: dependencies Pages: 1 -->
<svg width="512pt" height="247pt"
 viewBox="0.00 0.00 512.00 246.80" xmlns="http://www.w3.org/2000/svg" xmlns:xlink="http://www.w3.org/1999/xlink">
<g id="graph0" class="graph" transform="scale(1 1) rotate(0) translate(4 242.8)">
<title>dependencies</title>
<polygon fill="white" stroke="transparent" points="-4,4 -4,-242.8 508,-242.8 508,4 -4,4"/>
<text text-anchor="middle" x="252" y="-8.2" font-family="sans-serif" font-size="14.00">dependencies</text>
<g id="clust1" class="cluster">
<title>cluster_EmailConfirmationModule</title>
<polygon fill="none" stroke="black" stroke-dasharray="1,5" points="8,-32.8 8,-230.8 496,-230.8 496,-32.8 8,-32.8"/>
</g>
<g id="clust6" class="cluster">
<title>cluster_EmailConfirmationModule_providers</title>
<polygon fill="none" stroke="black" points="242,-40.8 242,-92.8 488,-92.8 488,-40.8 242,-40.8"/>
</g>
<g id="clust3" class="cluster">
<title>cluster_EmailConfirmationModule_imports</title>
<polygon fill="none" stroke="black" points="16,-40.8 16,-92.8 234,-92.8 234,-40.8 16,-40.8"/>
</g>
<g id="clust4" class="cluster">
<title>cluster_EmailConfirmationModule_exports</title>
<polygon fill="none" stroke="black" points="87,-170.8 87,-222.8 273,-222.8 273,-170.8 87,-170.8"/>
</g>
<!-- EmailModule -->
<g id="node1" class="node">
<title>EmailModule</title>
<polygon fill="#8dd3c7" stroke="black" points="226.49,-84.8 223.49,-88.8 202.49,-88.8 199.49,-84.8 133.51,-84.8 133.51,-48.8 226.49,-48.8 226.49,-84.8"/>
<text text-anchor="middle" x="180" y="-62.6" font-family="Times,serif" font-size="14.00">EmailModule</text>
</g>
<!-- EmailConfirmationModule -->
<g id="node3" class="node">
<title>EmailConfirmationModule</title>
<polygon fill="#8dd3c7" stroke="black" points="264.42,-149.8 261.42,-153.8 240.42,-153.8 237.42,-149.8 95.58,-149.8 95.58,-113.8 264.42,-113.8 264.42,-149.8"/>
<text text-anchor="middle" x="180" y="-127.6" font-family="Times,serif" font-size="14.00">EmailConfirmationModule</text>
</g>
<!-- EmailModule&#45;&gt;EmailConfirmationModule -->
<g id="edge1" class="edge">
<title>EmailModule&#45;&gt;EmailConfirmationModule</title>
<path fill="none" stroke="black" d="M180,-84.91C180,-84.91 180,-103.79 180,-103.79"/>
<polygon fill="black" stroke="black" points="176.5,-103.79 180,-113.79 183.5,-103.79 176.5,-103.79"/>
</g>
<!-- UsersModule -->
<g id="node2" class="node">
<title>UsersModule</title>
<polygon fill="#8dd3c7" stroke="black" points="115.94,-84.8 112.94,-88.8 91.94,-88.8 88.94,-84.8 24.06,-84.8 24.06,-48.8 115.94,-48.8 115.94,-84.8"/>
<text text-anchor="middle" x="70" y="-62.6" font-family="Times,serif" font-size="14.00">UsersModule</text>
</g>
<!-- UsersModule&#45;&gt;EmailConfirmationModule -->
<g id="edge2" class="edge">
<title>UsersModule&#45;&gt;EmailConfirmationModule</title>
<path fill="none" stroke="black" d="M105.75,-84.91C105.75,-84.91 105.75,-103.79 105.75,-103.79"/>
<polygon fill="black" stroke="black" points="102.25,-103.79 105.75,-113.79 109.25,-103.79 102.25,-103.79"/>
</g>
<!-- EmailConfirmationService  -->
<g id="node4" class="node">
<title>EmailConfirmationService </title>
<polygon fill="#fb8072" stroke="black" points="265.35,-214.8 94.65,-214.8 94.65,-178.8 265.35,-178.8 265.35,-214.8"/>
<text text-anchor="middle" x="180" y="-192.6" font-family="Times,serif" font-size="14.00">EmailConfirmationService </text>
</g>
<!-- EmailConfirmationModule&#45;&gt;EmailConfirmationService  -->
<g id="edge3" class="edge">
<title>EmailConfirmationModule&#45;&gt;EmailConfirmationService </title>
<path fill="none" stroke="black" stroke-dasharray="5,2" d="M180,-149.91C180,-149.91 180,-168.79 180,-168.79"/>
<polygon fill="black" stroke="black" points="176.5,-168.79 180,-178.79 183.5,-168.79 176.5,-168.79"/>
</g>
<!-- EmailConfirmationService -->
<g id="node5" class="node">
<title>EmailConfirmationService</title>
<ellipse fill="#fdb462" stroke="black" cx="365" cy="-66.8" rx="115.18" ry="18"/>
<text text-anchor="middle" x="365" y="-62.6" font-family="Times,serif" font-size="14.00">EmailConfirmationService</text>
</g>
<!-- EmailConfirmationService&#45;&gt;EmailConfirmationModule -->
<g id="edge4" class="edge">
<title>EmailConfirmationService&#45;&gt;EmailConfirmationModule</title>
<path fill="none" stroke="black" d="M257.06,-73.27C257.06,-73.27 257.06,-103.58 257.06,-103.58"/>
<polygon fill="black" stroke="black" points="253.56,-103.58 257.06,-113.58 260.56,-103.58 253.56,-103.58"/>
</g>
</g>
</svg>
