<?xml version="1.0" encoding="UTF-8" standalone="no"?>
<!DOCTYPE svg PUBLIC "-//W3C//DTD SVG 1.1//EN"
 "http://www.w3.org/Graphics/SVG/1.1/DTD/svg11.dtd">
<!-- Generated by graphviz version 3.0.0 (20220226.1711)
 -->
<!-- Title: dependencies Pages: 1 -->
<svg width="386pt" height="174pt"
 viewBox="0.00 0.00 386.00 173.80" xmlns="http://www.w3.org/2000/svg" xmlns:xlink="http://www.w3.org/1999/xlink">
<g id="graph0" class="graph" transform="scale(1 1) rotate(0) translate(4 169.8)">
<title>dependencies</title>
<polygon fill="white" stroke="transparent" points="-4,4 -4,-169.8 382,-169.8 382,4 -4,4"/>
<text text-anchor="middle" x="189" y="-8.2" font-family="sans-serif" font-size="14.00">dependencies</text>
<g id="clust1" class="cluster">
<title>cluster_EmailSchedulingModule</title>
<polygon fill="none" stroke="black" stroke-dasharray="1,5" points="8,-32.8 8,-157.8 370,-157.8 370,-32.8 8,-32.8"/>
</g>
<g id="clust3" class="cluster">
<title>cluster_EmailSchedulingModule_imports</title>
<polygon fill="none" stroke="black" points="254,-40.8 254,-92.8 362,-92.8 362,-40.8 254,-40.8"/>
</g>
<g id="clust6" class="cluster">
<title>cluster_EmailSchedulingModule_providers</title>
<polygon fill="none" stroke="black" points="16,-40.8 16,-92.8 246,-92.8 246,-40.8 16,-40.8"/>
</g>
<!-- EmailModule -->
<g id="node1" class="node">
<title>EmailModule</title>
<polygon fill="#8dd3c7" stroke="black" points="354.49,-84.8 351.49,-88.8 330.49,-88.8 327.49,-84.8 261.51,-84.8 261.51,-48.8 354.49,-48.8 354.49,-84.8"/>
<text text-anchor="middle" x="308" y="-62.6" font-family="Times,serif" font-size="14.00">EmailModule</text>
</g>
<!-- EmailSchedulingModule -->
<g id="node2" class="node">
<title>EmailSchedulingModule</title>
<polygon fill="#8dd3c7" stroke="black" points="284.98,-149.8 281.98,-153.8 260.98,-153.8 257.98,-149.8 129.02,-149.8 129.02,-113.8 284.98,-113.8 284.98,-149.8"/>
<text text-anchor="middle" x="207" y="-127.6" font-family="Times,serif" font-size="14.00">EmailSchedulingModule</text>
</g>
<!-- EmailModule&#45;&gt;EmailSchedulingModule -->
<g id="edge1" class="edge">
<title>EmailModule&#45;&gt;EmailSchedulingModule</title>
<path fill="none" stroke="black" d="M273.25,-84.91C273.25,-84.91 273.25,-103.79 273.25,-103.79"/>
<polygon fill="black" stroke="black" points="269.75,-103.79 273.25,-113.79 276.75,-103.79 269.75,-103.79"/>
</g>
<!-- EmailSchedulingService -->
<g id="node3" class="node">
<title>EmailSchedulingService</title>
<ellipse fill="#fdb462" stroke="black" cx="131" cy="-66.8" rx="106.51" ry="18"/>
<text text-anchor="middle" x="131" y="-62.6" font-family="Times,serif" font-size="14.00">EmailSchedulingService</text>
</g>
<!-- EmailSchedulingService&#45;&gt;EmailSchedulingModule -->
<g id="edge2" class="edge">
<title>EmailSchedulingService&#45;&gt;EmailSchedulingModule</title>
<path fill="none" stroke="black" d="M183.26,-82.53C183.26,-82.53 183.26,-103.45 183.26,-103.45"/>
<polygon fill="black" stroke="black" points="179.76,-103.45 183.26,-113.45 186.76,-103.45 179.76,-103.45"/>
</g>
</g>
</svg>
