<?xml version="1.0" encoding="UTF-8" standalone="no"?>
<!DOCTYPE svg PUBLIC "-//W3C//DTD SVG 1.1//EN"
 "http://www.w3.org/Graphics/SVG/1.1/DTD/svg11.dtd">
<!-- Generated by graphviz version 3.0.0 (20220226.1711)
 -->
<!-- Title: dependencies Pages: 1 -->
<svg width="2649pt" height="174pt"
 viewBox="0.00 0.00 2649.00 173.80" xmlns="http://www.w3.org/2000/svg" xmlns:xlink="http://www.w3.org/1999/xlink">
<g id="graph0" class="graph" transform="scale(1 1) rotate(0) translate(4 169.8)">
<title>dependencies</title>
<polygon fill="white" stroke="transparent" points="-4,4 -4,-169.8 2645,-169.8 2645,4 -4,4"/>
<text text-anchor="middle" x="1320.5" y="-8.2" font-family="sans-serif" font-size="14.00">dependencies</text>
<g id="clust1" class="cluster">
<title>cluster_AppModule</title>
<polygon fill="none" stroke="black" stroke-dasharray="1,5" points="8,-32.8 8,-157.8 2633,-157.8 2633,-32.8 8,-32.8"/>
</g>
<g id="clust3" class="cluster">
<title>cluster_AppModule_imports</title>
<polygon fill="none" stroke="black" points="16,-40.8 16,-92.8 2625,-92.8 2625,-40.8 16,-40.8"/>
</g>
<!-- AuthenticationModule -->
<g id="node1" class="node">
<title>AuthenticationModule</title>
<polygon fill="#8dd3c7" stroke="black" points="2617.25,-84.8 2614.25,-88.8 2593.25,-88.8 2590.25,-84.8 2474.75,-84.8 2474.75,-48.8 2617.25,-48.8 2617.25,-84.8"/>
<text text-anchor="middle" x="2546" y="-62.6" font-family="Times,serif" font-size="14.00">AuthenticationModule</text>
</g>
<!-- AppModule -->
<g id="node20" class="node">
<title>AppModule</title>
<polygon fill="#8dd3c7" stroke="black" points="1268.66,-149.8 1265.66,-153.8 1244.66,-153.8 1241.66,-149.8 1185.34,-149.8 1185.34,-113.8 1268.66,-113.8 1268.66,-149.8"/>
<text text-anchor="middle" x="1227" y="-127.6" font-family="Times,serif" font-size="14.00">AppModule</text>
</g>
<!-- AuthenticationModule&#45;&gt;AppModule -->
<g id="edge1" class="edge">
<title>AuthenticationModule&#45;&gt;AppModule</title>
<path fill="none" stroke="black" d="M2546,-84.95C2546,-108.56 2546,-146.8 2546,-146.8 2546,-146.8 1279.02,-146.8 1279.02,-146.8"/>
<polygon fill="black" stroke="black" points="1279.02,-143.3 1269.02,-146.8 1279.02,-150.3 1279.02,-143.3"/>
</g>
<!-- AuthorizationModule -->
<g id="node2" class="node">
<title>AuthorizationModule</title>
<polygon fill="#8dd3c7" stroke="black" points="2456.81,-84.8 2453.81,-88.8 2432.81,-88.8 2429.81,-84.8 2319.19,-84.8 2319.19,-48.8 2456.81,-48.8 2456.81,-84.8"/>
<text text-anchor="middle" x="2388" y="-62.6" font-family="Times,serif" font-size="14.00">AuthorizationModule</text>
</g>
<!-- AuthorizationModule&#45;&gt;AppModule -->
<g id="edge2" class="edge">
<title>AuthorizationModule&#45;&gt;AppModule</title>
<path fill="none" stroke="black" d="M2388,-84.81C2388,-107.29 2388,-142.8 2388,-142.8 2388,-142.8 1278.66,-142.8 1278.66,-142.8"/>
<polygon fill="black" stroke="black" points="1278.66,-139.3 1268.66,-142.8 1278.66,-146.3 1278.66,-139.3"/>
</g>
<!-- CategoriesModule -->
<g id="node3" class="node">
<title>CategoriesModule</title>
<polygon fill="#8dd3c7" stroke="black" points="2301.92,-84.8 2298.92,-88.8 2277.92,-88.8 2274.92,-84.8 2182.08,-84.8 2182.08,-48.8 2301.92,-48.8 2301.92,-84.8"/>
<text text-anchor="middle" x="2242" y="-62.6" font-family="Times,serif" font-size="14.00">CategoriesModule</text>
</g>
<!-- CategoriesModule&#45;&gt;AppModule -->
<g id="edge3" class="edge">
<title>CategoriesModule&#45;&gt;AppModule</title>
<path fill="none" stroke="black" d="M2242,-84.84C2242,-106.46 2242,-139.8 2242,-139.8 2242,-139.8 1278.68,-139.8 1278.68,-139.8"/>
<polygon fill="black" stroke="black" points="1278.68,-136.3 1268.68,-139.8 1278.68,-143.3 1278.68,-136.3"/>
</g>
<!-- CommentsModule -->
<g id="node4" class="node">
<title>CommentsModule</title>
<polygon fill="#8dd3c7" stroke="black" points="2164.22,-84.8 2161.22,-88.8 2140.22,-88.8 2137.22,-84.8 2043.78,-84.8 2043.78,-48.8 2164.22,-48.8 2164.22,-84.8"/>
<text text-anchor="middle" x="2104" y="-62.6" font-family="Times,serif" font-size="14.00">CommentsModule</text>
</g>
<!-- CommentsModule&#45;&gt;AppModule -->
<g id="edge4" class="edge">
<title>CommentsModule&#45;&gt;AppModule</title>
<path fill="none" stroke="black" d="M2104,-84.93C2104,-105.37 2104,-135.8 2104,-135.8 2104,-135.8 1278.71,-135.8 1278.71,-135.8"/>
<polygon fill="black" stroke="black" points="1278.71,-132.3 1268.71,-135.8 1278.71,-139.3 1278.71,-132.3"/>
</g>
<!-- DatabaseFilesModule -->
<g id="node5" class="node">
<title>DatabaseFilesModule</title>
<polygon fill="#8dd3c7" stroke="black" points="2026.08,-84.8 2023.08,-88.8 2002.08,-88.8 1999.08,-84.8 1887.92,-84.8 1887.92,-48.8 2026.08,-48.8 2026.08,-84.8"/>
<text text-anchor="middle" x="1957" y="-62.6" font-family="Times,serif" font-size="14.00">DatabaseFilesModule</text>
</g>
<!-- DatabaseFilesModule&#45;&gt;AppModule -->
<g id="edge5" class="edge">
<title>DatabaseFilesModule&#45;&gt;AppModule</title>
<path fill="none" stroke="black" d="M1957,-84.91C1957,-104.14 1957,-131.8 1957,-131.8 1957,-131.8 1278.87,-131.8 1278.87,-131.8"/>
<polygon fill="black" stroke="black" points="1278.87,-128.3 1268.87,-131.8 1278.87,-135.3 1278.87,-128.3"/>
</g>
<!-- DatabaseModule -->
<g id="node6" class="node">
<title>DatabaseModule</title>
<polygon fill="#8dd3c7" stroke="black" points="1870.36,-84.8 1867.36,-88.8 1846.36,-88.8 1843.36,-84.8 1759.64,-84.8 1759.64,-48.8 1870.36,-48.8 1870.36,-84.8"/>
<text text-anchor="middle" x="1815" y="-62.6" font-family="Times,serif" font-size="14.00">DatabaseModule</text>
</g>
<!-- DatabaseModule&#45;&gt;AppModule -->
<g id="edge6" class="edge">
<title>DatabaseModule&#45;&gt;AppModule</title>
<path fill="none" stroke="black" d="M1815,-85.07C1815,-103.36 1815,-128.8 1815,-128.8 1815,-128.8 1278.82,-128.8 1278.82,-128.8"/>
<polygon fill="black" stroke="black" points="1278.82,-125.3 1268.82,-128.8 1278.82,-132.3 1278.82,-125.3"/>
</g>
<!-- EmailConfirmationModule -->
<g id="node7" class="node">
<title>EmailConfirmationModule</title>
<polygon fill="#8dd3c7" stroke="black" points="1741.42,-84.8 1738.42,-88.8 1717.42,-88.8 1714.42,-84.8 1572.58,-84.8 1572.58,-48.8 1741.42,-48.8 1741.42,-84.8"/>
<text text-anchor="middle" x="1657" y="-62.6" font-family="Times,serif" font-size="14.00">EmailConfirmationModule</text>
</g>
<!-- EmailConfirmationModule&#45;&gt;AppModule -->
<g id="edge7" class="edge">
<title>EmailConfirmationModule&#45;&gt;AppModule</title>
<path fill="none" stroke="black" d="M1657,-84.83C1657,-101.86 1657,-124.8 1657,-124.8 1657,-124.8 1279.01,-124.8 1279.01,-124.8"/>
<polygon fill="black" stroke="black" points="1279.01,-121.3 1269.01,-124.8 1279.01,-128.3 1279.01,-121.3"/>
</g>
<!-- EmailModule -->
<g id="node8" class="node">
<title>EmailModule</title>
<polygon fill="#8dd3c7" stroke="black" points="1554.49,-84.8 1551.49,-88.8 1530.49,-88.8 1527.49,-84.8 1461.51,-84.8 1461.51,-48.8 1554.49,-48.8 1554.49,-84.8"/>
<text text-anchor="middle" x="1508" y="-62.6" font-family="Times,serif" font-size="14.00">EmailModule</text>
</g>
<!-- EmailModule&#45;&gt;AppModule -->
<g id="edge8" class="edge">
<title>EmailModule&#45;&gt;AppModule</title>
<path fill="none" stroke="black" d="M1508,-84.81C1508,-100.85 1508,-121.8 1508,-121.8 1508,-121.8 1278.77,-121.8 1278.77,-121.8"/>
<polygon fill="black" stroke="black" points="1278.77,-118.3 1268.77,-121.8 1278.77,-125.3 1278.77,-118.3"/>
</g>
<!-- EmailSchedulingModule -->
<g id="node9" class="node">
<title>EmailSchedulingModule</title>
<polygon fill="#8dd3c7" stroke="black" points="1443.98,-84.8 1440.98,-88.8 1419.98,-88.8 1416.98,-84.8 1288.02,-84.8 1288.02,-48.8 1443.98,-48.8 1443.98,-84.8"/>
<text text-anchor="middle" x="1366" y="-62.6" font-family="Times,serif" font-size="14.00">EmailSchedulingModule</text>
</g>
<!-- EmailSchedulingModule&#45;&gt;AppModule -->
<g id="edge9" class="edge">
<title>EmailSchedulingModule&#45;&gt;AppModule</title>
<path fill="none" stroke="black" d="M1366,-84.92C1366,-99.58 1366,-117.8 1366,-117.8 1366,-117.8 1278.7,-117.8 1278.7,-117.8"/>
<polygon fill="black" stroke="black" points="1278.7,-114.3 1268.7,-117.8 1278.7,-121.3 1278.7,-114.3"/>
</g>
<!-- FilesModule -->
<g id="node10" class="node">
<title>FilesModule</title>
<polygon fill="#8dd3c7" stroke="black" points="1270.28,-84.8 1267.28,-88.8 1246.28,-88.8 1243.28,-84.8 1183.72,-84.8 1183.72,-48.8 1270.28,-48.8 1270.28,-84.8"/>
<text text-anchor="middle" x="1227" y="-62.6" font-family="Times,serif" font-size="14.00">FilesModule</text>
</g>
<!-- FilesModule&#45;&gt;AppModule -->
<g id="edge10" class="edge">
<title>FilesModule&#45;&gt;AppModule</title>
<path fill="none" stroke="black" d="M1227,-84.91C1227,-84.91 1227,-103.79 1227,-103.79"/>
<polygon fill="black" stroke="black" points="1223.5,-103.79 1227,-113.79 1230.5,-103.79 1223.5,-103.79"/>
</g>
<!-- GoogleAuthenticationModule -->
<g id="node11" class="node">
<title>GoogleAuthenticationModule</title>
<polygon fill="#8dd3c7" stroke="black" points="1165.97,-84.8 1162.97,-88.8 1141.97,-88.8 1138.97,-84.8 982.03,-84.8 982.03,-48.8 1165.97,-48.8 1165.97,-84.8"/>
<text text-anchor="middle" x="1074" y="-62.6" font-family="Times,serif" font-size="14.00">GoogleAuthenticationModule</text>
</g>
<!-- GoogleAuthenticationModule&#45;&gt;AppModule -->
<g id="edge11" class="edge">
<title>GoogleAuthenticationModule&#45;&gt;AppModule</title>
<path fill="none" stroke="black" d="M1074,-84.92C1074,-99.58 1074,-117.8 1074,-117.8 1074,-117.8 1175.19,-117.8 1175.19,-117.8"/>
<polygon fill="black" stroke="black" points="1175.19,-121.3 1185.19,-117.8 1175.19,-114.3 1175.19,-121.3"/>
</g>
<!-- HealthModule -->
<g id="node12" class="node">
<title>HealthModule</title>
<polygon fill="#8dd3c7" stroke="black" points="964.37,-84.8 961.37,-88.8 940.37,-88.8 937.37,-84.8 867.63,-84.8 867.63,-48.8 964.37,-48.8 964.37,-84.8"/>
<text text-anchor="middle" x="916" y="-62.6" font-family="Times,serif" font-size="14.00">HealthModule</text>
</g>
<!-- HealthModule&#45;&gt;AppModule -->
<g id="edge12" class="edge">
<title>HealthModule&#45;&gt;AppModule</title>
<path fill="none" stroke="black" d="M916,-84.81C916,-100.85 916,-121.8 916,-121.8 916,-121.8 1175.06,-121.8 1175.06,-121.8"/>
<polygon fill="black" stroke="black" points="1175.06,-125.3 1185.06,-121.8 1175.06,-118.3 1175.06,-125.3"/>
</g>
<!-- LocalFilesModule -->
<g id="node13" class="node">
<title>LocalFilesModule</title>
<polygon fill="#8dd3c7" stroke="black" points="849.15,-84.8 846.15,-88.8 825.15,-88.8 822.15,-84.8 730.85,-84.8 730.85,-48.8 849.15,-48.8 849.15,-84.8"/>
<text text-anchor="middle" x="790" y="-62.6" font-family="Times,serif" font-size="14.00">LocalFilesModule</text>
</g>
<!-- LocalFilesModule&#45;&gt;AppModule -->
<g id="edge13" class="edge">
<title>LocalFilesModule&#45;&gt;AppModule</title>
<path fill="none" stroke="black" d="M790,-84.83C790,-101.86 790,-124.8 790,-124.8 790,-124.8 1175.1,-124.8 1175.1,-124.8"/>
<polygon fill="black" stroke="black" points="1175.1,-128.3 1185.1,-124.8 1175.1,-121.3 1175.1,-128.3"/>
</g>
<!-- LoggerModule -->
<g id="node14" class="node">
<title>LoggerModule</title>
<polygon fill="#8dd3c7" stroke="black" points="712.98,-84.8 709.98,-88.8 688.98,-88.8 685.98,-84.8 613.02,-84.8 613.02,-48.8 712.98,-48.8 712.98,-84.8"/>
<text text-anchor="middle" x="663" y="-62.6" font-family="Times,serif" font-size="14.00">LoggerModule</text>
</g>
<!-- LoggerModule&#45;&gt;AppModule -->
<g id="edge14" class="edge">
<title>LoggerModule&#45;&gt;AppModule</title>
<path fill="none" stroke="black" d="M663,-85.07C663,-103.36 663,-128.8 663,-128.8 663,-128.8 1175.07,-128.8 1175.07,-128.8"/>
<polygon fill="black" stroke="black" points="1175.07,-132.3 1185.07,-128.8 1175.07,-125.3 1175.07,-132.3"/>
</g>
<!-- OptimizeModule -->
<g id="node15" class="node">
<title>OptimizeModule</title>
<polygon fill="#8dd3c7" stroke="black" points="594.65,-84.8 591.65,-88.8 570.65,-88.8 567.65,-84.8 483.35,-84.8 483.35,-48.8 594.65,-48.8 594.65,-84.8"/>
<text text-anchor="middle" x="539" y="-62.6" font-family="Times,serif" font-size="14.00">OptimizeModule</text>
</g>
<!-- OptimizeModule&#45;&gt;AppModule -->
<g id="edge15" class="edge">
<title>OptimizeModule&#45;&gt;AppModule</title>
<path fill="none" stroke="black" d="M539,-84.91C539,-104.14 539,-131.8 539,-131.8 539,-131.8 1175.26,-131.8 1175.26,-131.8"/>
<polygon fill="black" stroke="black" points="1175.26,-135.3 1185.26,-131.8 1175.26,-128.3 1175.26,-135.3"/>
</g>
<!-- PostsModule -->
<g id="node16" class="node">
<title>PostsModule</title>
<polygon fill="#8dd3c7" stroke="black" points="465.62,-84.8 462.62,-88.8 441.62,-88.8 438.62,-84.8 376.38,-84.8 376.38,-48.8 465.62,-48.8 465.62,-84.8"/>
<text text-anchor="middle" x="421" y="-62.6" font-family="Times,serif" font-size="14.00">PostsModule</text>
</g>
<!-- PostsModule&#45;&gt;AppModule -->
<g id="edge16" class="edge">
<title>PostsModule&#45;&gt;AppModule</title>
<path fill="none" stroke="black" d="M421,-84.93C421,-105.37 421,-135.8 421,-135.8 421,-135.8 1175.08,-135.8 1175.08,-135.8"/>
<polygon fill="black" stroke="black" points="1175.08,-139.3 1185.08,-135.8 1175.08,-132.3 1175.08,-139.3"/>
</g>
<!-- ProductsModule -->
<g id="node17" class="node">
<title>ProductsModule</title>
<polygon fill="#8dd3c7" stroke="black" points="358.05,-84.8 355.05,-88.8 334.05,-88.8 331.05,-84.8 249.95,-84.8 249.95,-48.8 358.05,-48.8 358.05,-84.8"/>
<text text-anchor="middle" x="304" y="-62.6" font-family="Times,serif" font-size="14.00">ProductsModule</text>
</g>
<!-- ProductsModule&#45;&gt;AppModule -->
<g id="edge17" class="edge">
<title>ProductsModule&#45;&gt;AppModule</title>
<path fill="none" stroke="black" d="M304,-84.84C304,-106.46 304,-139.8 304,-139.8 304,-139.8 1175.25,-139.8 1175.25,-139.8"/>
<polygon fill="black" stroke="black" points="1175.25,-143.3 1185.25,-139.8 1175.25,-136.3 1175.25,-143.3"/>
</g>
<!-- SearchModule -->
<g id="node18" class="node">
<title>SearchModule</title>
<polygon fill="#8dd3c7" stroke="black" points="231.64,-84.8 228.64,-88.8 207.64,-88.8 204.64,-84.8 134.36,-84.8 134.36,-48.8 231.64,-48.8 231.64,-84.8"/>
<text text-anchor="middle" x="183" y="-62.6" font-family="Times,serif" font-size="14.00">SearchModule</text>
</g>
<!-- SearchModule&#45;&gt;AppModule -->
<g id="edge18" class="edge">
<title>SearchModule&#45;&gt;AppModule</title>
<path fill="none" stroke="black" d="M183,-84.81C183,-107.29 183,-142.8 183,-142.8 183,-142.8 1175.11,-142.8 1175.11,-142.8"/>
<polygon fill="black" stroke="black" points="1175.11,-146.3 1185.11,-142.8 1175.11,-139.3 1175.11,-146.3"/>
</g>
<!-- UsersModule -->
<g id="node19" class="node">
<title>UsersModule</title>
<polygon fill="#8dd3c7" stroke="black" points="115.94,-84.8 112.94,-88.8 91.94,-88.8 88.94,-84.8 24.06,-84.8 24.06,-48.8 115.94,-48.8 115.94,-84.8"/>
<text text-anchor="middle" x="70" y="-62.6" font-family="Times,serif" font-size="14.00">UsersModule</text>
</g>
<!-- UsersModule&#45;&gt;AppModule -->
<g id="edge19" class="edge">
<title>UsersModule&#45;&gt;AppModule</title>
<path fill="none" stroke="black" d="M70,-84.95C70,-108.56 70,-146.8 70,-146.8 70,-146.8 1175.14,-146.8 1175.14,-146.8"/>
<polygon fill="black" stroke="black" points="1175.14,-150.3 1185.14,-146.8 1175.14,-143.3 1175.14,-150.3"/>
</g>
</g>
</svg>
