<?xml version="1.0" encoding="UTF-8" standalone="no"?>
<!DOCTYPE svg PUBLIC "-//W3C//DTD SVG 1.1//EN"
 "http://www.w3.org/Graphics/SVG/1.1/DTD/svg11.dtd">
<!-- Generated by graphviz version 3.0.0 (20220226.1711)
 -->
<!-- Title: dependencies Pages: 1 -->
<svg width="1577pt" height="174pt"
 viewBox="0.00 0.00 1577.00 173.80" xmlns="http://www.w3.org/2000/svg" xmlns:xlink="http://www.w3.org/1999/xlink">
<g id="graph0" class="graph" transform="scale(1 1) rotate(0) translate(4 169.8)">
<title>dependencies</title>
<polygon fill="white" stroke="transparent" points="-4,4 -4,-169.8 1573,-169.8 1573,4 -4,4"/>
<text text-anchor="middle" x="784.5" y="-8.2" font-family="sans-serif" font-size="14.00">dependencies</text>
<g id="clust1" class="cluster">
<title>cluster_AppModule</title>
<polygon fill="none" stroke="black" stroke-dasharray="1,5" points="8,-32.8 8,-157.8 1561,-157.8 1561,-32.8 8,-32.8"/>
</g>
<g id="clust3" class="cluster">
<title>cluster_AppModule_imports</title>
<polygon fill="none" stroke="black" points="16,-40.8 16,-92.8 1553,-92.8 1553,-40.8 16,-40.8"/>
</g>
<!-- AuthenticationModule -->
<g id="node1" class="node">
<title>AuthenticationModule</title>
<polygon fill="#8dd3c7" stroke="black" points="1545.25,-84.8 1542.25,-88.8 1521.25,-88.8 1518.25,-84.8 1402.75,-84.8 1402.75,-48.8 1545.25,-48.8 1545.25,-84.8"/>
<text text-anchor="middle" x="1474" y="-62.6" font-family="Times,serif" font-size="14.00">AuthenticationModule</text>
</g>
<!-- AppModule -->
<g id="node13" class="node">
<title>AppModule</title>
<polygon fill="#8dd3c7" stroke="black" points="767.66,-149.8 764.66,-153.8 743.66,-153.8 740.66,-149.8 684.34,-149.8 684.34,-113.8 767.66,-113.8 767.66,-149.8"/>
<text text-anchor="middle" x="726" y="-127.6" font-family="Times,serif" font-size="14.00">AppModule</text>
</g>
<!-- AuthenticationModule&#45;&gt;AppModule -->
<g id="edge1" class="edge">
<title>AuthenticationModule&#45;&gt;AppModule</title>
<path fill="none" stroke="black" d="M1474,-84.89C1474,-107.93 1474,-144.8 1474,-144.8 1474,-144.8 777.82,-144.8 777.82,-144.8"/>
<polygon fill="black" stroke="black" points="777.82,-141.3 767.82,-144.8 777.82,-148.3 777.82,-141.3"/>
</g>
<!-- CategoriesModule -->
<g id="node2" class="node">
<title>CategoriesModule</title>
<polygon fill="#8dd3c7" stroke="black" points="1384.92,-84.8 1381.92,-88.8 1360.92,-88.8 1357.92,-84.8 1265.08,-84.8 1265.08,-48.8 1384.92,-48.8 1384.92,-84.8"/>
<text text-anchor="middle" x="1325" y="-62.6" font-family="Times,serif" font-size="14.00">CategoriesModule</text>
</g>
<!-- CategoriesModule&#45;&gt;AppModule -->
<g id="edge2" class="edge">
<title>CategoriesModule&#45;&gt;AppModule</title>
<path fill="none" stroke="black" d="M1325,-85.08C1325,-106.12 1325,-137.8 1325,-137.8 1325,-137.8 778.12,-137.8 778.12,-137.8"/>
<polygon fill="black" stroke="black" points="778.12,-134.3 768.12,-137.8 778.12,-141.3 778.12,-134.3"/>
</g>
<!-- CommentsModule -->
<g id="node3" class="node">
<title>CommentsModule</title>
<polygon fill="#8dd3c7" stroke="black" points="1247.22,-84.8 1244.22,-88.8 1223.22,-88.8 1220.22,-84.8 1126.78,-84.8 1126.78,-48.8 1247.22,-48.8 1247.22,-84.8"/>
<text text-anchor="middle" x="1187" y="-62.6" font-family="Times,serif" font-size="14.00">CommentsModule</text>
</g>
<!-- CommentsModule&#45;&gt;AppModule -->
<g id="edge3" class="edge">
<title>CommentsModule&#45;&gt;AppModule</title>
<path fill="none" stroke="black" d="M1187,-84.91C1187,-104.14 1187,-131.8 1187,-131.8 1187,-131.8 777.72,-131.8 777.72,-131.8"/>
<polygon fill="black" stroke="black" points="777.72,-128.3 767.72,-131.8 777.72,-135.3 777.72,-128.3"/>
</g>
<!-- DatabaseFilesModule -->
<g id="node4" class="node">
<title>DatabaseFilesModule</title>
<polygon fill="#8dd3c7" stroke="black" points="1109.08,-84.8 1106.08,-88.8 1085.08,-88.8 1082.08,-84.8 970.92,-84.8 970.92,-48.8 1109.08,-48.8 1109.08,-84.8"/>
<text text-anchor="middle" x="1040" y="-62.6" font-family="Times,serif" font-size="14.00">DatabaseFilesModule</text>
</g>
<!-- DatabaseFilesModule&#45;&gt;AppModule -->
<g id="edge4" class="edge">
<title>DatabaseFilesModule&#45;&gt;AppModule</title>
<path fill="none" stroke="black" d="M1040,-84.82C1040,-102.17 1040,-125.8 1040,-125.8 1040,-125.8 777.7,-125.8 777.7,-125.8"/>
<polygon fill="black" stroke="black" points="777.7,-122.3 767.7,-125.8 777.7,-129.3 777.7,-122.3"/>
</g>
<!-- DatabaseModule -->
<g id="node5" class="node">
<title>DatabaseModule</title>
<polygon fill="#8dd3c7" stroke="black" points="953.36,-84.8 950.36,-88.8 929.36,-88.8 926.36,-84.8 842.64,-84.8 842.64,-48.8 953.36,-48.8 953.36,-84.8"/>
<text text-anchor="middle" x="898" y="-62.6" font-family="Times,serif" font-size="14.00">DatabaseModule</text>
</g>
<!-- DatabaseModule&#45;&gt;AppModule -->
<g id="edge5" class="edge">
<title>DatabaseModule&#45;&gt;AppModule</title>
<path fill="none" stroke="black" d="M898,-85.04C898,-100.37 898,-119.8 898,-119.8 898,-119.8 778.08,-119.8 778.08,-119.8"/>
<polygon fill="black" stroke="black" points="778.08,-116.3 768.08,-119.8 778.08,-123.3 778.08,-116.3"/>
</g>
<!-- FilesModule -->
<g id="node6" class="node">
<title>FilesModule</title>
<polygon fill="#8dd3c7" stroke="black" points="824.28,-84.8 821.28,-88.8 800.28,-88.8 797.28,-84.8 737.72,-84.8 737.72,-48.8 824.28,-48.8 824.28,-84.8"/>
<text text-anchor="middle" x="781" y="-62.6" font-family="Times,serif" font-size="14.00">FilesModule</text>
</g>
<!-- FilesModule&#45;&gt;AppModule -->
<g id="edge6" class="edge">
<title>FilesModule&#45;&gt;AppModule</title>
<path fill="none" stroke="black" d="M752.72,-84.91C752.72,-84.91 752.72,-103.79 752.72,-103.79"/>
<polygon fill="black" stroke="black" points="749.22,-103.79 752.72,-113.79 756.22,-103.79 749.22,-103.79"/>
</g>
<!-- HealthModule -->
<g id="node7" class="node">
<title>HealthModule</title>
<polygon fill="#8dd3c7" stroke="black" points="719.37,-84.8 716.37,-88.8 695.37,-88.8 692.37,-84.8 622.63,-84.8 622.63,-48.8 719.37,-48.8 719.37,-84.8"/>
<text text-anchor="middle" x="671" y="-62.6" font-family="Times,serif" font-size="14.00">HealthModule</text>
</g>
<!-- HealthModule&#45;&gt;AppModule -->
<g id="edge7" class="edge">
<title>HealthModule&#45;&gt;AppModule</title>
<path fill="none" stroke="black" d="M701.8,-84.91C701.8,-84.91 701.8,-103.79 701.8,-103.79"/>
<polygon fill="black" stroke="black" points="698.3,-103.79 701.8,-113.79 705.3,-103.79 698.3,-103.79"/>
</g>
<!-- LocalFilesModule -->
<g id="node8" class="node">
<title>LocalFilesModule</title>
<polygon fill="#8dd3c7" stroke="black" points="604.15,-84.8 601.15,-88.8 580.15,-88.8 577.15,-84.8 485.85,-84.8 485.85,-48.8 604.15,-48.8 604.15,-84.8"/>
<text text-anchor="middle" x="545" y="-62.6" font-family="Times,serif" font-size="14.00">LocalFilesModule</text>
</g>
<!-- LocalFilesModule&#45;&gt;AppModule -->
<g id="edge8" class="edge">
<title>LocalFilesModule&#45;&gt;AppModule</title>
<path fill="none" stroke="black" d="M545,-85.04C545,-100.37 545,-119.8 545,-119.8 545,-119.8 674.02,-119.8 674.02,-119.8"/>
<polygon fill="black" stroke="black" points="674.02,-123.3 684.02,-119.8 674.02,-116.3 674.02,-123.3"/>
</g>
<!-- LoggerModule -->
<g id="node9" class="node">
<title>LoggerModule</title>
<polygon fill="#8dd3c7" stroke="black" points="467.98,-84.8 464.98,-88.8 443.98,-88.8 440.98,-84.8 368.02,-84.8 368.02,-48.8 467.98,-48.8 467.98,-84.8"/>
<text text-anchor="middle" x="418" y="-62.6" font-family="Times,serif" font-size="14.00">LoggerModule</text>
</g>
<!-- LoggerModule&#45;&gt;AppModule -->
<g id="edge9" class="edge">
<title>LoggerModule&#45;&gt;AppModule</title>
<path fill="none" stroke="black" d="M418,-84.82C418,-102.17 418,-125.8 418,-125.8 418,-125.8 674.14,-125.8 674.14,-125.8"/>
<polygon fill="black" stroke="black" points="674.14,-129.3 684.14,-125.8 674.14,-122.3 674.14,-129.3"/>
</g>
<!-- PostsModule -->
<g id="node10" class="node">
<title>PostsModule</title>
<polygon fill="#8dd3c7" stroke="black" points="349.62,-84.8 346.62,-88.8 325.62,-88.8 322.62,-84.8 260.38,-84.8 260.38,-48.8 349.62,-48.8 349.62,-84.8"/>
<text text-anchor="middle" x="305" y="-62.6" font-family="Times,serif" font-size="14.00">PostsModule</text>
</g>
<!-- PostsModule&#45;&gt;AppModule -->
<g id="edge10" class="edge">
<title>PostsModule&#45;&gt;AppModule</title>
<path fill="none" stroke="black" d="M305,-84.91C305,-104.14 305,-131.8 305,-131.8 305,-131.8 674.09,-131.8 674.09,-131.8"/>
<polygon fill="black" stroke="black" points="674.09,-135.3 684.09,-131.8 674.09,-128.3 674.09,-135.3"/>
</g>
<!-- ProductsModule -->
<g id="node11" class="node">
<title>ProductsModule</title>
<polygon fill="#8dd3c7" stroke="black" points="242.05,-84.8 239.05,-88.8 218.05,-88.8 215.05,-84.8 133.95,-84.8 133.95,-48.8 242.05,-48.8 242.05,-84.8"/>
<text text-anchor="middle" x="188" y="-62.6" font-family="Times,serif" font-size="14.00">ProductsModule</text>
</g>
<!-- ProductsModule&#45;&gt;AppModule -->
<g id="edge11" class="edge">
<title>ProductsModule&#45;&gt;AppModule</title>
<path fill="none" stroke="black" d="M188,-85.08C188,-106.12 188,-137.8 188,-137.8 188,-137.8 674.23,-137.8 674.23,-137.8"/>
<polygon fill="black" stroke="black" points="674.23,-141.3 684.23,-137.8 674.23,-134.3 674.23,-141.3"/>
</g>
<!-- UsersModule -->
<g id="node12" class="node">
<title>UsersModule</title>
<polygon fill="#8dd3c7" stroke="black" points="115.94,-84.8 112.94,-88.8 91.94,-88.8 88.94,-84.8 24.06,-84.8 24.06,-48.8 115.94,-48.8 115.94,-84.8"/>
<text text-anchor="middle" x="70" y="-62.6" font-family="Times,serif" font-size="14.00">UsersModule</text>
</g>
<!-- UsersModule&#45;&gt;AppModule -->
<g id="edge12" class="edge">
<title>UsersModule&#45;&gt;AppModule</title>
<path fill="none" stroke="black" d="M70,-84.89C70,-107.93 70,-144.8 70,-144.8 70,-144.8 674.22,-144.8 674.22,-144.8"/>
<polygon fill="black" stroke="black" points="674.22,-148.3 684.22,-144.8 674.22,-141.3 674.22,-148.3"/>
</g>
</g>
</svg>
