<?xml version="1.0" encoding="UTF-8" standalone="no"?>
<!DOCTYPE svg PUBLIC "-//W3C//DTD SVG 1.1//EN"
 "http://www.w3.org/Graphics/SVG/1.1/DTD/svg11.dtd">
<!-- Generated by graphviz version 3.0.0 (20220226.1711)
 -->
<!-- Title: dependencies Pages: 1 -->
<svg width="2404pt" height="174pt"
 viewBox="0.00 0.00 2404.00 173.80" xmlns="http://www.w3.org/2000/svg" xmlns:xlink="http://www.w3.org/1999/xlink">
<g id="graph0" class="graph" transform="scale(1 1) rotate(0) translate(4 169.8)">
<title>dependencies</title>
<polygon fill="white" stroke="transparent" points="-4,4 -4,-169.8 2400,-169.8 2400,4 -4,4"/>
<text text-anchor="middle" x="1198" y="-8.2" font-family="sans-serif" font-size="14.00">dependencies</text>
<g id="clust1" class="cluster">
<title>cluster_AppModule</title>
<polygon fill="none" stroke="black" stroke-dasharray="1,5" points="8,-32.8 8,-157.8 2388,-157.8 2388,-32.8 8,-32.8"/>
</g>
<g id="clust3" class="cluster">
<title>cluster_AppModule_imports</title>
<polygon fill="none" stroke="black" points="16,-40.8 16,-92.8 2380,-92.8 2380,-40.8 16,-40.8"/>
</g>
<!-- AuthenticationModule -->
<g id="node1" class="node">
<title>AuthenticationModule</title>
<polygon fill="#8dd3c7" stroke="black" points="2372.25,-84.8 2369.25,-88.8 2348.25,-88.8 2345.25,-84.8 2229.75,-84.8 2229.75,-48.8 2372.25,-48.8 2372.25,-84.8"/>
<text text-anchor="middle" x="2301" y="-62.6" font-family="Times,serif" font-size="14.00">AuthenticationModule</text>
</g>
<!-- AppModule -->
<g id="node18" class="node">
<title>AppModule</title>
<polygon fill="#8dd3c7" stroke="black" points="1162.66,-149.8 1159.66,-153.8 1138.66,-153.8 1135.66,-149.8 1079.34,-149.8 1079.34,-113.8 1162.66,-113.8 1162.66,-149.8"/>
<text text-anchor="middle" x="1121" y="-127.6" font-family="Times,serif" font-size="14.00">AppModule</text>
</g>
<!-- AuthenticationModule&#45;&gt;AppModule -->
<g id="edge1" class="edge">
<title>AuthenticationModule&#45;&gt;AppModule</title>
<path fill="none" stroke="black" d="M2301,-85.12C2301,-108.46 2301,-145.8 2301,-145.8 2301,-145.8 1173,-145.8 1173,-145.8"/>
<polygon fill="black" stroke="black" points="1173,-142.3 1163,-145.8 1173,-149.3 1173,-142.3"/>
</g>
<!-- AuthorizationModule -->
<g id="node2" class="node">
<title>AuthorizationModule</title>
<polygon fill="#8dd3c7" stroke="black" points="2211.81,-84.8 2208.81,-88.8 2187.81,-88.8 2184.81,-84.8 2074.19,-84.8 2074.19,-48.8 2211.81,-48.8 2211.81,-84.8"/>
<text text-anchor="middle" x="2143" y="-62.6" font-family="Times,serif" font-size="14.00">AuthorizationModule</text>
</g>
<!-- AuthorizationModule&#45;&gt;AppModule -->
<g id="edge2" class="edge">
<title>AuthorizationModule&#45;&gt;AppModule</title>
<path fill="none" stroke="black" d="M2143,-84.96C2143,-107.15 2143,-141.8 2143,-141.8 2143,-141.8 1172.97,-141.8 1172.97,-141.8"/>
<polygon fill="black" stroke="black" points="1172.97,-138.3 1162.97,-141.8 1172.97,-145.3 1172.97,-138.3"/>
</g>
<!-- CategoriesModule -->
<g id="node3" class="node">
<title>CategoriesModule</title>
<polygon fill="#8dd3c7" stroke="black" points="2056.92,-84.8 2053.92,-88.8 2032.92,-88.8 2029.92,-84.8 1937.08,-84.8 1937.08,-48.8 2056.92,-48.8 2056.92,-84.8"/>
<text text-anchor="middle" x="1997" y="-62.6" font-family="Times,serif" font-size="14.00">CategoriesModule</text>
</g>
<!-- CategoriesModule&#45;&gt;AppModule -->
<g id="edge3" class="edge">
<title>CategoriesModule&#45;&gt;AppModule</title>
<path fill="none" stroke="black" d="M1997,-85.08C1997,-106.12 1997,-137.8 1997,-137.8 1997,-137.8 1172.96,-137.8 1172.96,-137.8"/>
<polygon fill="black" stroke="black" points="1172.96,-134.3 1162.96,-137.8 1172.96,-141.3 1172.96,-134.3"/>
</g>
<!-- CommentsModule -->
<g id="node4" class="node">
<title>CommentsModule</title>
<polygon fill="#8dd3c7" stroke="black" points="1919.22,-84.8 1916.22,-88.8 1895.22,-88.8 1892.22,-84.8 1798.78,-84.8 1798.78,-48.8 1919.22,-48.8 1919.22,-84.8"/>
<text text-anchor="middle" x="1859" y="-62.6" font-family="Times,serif" font-size="14.00">CommentsModule</text>
</g>
<!-- CommentsModule&#45;&gt;AppModule -->
<g id="edge4" class="edge">
<title>CommentsModule&#45;&gt;AppModule</title>
<path fill="none" stroke="black" d="M1859,-85.11C1859,-104.95 1859,-133.8 1859,-133.8 1859,-133.8 1172.79,-133.8 1172.79,-133.8"/>
<polygon fill="black" stroke="black" points="1172.79,-130.3 1162.79,-133.8 1172.79,-137.3 1172.79,-130.3"/>
</g>
<!-- DatabaseFilesModule -->
<g id="node5" class="node">
<title>DatabaseFilesModule</title>
<polygon fill="#8dd3c7" stroke="black" points="1781.08,-84.8 1778.08,-88.8 1757.08,-88.8 1754.08,-84.8 1642.92,-84.8 1642.92,-48.8 1781.08,-48.8 1781.08,-84.8"/>
<text text-anchor="middle" x="1712" y="-62.6" font-family="Times,serif" font-size="14.00">DatabaseFilesModule</text>
</g>
<!-- DatabaseFilesModule&#45;&gt;AppModule -->
<g id="edge5" class="edge">
<title>DatabaseFilesModule&#45;&gt;AppModule</title>
<path fill="none" stroke="black" d="M1712,-85.02C1712,-103.63 1712,-129.8 1712,-129.8 1712,-129.8 1173.03,-129.8 1173.03,-129.8"/>
<polygon fill="black" stroke="black" points="1173.03,-126.3 1163.03,-129.8 1173.03,-133.3 1173.03,-126.3"/>
</g>
<!-- DatabaseModule -->
<g id="node6" class="node">
<title>DatabaseModule</title>
<polygon fill="#8dd3c7" stroke="black" points="1625.36,-84.8 1622.36,-88.8 1601.36,-88.8 1598.36,-84.8 1514.64,-84.8 1514.64,-48.8 1625.36,-48.8 1625.36,-84.8"/>
<text text-anchor="middle" x="1570" y="-62.6" font-family="Times,serif" font-size="14.00">DatabaseModule</text>
</g>
<!-- DatabaseModule&#45;&gt;AppModule -->
<g id="edge6" class="edge">
<title>DatabaseModule&#45;&gt;AppModule</title>
<path fill="none" stroke="black" d="M1570,-84.82C1570,-102.17 1570,-125.8 1570,-125.8 1570,-125.8 1172.84,-125.8 1172.84,-125.8"/>
<polygon fill="black" stroke="black" points="1172.84,-122.3 1162.84,-125.8 1172.84,-129.3 1172.84,-122.3"/>
</g>
<!-- EmailConfirmationModule -->
<g id="node7" class="node">
<title>EmailConfirmationModule</title>
<polygon fill="#8dd3c7" stroke="black" points="1496.42,-84.8 1493.42,-88.8 1472.42,-88.8 1469.42,-84.8 1327.58,-84.8 1327.58,-48.8 1496.42,-48.8 1496.42,-84.8"/>
<text text-anchor="middle" x="1412" y="-62.6" font-family="Times,serif" font-size="14.00">EmailConfirmationModule</text>
</g>
<!-- EmailConfirmationModule&#45;&gt;AppModule -->
<g id="edge7" class="edge">
<title>EmailConfirmationModule&#45;&gt;AppModule</title>
<path fill="none" stroke="black" d="M1412,-84.81C1412,-100.85 1412,-121.8 1412,-121.8 1412,-121.8 1172.69,-121.8 1172.69,-121.8"/>
<polygon fill="black" stroke="black" points="1172.69,-118.3 1162.69,-121.8 1172.69,-125.3 1172.69,-118.3"/>
</g>
<!-- EmailModule -->
<g id="node8" class="node">
<title>EmailModule</title>
<polygon fill="#8dd3c7" stroke="black" points="1309.49,-84.8 1306.49,-88.8 1285.49,-88.8 1282.49,-84.8 1216.51,-84.8 1216.51,-48.8 1309.49,-48.8 1309.49,-84.8"/>
<text text-anchor="middle" x="1263" y="-62.6" font-family="Times,serif" font-size="14.00">EmailModule</text>
</g>
<!-- EmailModule&#45;&gt;AppModule -->
<g id="edge8" class="edge">
<title>EmailModule&#45;&gt;AppModule</title>
<path fill="none" stroke="black" d="M1263,-84.92C1263,-99.58 1263,-117.8 1263,-117.8 1263,-117.8 1172.84,-117.8 1172.84,-117.8"/>
<polygon fill="black" stroke="black" points="1172.84,-114.3 1162.84,-117.8 1172.84,-121.3 1172.84,-114.3"/>
</g>
<!-- EmailSchedulingModule -->
<g id="node9" class="node">
<title>EmailSchedulingModule</title>
<polygon fill="#8dd3c7" stroke="black" points="1198.98,-84.8 1195.98,-88.8 1174.98,-88.8 1171.98,-84.8 1043.02,-84.8 1043.02,-48.8 1198.98,-48.8 1198.98,-84.8"/>
<text text-anchor="middle" x="1121" y="-62.6" font-family="Times,serif" font-size="14.00">EmailSchedulingModule</text>
</g>
<!-- EmailSchedulingModule&#45;&gt;AppModule -->
<g id="edge9" class="edge">
<title>EmailSchedulingModule&#45;&gt;AppModule</title>
<path fill="none" stroke="black" d="M1121,-84.91C1121,-84.91 1121,-103.79 1121,-103.79"/>
<polygon fill="black" stroke="black" points="1117.5,-103.79 1121,-113.79 1124.5,-103.79 1117.5,-103.79"/>
</g>
<!-- FilesModule -->
<g id="node10" class="node">
<title>FilesModule</title>
<polygon fill="#8dd3c7" stroke="black" points="1025.28,-84.8 1022.28,-88.8 1001.28,-88.8 998.28,-84.8 938.72,-84.8 938.72,-48.8 1025.28,-48.8 1025.28,-84.8"/>
<text text-anchor="middle" x="982" y="-62.6" font-family="Times,serif" font-size="14.00">FilesModule</text>
</g>
<!-- FilesModule&#45;&gt;AppModule -->
<g id="edge10" class="edge">
<title>FilesModule&#45;&gt;AppModule</title>
<path fill="none" stroke="black" d="M982,-84.92C982,-99.58 982,-117.8 982,-117.8 982,-117.8 1069.3,-117.8 1069.3,-117.8"/>
<polygon fill="black" stroke="black" points="1069.3,-121.3 1079.3,-117.8 1069.3,-114.3 1069.3,-121.3"/>
</g>
<!-- GoogleAuthenticationModule -->
<g id="node11" class="node">
<title>GoogleAuthenticationModule</title>
<polygon fill="#8dd3c7" stroke="black" points="920.97,-84.8 917.97,-88.8 896.97,-88.8 893.97,-84.8 737.03,-84.8 737.03,-48.8 920.97,-48.8 920.97,-84.8"/>
<text text-anchor="middle" x="829" y="-62.6" font-family="Times,serif" font-size="14.00">GoogleAuthenticationModule</text>
</g>
<!-- GoogleAuthenticationModule&#45;&gt;AppModule -->
<g id="edge11" class="edge">
<title>GoogleAuthenticationModule&#45;&gt;AppModule</title>
<path fill="none" stroke="black" d="M829,-84.81C829,-100.85 829,-121.8 829,-121.8 829,-121.8 1069.16,-121.8 1069.16,-121.8"/>
<polygon fill="black" stroke="black" points="1069.16,-125.3 1079.16,-121.8 1069.16,-118.3 1069.16,-125.3"/>
</g>
<!-- HealthModule -->
<g id="node12" class="node">
<title>HealthModule</title>
<polygon fill="#8dd3c7" stroke="black" points="719.37,-84.8 716.37,-88.8 695.37,-88.8 692.37,-84.8 622.63,-84.8 622.63,-48.8 719.37,-48.8 719.37,-84.8"/>
<text text-anchor="middle" x="671" y="-62.6" font-family="Times,serif" font-size="14.00">HealthModule</text>
</g>
<!-- HealthModule&#45;&gt;AppModule -->
<g id="edge12" class="edge">
<title>HealthModule&#45;&gt;AppModule</title>
<path fill="none" stroke="black" d="M671,-84.82C671,-102.17 671,-125.8 671,-125.8 671,-125.8 1069.07,-125.8 1069.07,-125.8"/>
<polygon fill="black" stroke="black" points="1069.07,-129.3 1079.07,-125.8 1069.07,-122.3 1069.07,-129.3"/>
</g>
<!-- LocalFilesModule -->
<g id="node13" class="node">
<title>LocalFilesModule</title>
<polygon fill="#8dd3c7" stroke="black" points="604.15,-84.8 601.15,-88.8 580.15,-88.8 577.15,-84.8 485.85,-84.8 485.85,-48.8 604.15,-48.8 604.15,-84.8"/>
<text text-anchor="middle" x="545" y="-62.6" font-family="Times,serif" font-size="14.00">LocalFilesModule</text>
</g>
<!-- LocalFilesModule&#45;&gt;AppModule -->
<g id="edge13" class="edge">
<title>LocalFilesModule&#45;&gt;AppModule</title>
<path fill="none" stroke="black" d="M545,-85.02C545,-103.63 545,-129.8 545,-129.8 545,-129.8 1069.11,-129.8 1069.11,-129.8"/>
<polygon fill="black" stroke="black" points="1069.11,-133.3 1079.11,-129.8 1069.11,-126.3 1069.11,-133.3"/>
</g>
<!-- LoggerModule -->
<g id="node14" class="node">
<title>LoggerModule</title>
<polygon fill="#8dd3c7" stroke="black" points="467.98,-84.8 464.98,-88.8 443.98,-88.8 440.98,-84.8 368.02,-84.8 368.02,-48.8 467.98,-48.8 467.98,-84.8"/>
<text text-anchor="middle" x="418" y="-62.6" font-family="Times,serif" font-size="14.00">LoggerModule</text>
</g>
<!-- LoggerModule&#45;&gt;AppModule -->
<g id="edge14" class="edge">
<title>LoggerModule&#45;&gt;AppModule</title>
<path fill="none" stroke="black" d="M418,-85.11C418,-104.95 418,-133.8 418,-133.8 418,-133.8 1069.13,-133.8 1069.13,-133.8"/>
<polygon fill="black" stroke="black" points="1069.13,-137.3 1079.13,-133.8 1069.13,-130.3 1069.13,-137.3"/>
</g>
<!-- PostsModule -->
<g id="node15" class="node">
<title>PostsModule</title>
<polygon fill="#8dd3c7" stroke="black" points="349.62,-84.8 346.62,-88.8 325.62,-88.8 322.62,-84.8 260.38,-84.8 260.38,-48.8 349.62,-48.8 349.62,-84.8"/>
<text text-anchor="middle" x="305" y="-62.6" font-family="Times,serif" font-size="14.00">PostsModule</text>
</g>
<!-- PostsModule&#45;&gt;AppModule -->
<g id="edge15" class="edge">
<title>PostsModule&#45;&gt;AppModule</title>
<path fill="none" stroke="black" d="M305,-85.08C305,-106.12 305,-137.8 305,-137.8 305,-137.8 1069.13,-137.8 1069.13,-137.8"/>
<polygon fill="black" stroke="black" points="1069.13,-141.3 1079.13,-137.8 1069.13,-134.3 1069.13,-141.3"/>
</g>
<!-- ProductsModule -->
<g id="node16" class="node">
<title>ProductsModule</title>
<polygon fill="#8dd3c7" stroke="black" points="242.05,-84.8 239.05,-88.8 218.05,-88.8 215.05,-84.8 133.95,-84.8 133.95,-48.8 242.05,-48.8 242.05,-84.8"/>
<text text-anchor="middle" x="188" y="-62.6" font-family="Times,serif" font-size="14.00">ProductsModule</text>
</g>
<!-- ProductsModule&#45;&gt;AppModule -->
<g id="edge16" class="edge">
<title>ProductsModule&#45;&gt;AppModule</title>
<path fill="none" stroke="black" d="M188,-84.96C188,-107.15 188,-141.8 188,-141.8 188,-141.8 1069.1,-141.8 1069.1,-141.8"/>
<polygon fill="black" stroke="black" points="1069.1,-145.3 1079.1,-141.8 1069.1,-138.3 1069.1,-145.3"/>
</g>
<!-- UsersModule -->
<g id="node17" class="node">
<title>UsersModule</title>
<polygon fill="#8dd3c7" stroke="black" points="115.94,-84.8 112.94,-88.8 91.94,-88.8 88.94,-84.8 24.06,-84.8 24.06,-48.8 115.94,-48.8 115.94,-84.8"/>
<text text-anchor="middle" x="70" y="-62.6" font-family="Times,serif" font-size="14.00">UsersModule</text>
</g>
<!-- UsersModule&#45;&gt;AppModule -->
<g id="edge17" class="edge">
<title>UsersModule&#45;&gt;AppModule</title>
<path fill="none" stroke="black" d="M70,-85.12C70,-108.46 70,-145.8 70,-145.8 70,-145.8 1069.15,-145.8 1069.15,-145.8"/>
<polygon fill="black" stroke="black" points="1069.15,-149.3 1079.15,-145.8 1069.15,-142.3 1069.15,-149.3"/>
</g>
</g>
</svg>
