<?xml version="1.0" encoding="UTF-8" standalone="no"?>
<!DOCTYPE svg PUBLIC "-//W3C//DTD SVG 1.1//EN"
 "http://www.w3.org/Graphics/SVG/1.1/DTD/svg11.dtd">
<!-- Generated by graphviz version 3.0.0 (20220226.1711)
 -->
<!-- Title: dependencies Pages: 1 -->
<svg width="4125pt" height="334pt"
 viewBox="0.00 0.00 4125.00 333.80" xmlns="http://www.w3.org/2000/svg" xmlns:xlink="http://www.w3.org/1999/xlink">
<g id="graph0" class="graph" transform="scale(1 1) rotate(0) translate(4 329.8)">
<title>dependencies</title>
<polygon fill="white" stroke="transparent" points="-4,4 -4,-329.8 4121,-329.8 4121,4 -4,4"/>
<text text-anchor="middle" x="2058.5" y="-8.2" font-family="sans-serif" font-size="14.00">dependencies</text>
<g id="clust1" class="cluster">
<title>cluster_AppModule</title>
<polygon fill="none" stroke="black" stroke-dasharray="1,5" points="290,-108.8 290,-317.8 1664,-317.8 1664,-108.8 290,-108.8"/>
</g>
<g id="clust3" class="cluster">
<title>cluster_AppModule_imports</title>
<polygon fill="none" stroke="black" points="390,-116.8 390,-309.8 1656,-309.8 1656,-116.8 390,-116.8"/>
</g>
<g id="clust7" class="cluster">
<title>cluster_AuthenticationModule</title>
<polygon fill="none" stroke="black" stroke-dasharray="1,5" points="2680,-173.8 2680,-241.8 4109,-241.8 4109,-173.8 2680,-173.8"/>
</g>
<g id="clust10" class="cluster">
<title>cluster_AuthenticationModule_exports</title>
<polygon fill="none" stroke="black" points="3941,-181.8 3941,-233.8 4101,-233.8 4101,-181.8 3941,-181.8"/>
</g>
<g id="clust12" class="cluster">
<title>cluster_AuthenticationModule_providers</title>
<polygon fill="none" stroke="black" points="2688,-181.8 2688,-233.8 3933,-233.8 3933,-181.8 2688,-181.8"/>
</g>
<g id="clust13" class="cluster">
<title>cluster_CategoriesModule</title>
<polygon fill="none" stroke="black" stroke-dasharray="1,5" points="593,-32.8 593,-100.8 787,-100.8 787,-32.8 593,-32.8"/>
</g>
<g id="clust18" class="cluster">
<title>cluster_CategoriesModule_providers</title>
<polygon fill="none" stroke="black" points="601,-40.8 601,-92.8 779,-92.8 779,-40.8 601,-40.8"/>
</g>
<g id="clust19" class="cluster">
<title>cluster_CommentsModule</title>
<polygon fill="none" stroke="black" stroke-dasharray="1,5" points="795,-32.8 795,-100.8 991,-100.8 991,-32.8 795,-32.8"/>
</g>
<g id="clust24" class="cluster">
<title>cluster_CommentsModule_providers</title>
<polygon fill="none" stroke="black" points="803,-40.8 803,-92.8 983,-92.8 983,-40.8 803,-40.8"/>
</g>
<g id="clust25" class="cluster">
<title>cluster_DatabaseFilesModule</title>
<polygon fill="none" stroke="black" stroke-dasharray="1,5" points="1672,-173.8 1672,-241.8 2056,-241.8 2056,-173.8 1672,-173.8"/>
</g>
<g id="clust28" class="cluster">
<title>cluster_DatabaseFilesModule_exports</title>
<polygon fill="none" stroke="black" points="1892,-181.8 1892,-233.8 2048,-233.8 2048,-181.8 1892,-181.8"/>
</g>
<g id="clust30" class="cluster">
<title>cluster_DatabaseFilesModule_providers</title>
<polygon fill="none" stroke="black" points="1680,-181.8 1680,-233.8 1884,-233.8 1884,-181.8 1680,-181.8"/>
</g>
<g id="clust37" class="cluster">
<title>cluster_FilesModule</title>
<polygon fill="none" stroke="black" stroke-dasharray="1,5" points="2064,-173.8 2064,-241.8 2326,-241.8 2326,-173.8 2064,-173.8"/>
</g>
<g id="clust40" class="cluster">
<title>cluster_FilesModule_exports</title>
<polygon fill="none" stroke="black" points="2214,-181.8 2214,-233.8 2318,-233.8 2318,-181.8 2214,-181.8"/>
</g>
<g id="clust42" class="cluster">
<title>cluster_FilesModule_providers</title>
<polygon fill="none" stroke="black" points="2072,-181.8 2072,-233.8 2206,-233.8 2206,-181.8 2072,-181.8"/>
</g>
<g id="clust49" class="cluster">
<title>cluster_LocalFilesModule</title>
<polygon fill="none" stroke="black" stroke-dasharray="1,5" points="2334,-173.8 2334,-241.8 2672,-241.8 2672,-173.8 2334,-173.8"/>
</g>
<g id="clust52" class="cluster">
<title>cluster_LocalFilesModule_exports</title>
<polygon fill="none" stroke="black" points="2528,-181.8 2528,-233.8 2664,-233.8 2664,-181.8 2528,-181.8"/>
</g>
<g id="clust54" class="cluster">
<title>cluster_LocalFilesModule_providers</title>
<polygon fill="none" stroke="black" points="2342,-181.8 2342,-233.8 2520,-233.8 2520,-181.8 2342,-181.8"/>
</g>
<g id="clust55" class="cluster">
<title>cluster_LoggerModule</title>
<polygon fill="none" stroke="black" stroke-dasharray="1,5" points="151,-32.8 151,-100.8 585,-100.8 585,-32.8 151,-32.8"/>
</g>
<g id="clust58" class="cluster">
<title>cluster_LoggerModule_exports</title>
<polygon fill="none" stroke="black" points="457,-40.8 457,-92.8 577,-92.8 577,-40.8 457,-40.8"/>
</g>
<g id="clust60" class="cluster">
<title>cluster_LoggerModule_providers</title>
<polygon fill="none" stroke="black" points="159,-40.8 159,-92.8 449,-92.8 449,-40.8 159,-40.8"/>
</g>
<g id="clust61" class="cluster">
<title>cluster_PostsModule</title>
<polygon fill="none" stroke="black" stroke-dasharray="1,5" points="999,-32.8 999,-100.8 1151,-100.8 1151,-32.8 999,-32.8"/>
</g>
<g id="clust66" class="cluster">
<title>cluster_PostsModule_providers</title>
<polygon fill="none" stroke="black" points="1007,-40.8 1007,-92.8 1143,-92.8 1143,-40.8 1007,-40.8"/>
</g>
<g id="clust67" class="cluster">
<title>cluster_ProductsModule</title>
<polygon fill="none" stroke="black" stroke-dasharray="1,5" points="1159,-32.8 1159,-100.8 1339,-100.8 1339,-32.8 1159,-32.8"/>
</g>
<g id="clust72" class="cluster">
<title>cluster_ProductsModule_providers</title>
<polygon fill="none" stroke="black" points="1167,-40.8 1167,-92.8 1331,-92.8 1331,-40.8 1167,-40.8"/>
</g>
<g id="clust73" class="cluster">
<title>cluster_UsersModule</title>
<polygon fill="none" stroke="black" stroke-dasharray="1,5" points="8,-249.8 8,-317.8 282,-317.8 282,-249.8 8,-249.8"/>
</g>
<g id="clust76" class="cluster">
<title>cluster_UsersModule_exports</title>
<polygon fill="none" stroke="black" points="164,-257.8 164,-309.8 274,-309.8 274,-257.8 164,-257.8"/>
</g>
<g id="clust78" class="cluster">
<title>cluster_UsersModule_providers</title>
<polygon fill="none" stroke="black" points="16,-257.8 16,-309.8 156,-309.8 156,-257.8 16,-257.8"/>
</g>
<!-- AuthenticationModule -->
<g id="node1" class="node">
<title>AuthenticationModule</title>
<polygon fill="#8dd3c7" stroke="black" points="1648.25,-301.8 1645.25,-305.8 1624.25,-305.8 1621.25,-301.8 1505.75,-301.8 1505.75,-265.8 1648.25,-265.8 1648.25,-301.8"/>
<text text-anchor="middle" x="1577" y="-279.6" font-family="Times,serif" font-size="14.00">AuthenticationModule</text>
</g>
<!-- AppModule -->
<g id="node13" class="node">
<title>AppModule</title>
<polygon fill="#8dd3c7" stroke="black" points="381.66,-301.8 378.66,-305.8 357.66,-305.8 354.66,-301.8 298.34,-301.8 298.34,-265.8 381.66,-265.8 381.66,-301.8"/>
<text text-anchor="middle" x="340" y="-279.6" font-family="Times,serif" font-size="14.00">AppModule</text>
</g>
<!-- AuthenticationModule&#45;&gt;AppModule -->
<g id="edge1" class="edge">
<title>AuthenticationModule&#45;&gt;AppModule</title>
<path fill="none" stroke="black" d="M1505.6,-298.8C1505.6,-298.8 391.67,-298.8 391.67,-298.8"/>
<polygon fill="black" stroke="black" points="391.67,-295.3 381.67,-298.8 391.67,-302.3 391.67,-295.3"/>
</g>
<!-- AuthenticationService  -->
<g id="node14" class="node">
<title>AuthenticationService </title>
<polygon fill="#fb8072" stroke="black" points="4093.18,-225.8 3948.82,-225.8 3948.82,-189.8 4093.18,-189.8 4093.18,-225.8"/>
<text text-anchor="middle" x="4021" y="-203.6" font-family="Times,serif" font-size="14.00">AuthenticationService </text>
</g>
<!-- AuthenticationModule&#45;&gt;AuthenticationService  -->
<g id="edge14" class="edge">
<title>AuthenticationModule&#45;&gt;AuthenticationService </title>
<path fill="none" stroke="black" stroke-dasharray="5,2" d="M1648.49,-297.8C2051.44,-297.8 4021,-297.8 4021,-297.8 4021,-297.8 4021,-236.01 4021,-236.01"/>
<polygon fill="black" stroke="black" points="4024.5,-236.01 4021,-226.01 4017.5,-236.01 4024.5,-236.01"/>
</g>
<!-- CategoriesModule -->
<g id="node2" class="node">
<title>CategoriesModule</title>
<polygon fill="#8dd3c7" stroke="black" points="749.92,-160.8 746.92,-164.8 725.92,-164.8 722.92,-160.8 630.08,-160.8 630.08,-124.8 749.92,-124.8 749.92,-160.8"/>
<text text-anchor="middle" x="690" y="-138.6" font-family="Times,serif" font-size="14.00">CategoriesModule</text>
</g>
<!-- CategoriesModule&#45;&gt;AppModule -->
<g id="edge2" class="edge">
<title>CategoriesModule&#45;&gt;AppModule</title>
<path fill="none" stroke="black" d="M690,-161.01C690,-197.01 690,-273.8 690,-273.8 690,-273.8 391.87,-273.8 391.87,-273.8"/>
<polygon fill="black" stroke="black" points="391.87,-270.3 381.87,-273.8 391.87,-277.3 391.87,-270.3"/>
</g>
<!-- CommentsModule -->
<g id="node3" class="node">
<title>CommentsModule</title>
<polygon fill="#8dd3c7" stroke="black" points="888.22,-160.8 885.22,-164.8 864.22,-164.8 861.22,-160.8 767.78,-160.8 767.78,-124.8 888.22,-124.8 888.22,-160.8"/>
<text text-anchor="middle" x="828" y="-138.6" font-family="Times,serif" font-size="14.00">CommentsModule</text>
</g>
<!-- CommentsModule&#45;&gt;AppModule -->
<g id="edge3" class="edge">
<title>CommentsModule&#45;&gt;AppModule</title>
<path fill="none" stroke="black" d="M828,-160.87C828,-197.45 828,-276.8 828,-276.8 828,-276.8 392.03,-276.8 392.03,-276.8"/>
<polygon fill="black" stroke="black" points="392.03,-273.3 382.03,-276.8 392.03,-280.3 392.03,-273.3"/>
</g>
<!-- DatabaseFilesModule -->
<g id="node4" class="node">
<title>DatabaseFilesModule</title>
<polygon fill="#8dd3c7" stroke="black" points="1407.08,-160.8 1404.08,-164.8 1383.08,-164.8 1380.08,-160.8 1268.92,-160.8 1268.92,-124.8 1407.08,-124.8 1407.08,-160.8"/>
<text text-anchor="middle" x="1338" y="-138.6" font-family="Times,serif" font-size="14.00">DatabaseFilesModule</text>
</g>
<!-- UsersModule -->
<g id="node12" class="node">
<title>UsersModule</title>
<polygon fill="#8dd3c7" stroke="black" points="1383.94,-225.8 1380.94,-229.8 1359.94,-229.8 1356.94,-225.8 1292.06,-225.8 1292.06,-189.8 1383.94,-189.8 1383.94,-225.8"/>
<text text-anchor="middle" x="1338" y="-203.6" font-family="Times,serif" font-size="14.00">UsersModule</text>
</g>
<!-- DatabaseFilesModule&#45;&gt;UsersModule -->
<g id="edge34" class="edge">
<title>DatabaseFilesModule&#45;&gt;UsersModule</title>
<path fill="none" stroke="black" d="M1338,-160.91C1338,-160.91 1338,-179.79 1338,-179.79"/>
<polygon fill="black" stroke="black" points="1334.5,-179.79 1338,-189.79 1341.5,-179.79 1334.5,-179.79"/>
</g>
<!-- DatabaseFilesModule&#45;&gt;AppModule -->
<g id="edge4" class="edge">
<title>DatabaseFilesModule&#45;&gt;AppModule</title>
<path fill="none" stroke="black" d="M1280.62,-161.07C1280.62,-200.86 1280.62,-291.8 1280.62,-291.8 1280.62,-291.8 391.94,-291.8 391.94,-291.8"/>
<polygon fill="black" stroke="black" points="391.94,-288.3 381.94,-291.8 391.94,-295.3 391.94,-288.3"/>
</g>
<!-- DatabaseFilesService  -->
<g id="node23" class="node">
<title>DatabaseFilesService </title>
<polygon fill="#fb8072" stroke="black" points="2040.01,-225.8 1899.99,-225.8 1899.99,-189.8 2040.01,-189.8 2040.01,-225.8"/>
<text text-anchor="middle" x="1970" y="-203.6" font-family="Times,serif" font-size="14.00">DatabaseFilesService </text>
</g>
<!-- DatabaseFilesModule&#45;&gt;DatabaseFilesService  -->
<g id="edge23" class="edge">
<title>DatabaseFilesModule&#45;&gt;DatabaseFilesService </title>
<path fill="none" stroke="black" stroke-dasharray="5,2" d="M1391.49,-160.86C1391.49,-172.24 1391.49,-184.8 1391.49,-184.8 1391.49,-184.8 1970,-184.8 1970,-184.8 1970,-184.8 1970,-185.29 1970,-185.29"/>
<polygon fill="black" stroke="black" points="1966.5,-179.68 1970,-189.68 1973.5,-179.68 1966.5,-179.68"/>
</g>
<!-- DatabaseModule -->
<g id="node5" class="node">
<title>DatabaseModule</title>
<polygon fill="#8dd3c7" stroke="black" points="1251.36,-160.8 1248.36,-164.8 1227.36,-164.8 1224.36,-160.8 1140.64,-160.8 1140.64,-124.8 1251.36,-124.8 1251.36,-160.8"/>
<text text-anchor="middle" x="1196" y="-138.6" font-family="Times,serif" font-size="14.00">DatabaseModule</text>
</g>
<!-- DatabaseModule&#45;&gt;AppModule -->
<g id="edge5" class="edge">
<title>DatabaseModule&#45;&gt;AppModule</title>
<path fill="none" stroke="black" d="M1196,-160.87C1196,-199.74 1196,-287.8 1196,-287.8 1196,-287.8 391.87,-287.8 391.87,-287.8"/>
<polygon fill="black" stroke="black" points="391.87,-284.3 381.87,-287.8 391.87,-291.3 391.87,-284.3"/>
</g>
<!-- FilesModule -->
<g id="node6" class="node">
<title>FilesModule</title>
<polygon fill="#8dd3c7" stroke="black" points="1511.28,-160.8 1508.28,-164.8 1487.28,-164.8 1484.28,-160.8 1424.72,-160.8 1424.72,-124.8 1511.28,-124.8 1511.28,-160.8"/>
<text text-anchor="middle" x="1468" y="-138.6" font-family="Times,serif" font-size="14.00">FilesModule</text>
</g>
<!-- FilesModule&#45;&gt;UsersModule -->
<g id="edge35" class="edge">
<title>FilesModule&#45;&gt;UsersModule</title>
<path fill="none" stroke="black" d="M1457.02,-161.07C1457.02,-179.36 1457.02,-204.8 1457.02,-204.8 1457.02,-204.8 1394.01,-204.8 1394.01,-204.8"/>
<polygon fill="black" stroke="black" points="1394.01,-201.3 1384.01,-204.8 1394.01,-208.3 1394.01,-201.3"/>
</g>
<!-- FilesModule&#45;&gt;AppModule -->
<g id="edge6" class="edge">
<title>FilesModule&#45;&gt;AppModule</title>
<path fill="none" stroke="black" d="M1473.22,-160.83C1473.22,-201.1 1473.22,-294.8 1473.22,-294.8 1473.22,-294.8 391.68,-294.8 391.68,-294.8"/>
<polygon fill="black" stroke="black" points="391.68,-291.3 381.68,-294.8 391.68,-298.3 391.68,-291.3"/>
</g>
<!-- FilesService  -->
<g id="node25" class="node">
<title>FilesService </title>
<polygon fill="#fb8072" stroke="black" points="2310.21,-225.8 2221.79,-225.8 2221.79,-189.8 2310.21,-189.8 2310.21,-225.8"/>
<text text-anchor="middle" x="2266" y="-203.6" font-family="Times,serif" font-size="14.00">FilesService </text>
</g>
<!-- FilesModule&#45;&gt;FilesService  -->
<g id="edge25" class="edge">
<title>FilesModule&#45;&gt;FilesService </title>
<path fill="none" stroke="black" stroke-dasharray="5,2" d="M1489.42,-160.94C1489.42,-167.26 1489.42,-172.8 1489.42,-172.8 1489.42,-172.8 2266,-172.8 2266,-172.8 2266,-172.8 2266,-179.48 2266,-179.48"/>
<polygon fill="black" stroke="black" points="2262.5,-179.48 2266,-189.48 2269.5,-179.48 2262.5,-179.48"/>
</g>
<!-- HealthModule -->
<g id="node7" class="node">
<title>HealthModule</title>
<polygon fill="#8dd3c7" stroke="black" points="494.37,-160.8 491.37,-164.8 470.37,-164.8 467.37,-160.8 397.63,-160.8 397.63,-124.8 494.37,-124.8 494.37,-160.8"/>
<text text-anchor="middle" x="446" y="-138.6" font-family="Times,serif" font-size="14.00">HealthModule</text>
</g>
<!-- HealthModule&#45;&gt;AppModule -->
<g id="edge7" class="edge">
<title>HealthModule&#45;&gt;AppModule</title>
<path fill="none" stroke="black" d="M397.45,-142.8C368.56,-142.8 337.48,-142.8 337.48,-142.8 337.48,-142.8 337.48,-255.66 337.48,-255.66"/>
<polygon fill="black" stroke="black" points="333.98,-255.66 337.48,-265.66 340.98,-255.66 333.98,-255.66"/>
</g>
<!-- LocalFilesModule -->
<g id="node8" class="node">
<title>LocalFilesModule</title>
<polygon fill="#8dd3c7" stroke="black" points="1648.15,-160.8 1645.15,-164.8 1624.15,-164.8 1621.15,-160.8 1529.85,-160.8 1529.85,-124.8 1648.15,-124.8 1648.15,-160.8"/>
<text text-anchor="middle" x="1589" y="-138.6" font-family="Times,serif" font-size="14.00">LocalFilesModule</text>
</g>
<!-- LocalFilesModule&#45;&gt;UsersModule -->
<g id="edge36" class="edge">
<title>LocalFilesModule&#45;&gt;UsersModule</title>
<path fill="none" stroke="black" d="M1608.77,-160.93C1608.77,-181.37 1608.77,-211.8 1608.77,-211.8 1608.77,-211.8 1393.93,-211.8 1393.93,-211.8"/>
<polygon fill="black" stroke="black" points="1393.93,-208.3 1383.93,-211.8 1393.93,-215.3 1393.93,-208.3"/>
</g>
<!-- LocalFilesModule&#45;&gt;AppModule -->
<g id="edge8" class="edge">
<title>LocalFilesModule&#45;&gt;AppModule</title>
<path fill="none" stroke="black" d="M1569.23,-160.99C1569.23,-164.34 1569.23,-166.8 1569.23,-166.8 1569.23,-166.8 352.26,-166.8 352.26,-166.8 352.26,-166.8 352.26,-255.78 352.26,-255.78"/>
<polygon fill="black" stroke="black" points="348.76,-255.78 352.26,-265.78 355.76,-255.78 348.76,-255.78"/>
</g>
<!-- LocalFilesService  -->
<g id="node27" class="node">
<title>LocalFilesService </title>
<polygon fill="#fb8072" stroke="black" points="2656.08,-225.8 2535.92,-225.8 2535.92,-189.8 2656.08,-189.8 2656.08,-225.8"/>
<text text-anchor="middle" x="2596" y="-203.6" font-family="Times,serif" font-size="14.00">LocalFilesService </text>
</g>
<!-- LocalFilesModule&#45;&gt;LocalFilesService  -->
<g id="edge27" class="edge">
<title>LocalFilesModule&#45;&gt;LocalFilesService </title>
<path fill="none" stroke="black" stroke-dasharray="5,2" d="M1648.23,-136.8C1864.09,-136.8 2596,-136.8 2596,-136.8 2596,-136.8 2596,-179.52 2596,-179.52"/>
<polygon fill="black" stroke="black" points="2592.5,-179.52 2596,-189.52 2599.5,-179.52 2592.5,-179.52"/>
</g>
<!-- LoggerModule -->
<g id="node9" class="node">
<title>LoggerModule</title>
<polygon fill="#8dd3c7" stroke="black" points="611.98,-160.8 608.98,-164.8 587.98,-164.8 584.98,-160.8 512.02,-160.8 512.02,-124.8 611.98,-124.8 611.98,-160.8"/>
<text text-anchor="middle" x="562" y="-138.6" font-family="Times,serif" font-size="14.00">LoggerModule</text>
</g>
<!-- LoggerModule&#45;&gt;AppModule -->
<g id="edge9" class="edge">
<title>LoggerModule&#45;&gt;AppModule</title>
<path fill="none" stroke="black" d="M562,-161C562,-196.11 562,-269.8 562,-269.8 562,-269.8 391.76,-269.8 391.76,-269.8"/>
<polygon fill="black" stroke="black" points="391.76,-266.3 381.76,-269.8 391.76,-273.3 391.76,-266.3"/>
</g>
<!-- CustomLogger  -->
<g id="node29" class="node">
<title>CustomLogger </title>
<polygon fill="#fb8072" stroke="black" points="568.99,-84.8 465.01,-84.8 465.01,-48.8 568.99,-48.8 568.99,-84.8"/>
<text text-anchor="middle" x="517" y="-62.6" font-family="Times,serif" font-size="14.00">CustomLogger </text>
</g>
<!-- LoggerModule&#45;&gt;CustomLogger  -->
<g id="edge29" class="edge">
<title>LoggerModule&#45;&gt;CustomLogger </title>
<path fill="none" stroke="black" stroke-dasharray="5,2" d="M554.56,-124.79C554.56,-124.79 554.56,-94.95 554.56,-94.95"/>
<polygon fill="black" stroke="black" points="558.06,-94.95 554.56,-84.95 551.06,-94.95 558.06,-94.95"/>
</g>
<!-- PostsModule -->
<g id="node10" class="node">
<title>PostsModule</title>
<polygon fill="#8dd3c7" stroke="black" points="995.62,-160.8 992.62,-164.8 971.62,-164.8 968.62,-160.8 906.38,-160.8 906.38,-124.8 995.62,-124.8 995.62,-160.8"/>
<text text-anchor="middle" x="951" y="-138.6" font-family="Times,serif" font-size="14.00">PostsModule</text>
</g>
<!-- PostsModule&#45;&gt;AppModule -->
<g id="edge10" class="edge">
<title>PostsModule&#45;&gt;AppModule</title>
<path fill="none" stroke="black" d="M951,-160.84C951,-198.25 951,-280.8 951,-280.8 951,-280.8 392,-280.8 392,-280.8"/>
<polygon fill="black" stroke="black" points="392,-277.3 382,-280.8 392,-284.3 392,-277.3"/>
</g>
<!-- ProductsModule -->
<g id="node11" class="node">
<title>ProductsModule</title>
<polygon fill="#8dd3c7" stroke="black" points="1122.05,-160.8 1119.05,-164.8 1098.05,-164.8 1095.05,-160.8 1013.95,-160.8 1013.95,-124.8 1122.05,-124.8 1122.05,-160.8"/>
<text text-anchor="middle" x="1068" y="-138.6" font-family="Times,serif" font-size="14.00">ProductsModule</text>
</g>
<!-- ProductsModule&#45;&gt;AppModule -->
<g id="edge11" class="edge">
<title>ProductsModule&#45;&gt;AppModule</title>
<path fill="none" stroke="black" d="M1068,-160.94C1068,-199.03 1068,-283.8 1068,-283.8 1068,-283.8 391.76,-283.8 391.76,-283.8"/>
<polygon fill="black" stroke="black" points="391.76,-280.3 381.76,-283.8 391.76,-287.3 391.76,-280.3"/>
</g>
<!-- UsersModule&#45;&gt;AuthenticationModule -->
<g id="edge13" class="edge">
<title>UsersModule&#45;&gt;AuthenticationModule</title>
<path fill="none" stroke="black" d="M1384.06,-218.8C1438.13,-218.8 1520.53,-218.8 1520.53,-218.8 1520.53,-218.8 1520.53,-255.69 1520.53,-255.69"/>
<polygon fill="black" stroke="black" points="1517.03,-255.69 1520.53,-265.69 1524.03,-255.69 1517.03,-255.69"/>
</g>
<!-- UsersModule&#45;&gt;AppModule -->
<g id="edge12" class="edge">
<title>UsersModule&#45;&gt;AppModule</title>
<path fill="none" stroke="black" d="M1292.15,-216.8C1099.69,-216.8 367.05,-216.8 367.05,-216.8 367.05,-216.8 367.05,-255.49 367.05,-255.49"/>
<polygon fill="black" stroke="black" points="363.55,-255.49 367.05,-265.49 370.55,-255.49 363.55,-255.49"/>
</g>
<!-- UsersService  -->
<g id="node34" class="node">
<title>UsersService </title>
<polygon fill="#fb8072" stroke="black" points="265.86,-301.8 172.14,-301.8 172.14,-265.8 265.86,-265.8 265.86,-301.8"/>
<text text-anchor="middle" x="219" y="-279.6" font-family="Times,serif" font-size="14.00">UsersService </text>
</g>
<!-- UsersModule&#45;&gt;UsersService  -->
<g id="edge37" class="edge">
<title>UsersModule&#45;&gt;UsersService </title>
<path fill="none" stroke="black" stroke-dasharray="5,2" d="M1292.05,-207.8C1081.48,-207.8 219,-207.8 219,-207.8 219,-207.8 219,-255.79 219,-255.79"/>
<polygon fill="black" stroke="black" points="215.5,-255.79 219,-265.79 222.5,-255.79 215.5,-255.79"/>
</g>
<!-- AuthenticationService -->
<g id="node15" class="node">
<title>AuthenticationService</title>
<ellipse fill="#fdb462" stroke="black" cx="3828" cy="-207.8" rx="97.27" ry="18"/>
<text text-anchor="middle" x="3828" y="-203.6" font-family="Times,serif" font-size="14.00">AuthenticationService</text>
</g>
<!-- AuthenticationService&#45;&gt;AuthenticationModule -->
<g id="edge15" class="edge">
<title>AuthenticationService&#45;&gt;AuthenticationModule</title>
<path fill="none" stroke="black" d="M3828,-225.83C3828,-250.78 3828,-292.8 3828,-292.8 3828,-292.8 1658.4,-292.8 1658.4,-292.8"/>
<polygon fill="black" stroke="black" points="1658.4,-289.3 1648.4,-292.8 1658.4,-296.3 1658.4,-289.3"/>
</g>
<!-- JwtRefreshTokenStrategy -->
<g id="node16" class="node">
<title>JwtRefreshTokenStrategy</title>
<ellipse fill="#fdb462" stroke="black" cx="3601" cy="-207.8" rx="111.17" ry="18"/>
<text text-anchor="middle" x="3601" y="-203.6" font-family="Times,serif" font-size="14.00">JwtRefreshTokenStrategy</text>
</g>
<!-- JwtRefreshTokenStrategy&#45;&gt;AuthenticationModule -->
<g id="edge16" class="edge">
<title>JwtRefreshTokenStrategy&#45;&gt;AuthenticationModule</title>
<path fill="none" stroke="black" d="M3601,-226.18C3601,-250.08 3601,-288.8 3601,-288.8 3601,-288.8 1658.44,-288.8 1658.44,-288.8"/>
<polygon fill="black" stroke="black" points="1658.44,-285.3 1648.44,-288.8 1658.44,-292.3 1658.44,-285.3"/>
</g>
<!-- JwtStrategy -->
<g id="node17" class="node">
<title>JwtStrategy</title>
<ellipse fill="#fdb462" stroke="black" cx="3415" cy="-207.8" rx="56.77" ry="18"/>
<text text-anchor="middle" x="3415" y="-203.6" font-family="Times,serif" font-size="14.00">JwtStrategy</text>
</g>
<!-- JwtStrategy&#45;&gt;AuthenticationModule -->
<g id="edge17" class="edge">
<title>JwtStrategy&#45;&gt;AuthenticationModule</title>
<path fill="none" stroke="black" d="M3415,-225.81C3415,-248.29 3415,-283.8 3415,-283.8 3415,-283.8 1658.49,-283.8 1658.49,-283.8"/>
<polygon fill="black" stroke="black" points="1658.49,-280.3 1648.49,-283.8 1658.49,-287.3 1658.49,-280.3"/>
</g>
<!-- JwtTwoFactorStrategy -->
<g id="node18" class="node">
<title>JwtTwoFactorStrategy</title>
<ellipse fill="#fdb462" stroke="black" cx="3241" cy="-207.8" rx="99.01" ry="18"/>
<text text-anchor="middle" x="3241" y="-203.6" font-family="Times,serif" font-size="14.00">JwtTwoFactorStrategy</text>
</g>
<!-- JwtTwoFactorStrategy&#45;&gt;AuthenticationModule -->
<g id="edge18" class="edge">
<title>JwtTwoFactorStrategy&#45;&gt;AuthenticationModule</title>
<path fill="none" stroke="black" d="M3241,-225.97C3241,-247.3 3241,-279.8 3241,-279.8 3241,-279.8 1658.5,-279.8 1658.5,-279.8"/>
<polygon fill="black" stroke="black" points="1658.5,-276.3 1648.5,-279.8 1658.5,-283.3 1658.5,-276.3"/>
</g>
<!-- LocalStrategy -->
<g id="node19" class="node">
<title>LocalStrategy</title>
<ellipse fill="#fdb462" stroke="black" cx="3059" cy="-207.8" rx="65.4" ry="18"/>
<text text-anchor="middle" x="3059" y="-203.6" font-family="Times,serif" font-size="14.00">LocalStrategy</text>
</g>
<!-- LocalStrategy&#45;&gt;AuthenticationModule -->
<g id="edge19" class="edge">
<title>LocalStrategy&#45;&gt;AuthenticationModule</title>
<path fill="none" stroke="black" d="M3059,-226.11C3059,-245.95 3059,-274.8 3059,-274.8 3059,-274.8 1658.48,-274.8 1658.48,-274.8"/>
<polygon fill="black" stroke="black" points="1658.48,-271.3 1648.48,-274.8 1658.48,-278.3 1658.48,-271.3"/>
</g>
<!-- TwoFactorAuthenticationService -->
<g id="node20" class="node">
<title>TwoFactorAuthenticationService</title>
<ellipse fill="#fdb462" stroke="black" cx="2836" cy="-207.8" rx="139.51" ry="18"/>
<text text-anchor="middle" x="2836" y="-203.6" font-family="Times,serif" font-size="14.00">TwoFactorAuthenticationService</text>
</g>
<!-- TwoFactorAuthenticationService&#45;&gt;AuthenticationModule -->
<g id="edge20" class="edge">
<title>TwoFactorAuthenticationService&#45;&gt;AuthenticationModule</title>
<path fill="none" stroke="black" d="M2836,-226.02C2836,-244.63 2836,-270.8 2836,-270.8 2836,-270.8 1658.3,-270.8 1658.3,-270.8"/>
<polygon fill="black" stroke="black" points="1658.3,-267.3 1648.3,-270.8 1658.3,-274.3 1658.3,-267.3"/>
</g>
<!-- CategoriesService -->
<g id="node21" class="node">
<title>CategoriesService</title>
<ellipse fill="#fdb462" stroke="black" cx="690" cy="-66.8" rx="81.08" ry="18"/>
<text text-anchor="middle" x="690" y="-62.6" font-family="Times,serif" font-size="14.00">CategoriesService</text>
</g>
<!-- CategoriesService&#45;&gt;CategoriesModule -->
<g id="edge21" class="edge">
<title>CategoriesService&#45;&gt;CategoriesModule</title>
<path fill="none" stroke="black" d="M690,-84.81C690,-84.81 690,-114.65 690,-114.65"/>
<polygon fill="black" stroke="black" points="686.5,-114.65 690,-124.65 693.5,-114.65 686.5,-114.65"/>
</g>
<!-- CommentsService -->
<g id="node22" class="node">
<title>CommentsService</title>
<ellipse fill="#fdb462" stroke="black" cx="893" cy="-66.8" rx="81.68" ry="18"/>
<text text-anchor="middle" x="893" y="-62.6" font-family="Times,serif" font-size="14.00">CommentsService</text>
</g>
<!-- CommentsService&#45;&gt;CommentsModule -->
<g id="edge22" class="edge">
<title>CommentsService&#45;&gt;CommentsModule</title>
<path fill="none" stroke="black" d="M849.63,-82.18C849.63,-82.18 849.63,-114.77 849.63,-114.77"/>
<polygon fill="black" stroke="black" points="846.13,-114.77 849.63,-124.77 853.13,-114.77 846.13,-114.77"/>
</g>
<!-- DatabaseFilesService -->
<g id="node24" class="node">
<title>DatabaseFilesService</title>
<ellipse fill="#fdb462" stroke="black" cx="1782" cy="-207.8" rx="94.33" ry="18"/>
<text text-anchor="middle" x="1782" y="-203.6" font-family="Times,serif" font-size="14.00">DatabaseFilesService</text>
</g>
<!-- DatabaseFilesService&#45;&gt;DatabaseFilesModule -->
<g id="edge24" class="edge">
<title>DatabaseFilesService&#45;&gt;DatabaseFilesModule</title>
<path fill="none" stroke="black" d="M1703.62,-197.8C1591.65,-197.8 1399.27,-197.8 1399.27,-197.8 1399.27,-197.8 1399.27,-170.81 1399.27,-170.81"/>
<polygon fill="black" stroke="black" points="1402.77,-170.81 1399.27,-160.81 1395.77,-170.81 1402.77,-170.81"/>
</g>
<!-- FilesService -->
<g id="node26" class="node">
<title>FilesService</title>
<ellipse fill="#fdb462" stroke="black" cx="2139" cy="-207.8" rx="58.55" ry="18"/>
<text text-anchor="middle" x="2139" y="-203.6" font-family="Times,serif" font-size="14.00">FilesService</text>
</g>
<!-- FilesService&#45;&gt;FilesModule -->
<g id="edge26" class="edge">
<title>FilesService&#45;&gt;FilesModule</title>
<path fill="none" stroke="black" d="M2139,-189.6C2139,-183.77 2139,-178.8 2139,-178.8 2139,-178.8 1440.81,-178.8 1440.81,-178.8 1440.81,-178.8 1440.81,-171.22 1440.81,-171.22"/>
<polygon fill="black" stroke="black" points="1444.31,-171.22 1440.81,-161.22 1437.31,-171.22 1444.31,-171.22"/>
</g>
<!-- LocalFilesService -->
<g id="node28" class="node">
<title>LocalFilesService</title>
<ellipse fill="#fdb462" stroke="black" cx="2431" cy="-207.8" rx="80.51" ry="18"/>
<text text-anchor="middle" x="2431" y="-203.6" font-family="Times,serif" font-size="14.00">LocalFilesService</text>
</g>
<!-- LocalFilesService&#45;&gt;LocalFilesModule -->
<g id="edge28" class="edge">
<title>LocalFilesService&#45;&gt;LocalFilesModule</title>
<path fill="none" stroke="black" d="M2431,-189.78C2431,-172.43 2431,-148.8 2431,-148.8 2431,-148.8 1658.21,-148.8 1658.21,-148.8"/>
<polygon fill="black" stroke="black" points="1658.21,-145.3 1648.21,-148.8 1658.21,-152.3 1658.21,-145.3"/>
</g>
<!-- CustomLogger -->
<g id="node30" class="node">
<title>CustomLogger</title>
<ellipse fill="#fdb462" stroke="black" cx="236" cy="-66.8" rx="68.95" ry="18"/>
<text text-anchor="middle" x="236" y="-62.6" font-family="Times,serif" font-size="14.00">CustomLogger</text>
</g>
<!-- CustomLogger&#45;&gt;LoggerModule -->
<g id="edge30" class="edge">
<title>CustomLogger&#45;&gt;LoggerModule</title>
<path fill="none" stroke="black" d="M281.93,-80.43C281.93,-94.62 281.93,-114.8 281.93,-114.8 281.93,-114.8 526.19,-114.8 526.19,-114.8 526.19,-114.8 526.19,-115.78 526.19,-115.78"/>
<polygon fill="black" stroke="black" points="522.69,-114.59 526.19,-124.59 529.69,-114.59 522.69,-114.59"/>
</g>
<!-- LogsService -->
<g id="node31" class="node">
<title>LogsService</title>
<ellipse fill="#fdb462" stroke="black" cx="382" cy="-66.8" rx="59.11" ry="18"/>
<text text-anchor="middle" x="382" y="-62.6" font-family="Times,serif" font-size="14.00">LogsService</text>
</g>
<!-- LogsService&#45;&gt;LoggerModule -->
<g id="edge31" class="edge">
<title>LogsService&#45;&gt;LoggerModule</title>
<path fill="none" stroke="black" d="M419.44,-80.95C419.44,-91.75 419.44,-104.8 419.44,-104.8 419.44,-104.8 540.38,-104.8 540.38,-104.8 540.38,-104.8 540.38,-114.69 540.38,-114.69"/>
<polygon fill="black" stroke="black" points="536.88,-114.69 540.38,-124.69 543.88,-114.69 536.88,-114.69"/>
</g>
<!-- PostsService -->
<g id="node32" class="node">
<title>PostsService</title>
<ellipse fill="#fdb462" stroke="black" cx="1075" cy="-66.8" rx="60.28" ry="18"/>
<text text-anchor="middle" x="1075" y="-62.6" font-family="Times,serif" font-size="14.00">PostsService</text>
</g>
<!-- PostsService&#45;&gt;PostsModule -->
<g id="edge32" class="edge">
<title>PostsService&#45;&gt;PostsModule</title>
<path fill="none" stroke="black" d="M1014.61,-66.8C998.36,-66.8 985.2,-66.8 985.2,-66.8 985.2,-66.8 985.2,-114.79 985.2,-114.79"/>
<polygon fill="black" stroke="black" points="981.7,-114.79 985.2,-124.79 988.7,-114.79 981.7,-114.79"/>
</g>
<!-- ProductsService -->
<g id="node33" class="node">
<title>ProductsService</title>
<ellipse fill="#fdb462" stroke="black" cx="1249" cy="-66.8" rx="73.59" ry="18"/>
<text text-anchor="middle" x="1249" y="-62.6" font-family="Times,serif" font-size="14.00">ProductsService</text>
</g>
<!-- ProductsService&#45;&gt;ProductsModule -->
<g id="edge33" class="edge">
<title>ProductsService&#45;&gt;ProductsModule</title>
<path fill="none" stroke="black" d="M1213.32,-82.76C1213.32,-89.05 1213.32,-94.8 1213.32,-94.8 1213.32,-94.8 1068.44,-94.8 1068.44,-94.8 1068.44,-94.8 1068.44,-114.65 1068.44,-114.65"/>
<polygon fill="black" stroke="black" points="1064.94,-114.65 1068.44,-124.65 1071.94,-114.65 1064.94,-114.65"/>
</g>
<!-- UsersService -->
<g id="node35" class="node">
<title>UsersService</title>
<ellipse fill="#fdb462" stroke="black" cx="86" cy="-283.8" rx="61.97" ry="18"/>
<text text-anchor="middle" x="86" y="-279.6" font-family="Times,serif" font-size="14.00">UsersService</text>
</g>
<!-- UsersService&#45;&gt;UsersModule -->
<g id="edge38" class="edge">
<title>UsersService&#45;&gt;UsersModule</title>
<path fill="none" stroke="black" d="M86,-265.77C86,-240.82 86,-198.8 86,-198.8 86,-198.8 1281.96,-198.8 1281.96,-198.8"/>
<polygon fill="black" stroke="black" points="1281.96,-202.3 1291.96,-198.8 1281.96,-195.3 1281.96,-202.3"/>
</g>
</g>
</svg>
