<?xml version="1.0" encoding="UTF-8" standalone="no"?>
<!DOCTYPE svg PUBLIC "-//W3C//DTD SVG 1.1//EN"
 "http://www.w3.org/Graphics/SVG/1.1/DTD/svg11.dtd">
<!-- Generated by graphviz version 3.0.0 (20220226.1711)
 -->
<!-- Title: dependencies Pages: 1 -->
<svg width="4819pt" height="475pt"
 viewBox="0.00 0.00 4819.00 474.80" xmlns="http://www.w3.org/2000/svg" xmlns:xlink="http://www.w3.org/1999/xlink">
<g id="graph0" class="graph" transform="scale(1 1) rotate(0) translate(4 470.8)">
<title>dependencies</title>
<polygon fill="white" stroke="transparent" points="-4,4 -4,-470.8 4815,-470.8 4815,4 -4,4"/>
<text text-anchor="middle" x="2405.5" y="-8.2" font-family="sans-serif" font-size="14.00">dependencies</text>
<g id="clust1" class="cluster">
<title>cluster_AppModule</title>
<polygon fill="none" stroke="black" stroke-dasharray="1,5" points="2011,-108.8 2011,-458.8 3541,-458.8 3541,-108.8 2011,-108.8"/>
</g>
<g id="clust3" class="cluster">
<title>cluster_AppModule_imports</title>
<polygon fill="none" stroke="black" points="2019,-116.8 2019,-450.8 3441,-450.8 3441,-116.8 2019,-116.8"/>
</g>
<g id="clust7" class="cluster">
<title>cluster_AuthenticationModule</title>
<polygon fill="none" stroke="black" stroke-dasharray="1,5" points="574,-249.8 574,-317.8 2003,-317.8 2003,-249.8 574,-249.8"/>
</g>
<g id="clust10" class="cluster">
<title>cluster_AuthenticationModule_exports</title>
<polygon fill="none" stroke="black" points="1835,-257.8 1835,-309.8 1995,-309.8 1995,-257.8 1835,-257.8"/>
</g>
<g id="clust12" class="cluster">
<title>cluster_AuthenticationModule_providers</title>
<polygon fill="none" stroke="black" points="582,-257.8 582,-309.8 1827,-309.8 1827,-257.8 582,-257.8"/>
</g>
<g id="clust13" class="cluster">
<title>cluster_AuthorizationModule</title>
<polygon fill="none" stroke="black" stroke-dasharray="1,5" points="2069,-32.8 2069,-100.8 2289,-100.8 2289,-32.8 2069,-32.8"/>
</g>
<g id="clust18" class="cluster">
<title>cluster_AuthorizationModule_providers</title>
<polygon fill="none" stroke="black" points="2077,-40.8 2077,-92.8 2281,-92.8 2281,-40.8 2077,-40.8"/>
</g>
<g id="clust19" class="cluster">
<title>cluster_CategoriesModule</title>
<polygon fill="none" stroke="black" stroke-dasharray="1,5" points="2297,-32.8 2297,-100.8 2491,-100.8 2491,-32.8 2297,-32.8"/>
</g>
<g id="clust24" class="cluster">
<title>cluster_CategoriesModule_providers</title>
<polygon fill="none" stroke="black" points="2305,-40.8 2305,-92.8 2483,-92.8 2483,-40.8 2305,-40.8"/>
</g>
<g id="clust25" class="cluster">
<title>cluster_CommentsModule</title>
<polygon fill="none" stroke="black" stroke-dasharray="1,5" points="2499,-32.8 2499,-100.8 2695,-100.8 2695,-32.8 2499,-32.8"/>
</g>
<g id="clust30" class="cluster">
<title>cluster_CommentsModule_providers</title>
<polygon fill="none" stroke="black" points="2507,-40.8 2507,-92.8 2687,-92.8 2687,-40.8 2507,-40.8"/>
</g>
<g id="clust31" class="cluster">
<title>cluster_DatabaseFilesModule</title>
<polygon fill="none" stroke="black" stroke-dasharray="1,5" points="3549,-173.8 3549,-241.8 3933,-241.8 3933,-173.8 3549,-173.8"/>
</g>
<g id="clust34" class="cluster">
<title>cluster_DatabaseFilesModule_exports</title>
<polygon fill="none" stroke="black" points="3769,-181.8 3769,-233.8 3925,-233.8 3925,-181.8 3769,-181.8"/>
</g>
<g id="clust36" class="cluster">
<title>cluster_DatabaseFilesModule_providers</title>
<polygon fill="none" stroke="black" points="3557,-181.8 3557,-233.8 3761,-233.8 3761,-181.8 3557,-181.8"/>
</g>
<g id="clust43" class="cluster">
<title>cluster_EmailConfirmationModule</title>
<polygon fill="none" stroke="black" stroke-dasharray="1,5" points="3549,-325.8 3549,-393.8 4005,-393.8 4005,-325.8 3549,-325.8"/>
</g>
<g id="clust46" class="cluster">
<title>cluster_EmailConfirmationModule_exports</title>
<polygon fill="none" stroke="black" points="3811,-333.8 3811,-385.8 3997,-385.8 3997,-333.8 3811,-333.8"/>
</g>
<g id="clust48" class="cluster">
<title>cluster_EmailConfirmationModule_providers</title>
<polygon fill="none" stroke="black" points="3557,-333.8 3557,-385.8 3803,-385.8 3803,-333.8 3557,-333.8"/>
</g>
<g id="clust49" class="cluster">
<title>cluster_EmailModule</title>
<polygon fill="none" stroke="black" stroke-dasharray="1,5" points="8,-249.8 8,-317.8 284,-317.8 284,-249.8 8,-249.8"/>
</g>
<g id="clust52" class="cluster">
<title>cluster_EmailModule_exports</title>
<polygon fill="none" stroke="black" points="166,-257.8 166,-309.8 276,-309.8 276,-257.8 166,-257.8"/>
</g>
<g id="clust54" class="cluster">
<title>cluster_EmailModule_providers</title>
<polygon fill="none" stroke="black" points="16,-257.8 16,-309.8 158,-309.8 158,-257.8 16,-257.8"/>
</g>
<g id="clust55" class="cluster">
<title>cluster_EmailSchedulingModule</title>
<polygon fill="none" stroke="black" stroke-dasharray="1,5" points="4557,-173.8 4557,-241.8 4803,-241.8 4803,-173.8 4557,-173.8"/>
</g>
<g id="clust60" class="cluster">
<title>cluster_EmailSchedulingModule_providers</title>
<polygon fill="none" stroke="black" points="4565,-181.8 4565,-233.8 4795,-233.8 4795,-181.8 4565,-181.8"/>
</g>
<g id="clust61" class="cluster">
<title>cluster_FilesModule</title>
<polygon fill="none" stroke="black" stroke-dasharray="1,5" points="3941,-173.8 3941,-241.8 4203,-241.8 4203,-173.8 3941,-173.8"/>
</g>
<g id="clust64" class="cluster">
<title>cluster_FilesModule_exports</title>
<polygon fill="none" stroke="black" points="4091,-181.8 4091,-233.8 4195,-233.8 4195,-181.8 4091,-181.8"/>
</g>
<g id="clust66" class="cluster">
<title>cluster_FilesModule_providers</title>
<polygon fill="none" stroke="black" points="3949,-181.8 3949,-233.8 4083,-233.8 4083,-181.8 3949,-181.8"/>
</g>
<g id="clust67" class="cluster">
<title>cluster_GoogleAuthenticationModule</title>
<polygon fill="none" stroke="black" stroke-dasharray="1,5" points="1719,-325.8 1719,-393.8 2003,-393.8 2003,-325.8 1719,-325.8"/>
</g>
<g id="clust72" class="cluster">
<title>cluster_GoogleAuthenticationModule_providers</title>
<polygon fill="none" stroke="black" points="1727,-333.8 1727,-385.8 1995,-385.8 1995,-333.8 1727,-333.8"/>
</g>
<g id="clust79" class="cluster">
<title>cluster_LocalFilesModule</title>
<polygon fill="none" stroke="black" stroke-dasharray="1,5" points="4211,-173.8 4211,-241.8 4549,-241.8 4549,-173.8 4211,-173.8"/>
</g>
<g id="clust82" class="cluster">
<title>cluster_LocalFilesModule_exports</title>
<polygon fill="none" stroke="black" points="4405,-181.8 4405,-233.8 4541,-233.8 4541,-181.8 4405,-181.8"/>
</g>
<g id="clust84" class="cluster">
<title>cluster_LocalFilesModule_providers</title>
<polygon fill="none" stroke="black" points="4219,-181.8 4219,-233.8 4397,-233.8 4397,-181.8 4219,-181.8"/>
</g>
<g id="clust85" class="cluster">
<title>cluster_LoggerModule</title>
<polygon fill="none" stroke="black" stroke-dasharray="1,5" points="1627,-32.8 1627,-100.8 2061,-100.8 2061,-32.8 1627,-32.8"/>
</g>
<g id="clust88" class="cluster">
<title>cluster_LoggerModule_exports</title>
<polygon fill="none" stroke="black" points="1933,-40.8 1933,-92.8 2053,-92.8 2053,-40.8 1933,-40.8"/>
</g>
<g id="clust90" class="cluster">
<title>cluster_LoggerModule_providers</title>
<polygon fill="none" stroke="black" points="1635,-40.8 1635,-92.8 1925,-92.8 1925,-40.8 1635,-40.8"/>
</g>
<g id="clust91" class="cluster">
<title>cluster_PostsModule</title>
<polygon fill="none" stroke="black" stroke-dasharray="1,5" points="2703,-32.8 2703,-100.8 2855,-100.8 2855,-32.8 2703,-32.8"/>
</g>
<g id="clust96" class="cluster">
<title>cluster_PostsModule_providers</title>
<polygon fill="none" stroke="black" points="2711,-40.8 2711,-92.8 2847,-92.8 2847,-40.8 2711,-40.8"/>
</g>
<g id="clust97" class="cluster">
<title>cluster_ProductsModule</title>
<polygon fill="none" stroke="black" stroke-dasharray="1,5" points="2863,-32.8 2863,-100.8 3043,-100.8 3043,-32.8 2863,-32.8"/>
</g>
<g id="clust102" class="cluster">
<title>cluster_ProductsModule_providers</title>
<polygon fill="none" stroke="black" points="2871,-40.8 2871,-92.8 3035,-92.8 3035,-40.8 2871,-40.8"/>
</g>
<g id="clust103" class="cluster">
<title>cluster_UsersModule</title>
<polygon fill="none" stroke="black" stroke-dasharray="1,5" points="292,-249.8 292,-317.8 566,-317.8 566,-249.8 292,-249.8"/>
</g>
<g id="clust106" class="cluster">
<title>cluster_UsersModule_exports</title>
<polygon fill="none" stroke="black" points="448,-257.8 448,-309.8 558,-309.8 558,-257.8 448,-257.8"/>
</g>
<g id="clust108" class="cluster">
<title>cluster_UsersModule_providers</title>
<polygon fill="none" stroke="black" points="300,-257.8 300,-309.8 440,-309.8 440,-257.8 300,-257.8"/>
</g>
<!-- AuthenticationModule -->
<g id="node1" class="node">
<title>AuthenticationModule</title>
<polygon fill="#8dd3c7" stroke="black" points="2169.25,-377.8 2166.25,-381.8 2145.25,-381.8 2142.25,-377.8 2026.75,-377.8 2026.75,-341.8 2169.25,-341.8 2169.25,-377.8"/>
<text text-anchor="middle" x="2098" y="-355.6" font-family="Times,serif" font-size="14.00">AuthenticationModule</text>
</g>
<!-- GoogleAuthenticationModule -->
<g id="node11" class="node">
<title>GoogleAuthenticationModule</title>
<polygon fill="#8dd3c7" stroke="black" points="2420.97,-442.8 2417.97,-446.8 2396.97,-446.8 2393.97,-442.8 2237.03,-442.8 2237.03,-406.8 2420.97,-406.8 2420.97,-442.8"/>
<text text-anchor="middle" x="2329" y="-420.6" font-family="Times,serif" font-size="14.00">GoogleAuthenticationModule</text>
</g>
<!-- AuthenticationModule&#45;&gt;GoogleAuthenticationModule -->
<g id="edge42" class="edge">
<title>AuthenticationModule&#45;&gt;GoogleAuthenticationModule</title>
<path fill="none" stroke="black" d="M2169.37,-370.8C2215.68,-370.8 2267.44,-370.8 2267.44,-370.8 2267.44,-370.8 2267.44,-396.52 2267.44,-396.52"/>
<polygon fill="black" stroke="black" points="2263.94,-396.52 2267.44,-406.52 2270.94,-396.52 2263.94,-396.52"/>
</g>
<!-- AppModule -->
<g id="node18" class="node">
<title>AppModule</title>
<polygon fill="#8dd3c7" stroke="black" points="3532.66,-442.8 3529.66,-446.8 3508.66,-446.8 3505.66,-442.8 3449.34,-442.8 3449.34,-406.8 3532.66,-406.8 3532.66,-442.8"/>
<text text-anchor="middle" x="3491" y="-420.6" font-family="Times,serif" font-size="14.00">AppModule</text>
</g>
<!-- AuthenticationModule&#45;&gt;AppModule -->
<g id="edge1" class="edge">
<title>AuthenticationModule&#45;&gt;AppModule</title>
<path fill="none" stroke="black" d="M2169.29,-363.8C2449.45,-363.8 3459.63,-363.8 3459.63,-363.8 3459.63,-363.8 3459.63,-396.5 3459.63,-396.5"/>
<polygon fill="black" stroke="black" points="3456.13,-396.5 3459.63,-406.5 3463.13,-396.5 3456.13,-396.5"/>
</g>
<!-- AuthenticationService  -->
<g id="node19" class="node">
<title>AuthenticationService </title>
<polygon fill="#fb8072" stroke="black" points="1987.18,-301.8 1842.82,-301.8 1842.82,-265.8 1987.18,-265.8 1987.18,-301.8"/>
<text text-anchor="middle" x="1915" y="-279.6" font-family="Times,serif" font-size="14.00">AuthenticationService </text>
</g>
<!-- AuthenticationModule&#45;&gt;AuthenticationService  -->
<g id="edge20" class="edge">
<title>AuthenticationModule&#45;&gt;AuthenticationService </title>
<path fill="none" stroke="black" stroke-dasharray="5,2" d="M2104.77,-341.77C2104.77,-321.03 2104.77,-289.8 2104.77,-289.8 2104.77,-289.8 1997.29,-289.8 1997.29,-289.8"/>
<polygon fill="black" stroke="black" points="1997.29,-286.3 1987.29,-289.8 1997.29,-293.3 1997.29,-286.3"/>
</g>
<!-- AuthorizationModule -->
<g id="node2" class="node">
<title>AuthorizationModule</title>
<polygon fill="#8dd3c7" stroke="black" points="2282.81,-160.8 2279.81,-164.8 2258.81,-164.8 2255.81,-160.8 2145.19,-160.8 2145.19,-124.8 2282.81,-124.8 2282.81,-160.8"/>
<text text-anchor="middle" x="2214" y="-138.6" font-family="Times,serif" font-size="14.00">AuthorizationModule</text>
</g>
<!-- AuthorizationModule&#45;&gt;AppModule -->
<g id="edge2" class="edge">
<title>AuthorizationModule&#45;&gt;AppModule</title>
<path fill="none" stroke="black" d="M2252.23,-160.93C2252.23,-171.51 2252.23,-182.8 2252.23,-182.8 2252.23,-182.8 3491,-182.8 3491,-182.8 3491,-182.8 3491,-396.61 3491,-396.61"/>
<polygon fill="black" stroke="black" points="3487.5,-396.61 3491,-406.61 3494.5,-396.61 3487.5,-396.61"/>
</g>
<!-- CategoriesModule -->
<g id="node3" class="node">
<title>CategoriesModule</title>
<polygon fill="#8dd3c7" stroke="black" points="2419.92,-160.8 2416.92,-164.8 2395.92,-164.8 2392.92,-160.8 2300.08,-160.8 2300.08,-124.8 2419.92,-124.8 2419.92,-160.8"/>
<text text-anchor="middle" x="2360" y="-138.6" font-family="Times,serif" font-size="14.00">CategoriesModule</text>
</g>
<!-- CategoriesModule&#45;&gt;AppModule -->
<g id="edge3" class="edge">
<title>CategoriesModule&#45;&gt;AppModule</title>
<path fill="none" stroke="black" d="M2419.78,-142.8C2425.62,-142.8 2429.44,-142.8 2429.44,-142.8 2429.44,-142.8 2429.44,-436.8 2429.44,-436.8 2429.44,-436.8 3439.06,-436.8 3439.06,-436.8"/>
<polygon fill="black" stroke="black" points="3439.06,-440.3 3449.06,-436.8 3439.06,-433.3 3439.06,-440.3"/>
</g>
<!-- CommentsModule -->
<g id="node4" class="node">
<title>CommentsModule</title>
<polygon fill="#8dd3c7" stroke="black" points="2558.22,-160.8 2555.22,-164.8 2534.22,-164.8 2531.22,-160.8 2437.78,-160.8 2437.78,-124.8 2558.22,-124.8 2558.22,-160.8"/>
<text text-anchor="middle" x="2498" y="-138.6" font-family="Times,serif" font-size="14.00">CommentsModule</text>
</g>
<!-- CommentsModule&#45;&gt;AppModule -->
<g id="edge4" class="edge">
<title>CommentsModule&#45;&gt;AppModule</title>
<path fill="none" stroke="black" d="M2498,-161C2498,-224.71 2498,-433.8 2498,-433.8 2498,-433.8 3439.28,-433.8 3439.28,-433.8"/>
<polygon fill="black" stroke="black" points="3439.28,-437.3 3449.28,-433.8 3439.28,-430.3 3439.28,-437.3"/>
</g>
<!-- DatabaseFilesModule -->
<g id="node5" class="node">
<title>DatabaseFilesModule</title>
<polygon fill="#8dd3c7" stroke="black" points="3192.08,-160.8 3189.08,-164.8 3168.08,-164.8 3165.08,-160.8 3053.92,-160.8 3053.92,-124.8 3192.08,-124.8 3192.08,-160.8"/>
<text text-anchor="middle" x="3123" y="-138.6" font-family="Times,serif" font-size="14.00">DatabaseFilesModule</text>
</g>
<!-- UsersModule -->
<g id="node17" class="node">
<title>UsersModule</title>
<polygon fill="#8dd3c7" stroke="black" points="3094.94,-225.8 3091.94,-229.8 3070.94,-229.8 3067.94,-225.8 3003.06,-225.8 3003.06,-189.8 3094.94,-189.8 3094.94,-225.8"/>
<text text-anchor="middle" x="3049" y="-203.6" font-family="Times,serif" font-size="14.00">UsersModule</text>
</g>
<!-- DatabaseFilesModule&#45;&gt;UsersModule -->
<g id="edge52" class="edge">
<title>DatabaseFilesModule&#45;&gt;UsersModule</title>
<path fill="none" stroke="black" d="M3074.34,-160.91C3074.34,-160.91 3074.34,-179.79 3074.34,-179.79"/>
<polygon fill="black" stroke="black" points="3070.84,-179.79 3074.34,-189.79 3077.84,-179.79 3070.84,-179.79"/>
</g>
<!-- DatabaseFilesModule&#45;&gt;AppModule -->
<g id="edge5" class="edge">
<title>DatabaseFilesModule&#45;&gt;AppModule</title>
<path fill="none" stroke="black" d="M3115.22,-160.84C3115.22,-168.55 3115.22,-175.8 3115.22,-175.8 3115.22,-175.8 3511.92,-175.8 3511.92,-175.8 3511.92,-175.8 3511.92,-396.49 3511.92,-396.49"/>
<polygon fill="black" stroke="black" points="3508.42,-396.49 3511.92,-406.49 3515.42,-396.49 3508.42,-396.49"/>
</g>
<!-- DatabaseFilesService  -->
<g id="node29" class="node">
<title>DatabaseFilesService </title>
<polygon fill="#fb8072" stroke="black" points="3917.01,-225.8 3776.99,-225.8 3776.99,-189.8 3917.01,-189.8 3917.01,-225.8"/>
<text text-anchor="middle" x="3847" y="-203.6" font-family="Times,serif" font-size="14.00">DatabaseFilesService </text>
</g>
<!-- DatabaseFilesModule&#45;&gt;DatabaseFilesService  -->
<g id="edge30" class="edge">
<title>DatabaseFilesModule&#45;&gt;DatabaseFilesService </title>
<path fill="none" stroke="black" stroke-dasharray="5,2" d="M3134.42,-161C3134.42,-166.83 3134.42,-171.8 3134.42,-171.8 3134.42,-171.8 3847,-171.8 3847,-171.8 3847,-171.8 3847,-179.38 3847,-179.38"/>
<polygon fill="black" stroke="black" points="3843.5,-179.38 3847,-189.38 3850.5,-179.38 3843.5,-179.38"/>
</g>
<!-- DatabaseModule -->
<g id="node6" class="node">
<title>DatabaseModule</title>
<polygon fill="#8dd3c7" stroke="black" points="2921.36,-160.8 2918.36,-164.8 2897.36,-164.8 2894.36,-160.8 2810.64,-160.8 2810.64,-124.8 2921.36,-124.8 2921.36,-160.8"/>
<text text-anchor="middle" x="2866" y="-138.6" font-family="Times,serif" font-size="14.00">DatabaseModule</text>
</g>
<!-- DatabaseModule&#45;&gt;AppModule -->
<g id="edge6" class="edge">
<title>DatabaseModule&#45;&gt;AppModule</title>
<path fill="none" stroke="black" d="M2851.54,-160.87C2851.54,-223.11 2851.54,-424.8 2851.54,-424.8 2851.54,-424.8 3439.04,-424.8 3439.04,-424.8"/>
<polygon fill="black" stroke="black" points="3439.04,-428.3 3449.04,-424.8 3439.04,-421.3 3439.04,-428.3"/>
</g>
<!-- EmailConfirmationModule -->
<g id="node7" class="node">
<title>EmailConfirmationModule</title>
<polygon fill="#8dd3c7" stroke="black" points="3078.42,-301.8 3075.42,-305.8 3054.42,-305.8 3051.42,-301.8 2909.58,-301.8 2909.58,-265.8 3078.42,-265.8 3078.42,-301.8"/>
<text text-anchor="middle" x="2994" y="-279.6" font-family="Times,serif" font-size="14.00">EmailConfirmationModule</text>
</g>
<!-- EmailConfirmationModule&#45;&gt;AuthenticationModule -->
<g id="edge18" class="edge">
<title>EmailConfirmationModule&#45;&gt;AuthenticationModule</title>
<path fill="none" stroke="black" d="M2909.56,-277.8C2697.13,-277.8 2157.36,-277.8 2157.36,-277.8 2157.36,-277.8 2157.36,-331.6 2157.36,-331.6"/>
<polygon fill="black" stroke="black" points="2153.86,-331.6 2157.36,-341.6 2160.86,-331.6 2153.86,-331.6"/>
</g>
<!-- EmailConfirmationModule&#45;&gt;AppModule -->
<g id="edge7" class="edge">
<title>EmailConfirmationModule&#45;&gt;AppModule</title>
<path fill="none" stroke="black" d="M2994,-302.01C2994,-338.86 2994,-418.8 2994,-418.8 2994,-418.8 3439.05,-418.8 3439.05,-418.8"/>
<polygon fill="black" stroke="black" points="3439.05,-422.3 3449.05,-418.8 3439.05,-415.3 3439.05,-422.3"/>
</g>
<!-- EmailConfirmationService  -->
<g id="node31" class="node">
<title>EmailConfirmationService </title>
<polygon fill="#fb8072" stroke="black" points="3989.35,-377.8 3818.65,-377.8 3818.65,-341.8 3989.35,-341.8 3989.35,-377.8"/>
<text text-anchor="middle" x="3904" y="-355.6" font-family="Times,serif" font-size="14.00">EmailConfirmationService </text>
</g>
<!-- EmailConfirmationModule&#45;&gt;EmailConfirmationService  -->
<g id="edge34" class="edge">
<title>EmailConfirmationModule&#45;&gt;EmailConfirmationService </title>
<path fill="none" stroke="black" stroke-dasharray="5,2" d="M2951.89,-301.99C2951.89,-305.34 2951.89,-307.8 2951.89,-307.8 2951.89,-307.8 3867.92,-307.8 3867.92,-307.8 3867.92,-307.8 3867.92,-331.61 3867.92,-331.61"/>
<polygon fill="black" stroke="black" points="3864.42,-331.61 3867.92,-341.61 3871.42,-331.61 3864.42,-331.61"/>
</g>
<!-- EmailModule -->
<g id="node8" class="node">
<title>EmailModule</title>
<polygon fill="#8dd3c7" stroke="black" points="2985.49,-225.8 2982.49,-229.8 2961.49,-229.8 2958.49,-225.8 2892.51,-225.8 2892.51,-189.8 2985.49,-189.8 2985.49,-225.8"/>
<text text-anchor="middle" x="2939" y="-203.6" font-family="Times,serif" font-size="14.00">EmailModule</text>
</g>
<!-- EmailModule&#45;&gt;EmailConfirmationModule -->
<g id="edge32" class="edge">
<title>EmailModule&#45;&gt;EmailConfirmationModule</title>
<path fill="none" stroke="black" d="M2935.02,-225.81C2935.02,-225.81 2935.02,-255.65 2935.02,-255.65"/>
<polygon fill="black" stroke="black" points="2931.52,-255.65 2935.02,-265.65 2938.52,-255.65 2931.52,-255.65"/>
</g>
<!-- EmailSchedulingModule -->
<g id="node9" class="node">
<title>EmailSchedulingModule</title>
<polygon fill="#8dd3c7" stroke="black" points="3251.98,-301.8 3248.98,-305.8 3227.98,-305.8 3224.98,-301.8 3096.02,-301.8 3096.02,-265.8 3251.98,-265.8 3251.98,-301.8"/>
<text text-anchor="middle" x="3174" y="-279.6" font-family="Times,serif" font-size="14.00">EmailSchedulingModule</text>
</g>
<!-- EmailModule&#45;&gt;EmailSchedulingModule -->
<g id="edge38" class="edge">
<title>EmailModule&#45;&gt;EmailSchedulingModule</title>
<path fill="none" stroke="black" d="M2960.26,-225.85C2960.26,-240.17 2960.26,-257.8 2960.26,-257.8 2960.26,-257.8 3172.84,-257.8 3172.84,-257.8 3172.84,-257.8 3172.84,-258.59 3172.84,-258.59"/>
<polygon fill="black" stroke="black" points="3169.34,-255.74 3172.84,-265.74 3176.34,-255.74 3169.34,-255.74"/>
</g>
<!-- EmailModule&#45;&gt;AppModule -->
<g id="edge8" class="edge">
<title>EmailModule&#45;&gt;AppModule</title>
<path fill="none" stroke="black" d="M2901.15,-226.05C2901.15,-277.8 2901.15,-421.8 2901.15,-421.8 2901.15,-421.8 3439.05,-421.8 3439.05,-421.8"/>
<polygon fill="black" stroke="black" points="3439.05,-425.3 3449.05,-421.8 3439.05,-418.3 3439.05,-425.3"/>
</g>
<!-- EmailService  -->
<g id="node33" class="node">
<title>EmailService </title>
<polygon fill="#fb8072" stroke="black" points="268.41,-301.8 173.59,-301.8 173.59,-265.8 268.41,-265.8 268.41,-301.8"/>
<text text-anchor="middle" x="221" y="-279.6" font-family="Times,serif" font-size="14.00">EmailService </text>
</g>
<!-- EmailModule&#45;&gt;EmailService  -->
<g id="edge36" class="edge">
<title>EmailModule&#45;&gt;EmailService </title>
<path fill="none" stroke="black" stroke-dasharray="5,2" d="M2892.4,-213.8C2533.35,-213.8 221,-213.8 221,-213.8 221,-213.8 221,-255.77 221,-255.77"/>
<polygon fill="black" stroke="black" points="217.5,-255.77 221,-265.77 224.5,-255.77 217.5,-255.77"/>
</g>
<!-- EmailSchedulingModule&#45;&gt;AppModule -->
<g id="edge9" class="edge">
<title>EmailSchedulingModule&#45;&gt;AppModule</title>
<path fill="none" stroke="black" d="M3252.18,-289.8C3339.9,-289.8 3470.08,-289.8 3470.08,-289.8 3470.08,-289.8 3470.08,-396.59 3470.08,-396.59"/>
<polygon fill="black" stroke="black" points="3466.58,-396.59 3470.08,-406.59 3473.58,-396.59 3466.58,-396.59"/>
</g>
<!-- FilesModule -->
<g id="node10" class="node">
<title>FilesModule</title>
<polygon fill="#8dd3c7" stroke="black" points="3296.28,-160.8 3293.28,-164.8 3272.28,-164.8 3269.28,-160.8 3209.72,-160.8 3209.72,-124.8 3296.28,-124.8 3296.28,-160.8"/>
<text text-anchor="middle" x="3253" y="-138.6" font-family="Times,serif" font-size="14.00">FilesModule</text>
</g>
<!-- FilesModule&#45;&gt;UsersModule -->
<g id="edge53" class="edge">
<title>FilesModule&#45;&gt;UsersModule</title>
<path fill="none" stroke="black" d="M3230.8,-160.91C3230.8,-180.14 3230.8,-207.8 3230.8,-207.8 3230.8,-207.8 3104.88,-207.8 3104.88,-207.8"/>
<polygon fill="black" stroke="black" points="3104.88,-204.3 3094.88,-207.8 3104.88,-211.3 3104.88,-204.3"/>
</g>
<!-- FilesModule&#45;&gt;AppModule -->
<g id="edge10" class="edge">
<title>FilesModule&#45;&gt;AppModule</title>
<path fill="none" stroke="black" d="M3285.29,-160.93C3285.29,-221.47 3285.29,-412.8 3285.29,-412.8 3285.29,-412.8 3438.88,-412.8 3438.88,-412.8"/>
<polygon fill="black" stroke="black" points="3438.88,-416.3 3448.88,-412.8 3438.88,-409.3 3438.88,-416.3"/>
</g>
<!-- FilesService  -->
<g id="node36" class="node">
<title>FilesService </title>
<polygon fill="#fb8072" stroke="black" points="4187.21,-225.8 4098.79,-225.8 4098.79,-189.8 4187.21,-189.8 4187.21,-225.8"/>
<text text-anchor="middle" x="4143" y="-203.6" font-family="Times,serif" font-size="14.00">FilesService </text>
</g>
<!-- FilesModule&#45;&gt;FilesService  -->
<g id="edge40" class="edge">
<title>FilesModule&#45;&gt;FilesService </title>
<path fill="none" stroke="black" stroke-dasharray="5,2" d="M3263.09,-160.97C3263.09,-163.25 3263.09,-164.8 3263.09,-164.8 3263.09,-164.8 4143,-164.8 4143,-164.8 4143,-164.8 4143,-179.31 4143,-179.31"/>
<polygon fill="black" stroke="black" points="4139.5,-179.31 4143,-189.31 4146.5,-179.31 4139.5,-179.31"/>
</g>
<!-- GoogleAuthenticationModule&#45;&gt;AppModule -->
<g id="edge11" class="edge">
<title>GoogleAuthenticationModule&#45;&gt;AppModule</title>
<path fill="none" stroke="black" d="M2421.15,-439.8C2421.15,-439.8 3439.21,-439.8 3439.21,-439.8"/>
<polygon fill="black" stroke="black" points="3439.21,-443.3 3449.21,-439.8 3439.21,-436.3 3439.21,-443.3"/>
</g>
<!-- HealthModule -->
<g id="node12" class="node">
<title>HealthModule</title>
<polygon fill="#8dd3c7" stroke="black" points="3036.37,-160.8 3033.37,-164.8 3012.37,-164.8 3009.37,-160.8 2939.63,-160.8 2939.63,-124.8 3036.37,-124.8 3036.37,-160.8"/>
<text text-anchor="middle" x="2988" y="-138.6" font-family="Times,serif" font-size="14.00">HealthModule</text>
</g>
<!-- HealthModule&#45;&gt;AppModule -->
<g id="edge12" class="edge">
<title>HealthModule&#45;&gt;AppModule</title>
<path fill="none" stroke="black" d="M3019.86,-160.87C3019.86,-170.26 3019.86,-179.8 3019.86,-179.8 3019.86,-179.8 3501.46,-179.8 3501.46,-179.8 3501.46,-179.8 3501.46,-396.78 3501.46,-396.78"/>
<polygon fill="black" stroke="black" points="3497.96,-396.78 3501.46,-406.78 3504.96,-396.78 3497.96,-396.78"/>
</g>
<!-- LocalFilesModule -->
<g id="node13" class="node">
<title>LocalFilesModule</title>
<polygon fill="#8dd3c7" stroke="black" points="3433.15,-160.8 3430.15,-164.8 3409.15,-164.8 3406.15,-160.8 3314.85,-160.8 3314.85,-124.8 3433.15,-124.8 3433.15,-160.8"/>
<text text-anchor="middle" x="3374" y="-138.6" font-family="Times,serif" font-size="14.00">LocalFilesModule</text>
</g>
<!-- LocalFilesModule&#45;&gt;UsersModule -->
<g id="edge54" class="edge">
<title>LocalFilesModule&#45;&gt;UsersModule</title>
<path fill="none" stroke="black" d="M3374,-161.09C3374,-183.01 3374,-216.8 3374,-216.8 3374,-216.8 3104.88,-216.8 3104.88,-216.8"/>
<polygon fill="black" stroke="black" points="3104.88,-213.3 3094.88,-216.8 3104.88,-220.3 3104.88,-213.3"/>
</g>
<!-- LocalFilesModule&#45;&gt;AppModule -->
<g id="edge13" class="edge">
<title>LocalFilesModule&#45;&gt;AppModule</title>
<path fill="none" stroke="black" d="M3433.49,-151.8C3474.77,-151.8 3522.37,-151.8 3522.37,-151.8 3522.37,-151.8 3522.37,-396.46 3522.37,-396.46"/>
<polygon fill="black" stroke="black" points="3518.87,-396.46 3522.37,-406.46 3525.87,-396.46 3518.87,-396.46"/>
</g>
<!-- LocalFilesService  -->
<g id="node39" class="node">
<title>LocalFilesService </title>
<polygon fill="#fb8072" stroke="black" points="4533.08,-225.8 4412.92,-225.8 4412.92,-189.8 4533.08,-189.8 4533.08,-225.8"/>
<text text-anchor="middle" x="4473" y="-203.6" font-family="Times,serif" font-size="14.00">LocalFilesService </text>
</g>
<!-- LocalFilesModule&#45;&gt;LocalFilesService  -->
<g id="edge45" class="edge">
<title>LocalFilesModule&#45;&gt;LocalFilesService </title>
<path fill="none" stroke="black" stroke-dasharray="5,2" d="M3433.48,-133.8C3662.28,-133.8 4473,-133.8 4473,-133.8 4473,-133.8 4473,-179.51 4473,-179.51"/>
<polygon fill="black" stroke="black" points="4469.5,-179.51 4473,-189.51 4476.5,-179.51 4469.5,-179.51"/>
</g>
<!-- LoggerModule -->
<g id="node14" class="node">
<title>LoggerModule</title>
<polygon fill="#8dd3c7" stroke="black" points="2126.98,-160.8 2123.98,-164.8 2102.98,-164.8 2099.98,-160.8 2027.02,-160.8 2027.02,-124.8 2126.98,-124.8 2126.98,-160.8"/>
<text text-anchor="middle" x="2077" y="-138.6" font-family="Times,serif" font-size="14.00">LoggerModule</text>
</g>
<!-- LoggerModule&#45;&gt;AppModule -->
<g id="edge14" class="edge">
<title>LoggerModule&#45;&gt;AppModule</title>
<path fill="none" stroke="black" d="M2038.12,-160.95C2038.12,-173.07 2038.12,-186.8 2038.12,-186.8 2038.12,-186.8 3480.54,-186.8 3480.54,-186.8 3480.54,-186.8 3480.54,-396.52 3480.54,-396.52"/>
<polygon fill="black" stroke="black" points="3477.04,-396.52 3480.54,-406.52 3484.04,-396.52 3477.04,-396.52"/>
</g>
<!-- CustomLogger  -->
<g id="node41" class="node">
<title>CustomLogger </title>
<polygon fill="#fb8072" stroke="black" points="2044.99,-84.8 1941.01,-84.8 1941.01,-48.8 2044.99,-48.8 2044.99,-84.8"/>
<text text-anchor="middle" x="1993" y="-62.6" font-family="Times,serif" font-size="14.00">CustomLogger </text>
</g>
<!-- LoggerModule&#45;&gt;CustomLogger  -->
<g id="edge47" class="edge">
<title>LoggerModule&#45;&gt;CustomLogger </title>
<path fill="none" stroke="black" stroke-dasharray="5,2" d="M2035.88,-124.79C2035.88,-124.79 2035.88,-94.95 2035.88,-94.95"/>
<polygon fill="black" stroke="black" points="2039.38,-94.95 2035.88,-84.95 2032.38,-94.95 2039.38,-94.95"/>
</g>
<!-- PostsModule -->
<g id="node15" class="node">
<title>PostsModule</title>
<polygon fill="#8dd3c7" stroke="black" points="2665.62,-160.8 2662.62,-164.8 2641.62,-164.8 2638.62,-160.8 2576.38,-160.8 2576.38,-124.8 2665.62,-124.8 2665.62,-160.8"/>
<text text-anchor="middle" x="2621" y="-138.6" font-family="Times,serif" font-size="14.00">PostsModule</text>
</g>
<!-- PostsModule&#45;&gt;AppModule -->
<g id="edge15" class="edge">
<title>PostsModule&#45;&gt;AppModule</title>
<path fill="none" stroke="black" d="M2621,-160.82C2621,-223.87 2621,-430.8 2621,-430.8 2621,-430.8 3439.33,-430.8 3439.33,-430.8"/>
<polygon fill="black" stroke="black" points="3439.33,-434.3 3449.33,-430.8 3439.33,-427.3 3439.33,-434.3"/>
</g>
<!-- ProductsModule -->
<g id="node16" class="node">
<title>ProductsModule</title>
<polygon fill="#8dd3c7" stroke="black" points="2792.05,-160.8 2789.05,-164.8 2768.05,-164.8 2765.05,-160.8 2683.95,-160.8 2683.95,-124.8 2792.05,-124.8 2792.05,-160.8"/>
<text text-anchor="middle" x="2738" y="-138.6" font-family="Times,serif" font-size="14.00">ProductsModule</text>
</g>
<!-- ProductsModule&#45;&gt;AppModule -->
<g id="edge16" class="edge">
<title>ProductsModule&#45;&gt;AppModule</title>
<path fill="none" stroke="black" d="M2738,-161.06C2738,-223.96 2738,-427.8 2738,-427.8 2738,-427.8 3439.17,-427.8 3439.17,-427.8"/>
<polygon fill="black" stroke="black" points="3439.17,-431.3 3449.17,-427.8 3439.17,-424.3 3439.17,-431.3"/>
</g>
<!-- UsersModule&#45;&gt;AuthenticationModule -->
<g id="edge19" class="edge">
<title>UsersModule&#45;&gt;AuthenticationModule</title>
<path fill="none" stroke="black" d="M3082.34,-226.07C3082.34,-264.43 3082.34,-349.8 3082.34,-349.8 3082.34,-349.8 2179.58,-349.8 2179.58,-349.8"/>
<polygon fill="black" stroke="black" points="2179.58,-346.3 2169.58,-349.8 2179.58,-353.3 2179.58,-346.3"/>
</g>
<!-- UsersModule&#45;&gt;EmailConfirmationModule -->
<g id="edge33" class="edge">
<title>UsersModule&#45;&gt;EmailConfirmationModule</title>
<path fill="none" stroke="black" d="M3059.48,-225.81C3059.48,-225.81 3059.48,-255.65 3059.48,-255.65"/>
<polygon fill="black" stroke="black" points="3055.98,-255.65 3059.48,-265.65 3062.98,-255.65 3055.98,-255.65"/>
</g>
<!-- UsersModule&#45;&gt;GoogleAuthenticationModule -->
<g id="edge43" class="edge">
<title>UsersModule&#45;&gt;GoogleAuthenticationModule</title>
<path fill="none" stroke="black" d="M3086.46,-226.08C3086.46,-275.81 3086.46,-409.8 3086.46,-409.8 3086.46,-409.8 2431.12,-409.8 2431.12,-409.8"/>
<polygon fill="black" stroke="black" points="2431.12,-406.3 2421.12,-409.8 2431.12,-413.3 2431.12,-406.3"/>
</g>
<!-- UsersModule&#45;&gt;AppModule -->
<g id="edge17" class="edge">
<title>UsersModule&#45;&gt;AppModule</title>
<path fill="none" stroke="black" d="M3090.59,-225.89C3090.59,-276.5 3090.59,-415.8 3090.59,-415.8 3090.59,-415.8 3439.28,-415.8 3439.28,-415.8"/>
<polygon fill="black" stroke="black" points="3439.28,-419.3 3449.28,-415.8 3439.28,-412.3 3439.28,-419.3"/>
</g>
<!-- UsersService  -->
<g id="node46" class="node">
<title>UsersService </title>
<polygon fill="#fb8072" stroke="black" points="549.86,-301.8 456.14,-301.8 456.14,-265.8 549.86,-265.8 549.86,-301.8"/>
<text text-anchor="middle" x="503" y="-279.6" font-family="Times,serif" font-size="14.00">UsersService </text>
</g>
<!-- UsersModule&#45;&gt;UsersService  -->
<g id="edge55" class="edge">
<title>UsersModule&#45;&gt;UsersService </title>
<path fill="none" stroke="black" stroke-dasharray="5,2" d="M3040.75,-225.99C3040.75,-234.08 3040.75,-241.8 3040.75,-241.8 3040.75,-241.8 503,-241.8 503,-241.8 503,-241.8 503,-255.74 503,-255.74"/>
<polygon fill="black" stroke="black" points="499.5,-255.74 503,-265.74 506.5,-255.74 499.5,-255.74"/>
</g>
<!-- AuthenticationService -->
<g id="node20" class="node">
<title>AuthenticationService</title>
<ellipse fill="#fdb462" stroke="black" cx="1276" cy="-283.8" rx="97.27" ry="18"/>
<text text-anchor="middle" x="1276" y="-279.6" font-family="Times,serif" font-size="14.00">AuthenticationService</text>
</g>
<!-- AuthenticationService&#45;&gt;AuthenticationModule -->
<g id="edge21" class="edge">
<title>AuthenticationService&#45;&gt;AuthenticationModule</title>
<path fill="none" stroke="black" d="M1276,-301.8C1276,-310.8 1276,-319.8 1276,-319.8 1276,-319.8 2082.55,-319.8 2082.55,-319.8 2082.55,-319.8 2082.55,-331.67 2082.55,-331.67"/>
<polygon fill="black" stroke="black" points="2079.05,-331.67 2082.55,-341.67 2086.05,-331.67 2079.05,-331.67"/>
</g>
<!-- JwtRefreshTokenStrategy -->
<g id="node21" class="node">
<title>JwtRefreshTokenStrategy</title>
<ellipse fill="#fdb462" stroke="black" cx="1049" cy="-283.8" rx="111.17" ry="18"/>
<text text-anchor="middle" x="1049" y="-279.6" font-family="Times,serif" font-size="14.00">JwtRefreshTokenStrategy</text>
</g>
<!-- JwtRefreshTokenStrategy&#45;&gt;AuthenticationModule -->
<g id="edge22" class="edge">
<title>JwtRefreshTokenStrategy&#45;&gt;AuthenticationModule</title>
<path fill="none" stroke="black" d="M1049,-301.9C1049,-312.89 1049,-324.8 1049,-324.8 1049,-324.8 2071.45,-324.8 2071.45,-324.8 2071.45,-324.8 2071.45,-331.48 2071.45,-331.48"/>
<polygon fill="black" stroke="black" points="2067.95,-331.48 2071.45,-341.48 2074.95,-331.48 2067.95,-331.48"/>
</g>
<!-- JwtStrategy -->
<g id="node22" class="node">
<title>JwtStrategy</title>
<ellipse fill="#fdb462" stroke="black" cx="863" cy="-283.8" rx="56.77" ry="18"/>
<text text-anchor="middle" x="863" y="-279.6" font-family="Times,serif" font-size="14.00">JwtStrategy</text>
</g>
<!-- JwtStrategy&#45;&gt;AuthenticationModule -->
<g id="edge23" class="edge">
<title>JwtStrategy&#45;&gt;AuthenticationModule</title>
<path fill="none" stroke="black" d="M863,-301.84C863,-315.09 863,-330.8 863,-330.8 863,-330.8 2060.34,-330.8 2060.34,-330.8 2060.34,-330.8 2060.34,-331.88 2060.34,-331.88"/>
<polygon fill="black" stroke="black" points="2056.84,-331.6 2060.34,-341.6 2063.84,-331.6 2056.84,-331.6"/>
</g>
<!-- JwtTwoFactorStrategy -->
<g id="node23" class="node">
<title>JwtTwoFactorStrategy</title>
<ellipse fill="#fdb462" stroke="black" cx="689" cy="-283.8" rx="99.01" ry="18"/>
<text text-anchor="middle" x="689" y="-279.6" font-family="Times,serif" font-size="14.00">JwtTwoFactorStrategy</text>
</g>
<!-- JwtTwoFactorStrategy&#45;&gt;AuthenticationModule -->
<g id="edge24" class="edge">
<title>JwtTwoFactorStrategy&#45;&gt;AuthenticationModule</title>
<path fill="none" stroke="black" d="M689,-302.04C689,-317.37 689,-336.8 689,-336.8 689,-336.8 2049.23,-336.8 2049.23,-336.8 2049.23,-336.8 2049.23,-337.29 2049.23,-337.29"/>
<polygon fill="black" stroke="black" points="2045.73,-331.68 2049.23,-341.68 2052.73,-331.68 2045.73,-331.68"/>
</g>
<!-- LocalStrategy -->
<g id="node24" class="node">
<title>LocalStrategy</title>
<ellipse fill="#fdb462" stroke="black" cx="1754" cy="-283.8" rx="65.4" ry="18"/>
<text text-anchor="middle" x="1754" y="-279.6" font-family="Times,serif" font-size="14.00">LocalStrategy</text>
</g>
<!-- LocalStrategy&#45;&gt;AuthenticationModule -->
<g id="edge25" class="edge">
<title>LocalStrategy&#45;&gt;AuthenticationModule</title>
<path fill="none" stroke="black" d="M1777.19,-300.9C1777.19,-307.64 1777.19,-313.8 1777.19,-313.8 1777.19,-313.8 2093.66,-313.8 2093.66,-313.8 2093.66,-313.8 2093.66,-331.62 2093.66,-331.62"/>
<polygon fill="black" stroke="black" points="2090.16,-331.62 2093.66,-341.62 2097.16,-331.62 2090.16,-331.62"/>
</g>
<!-- TwoFactorAuthenticationService -->
<g id="node25" class="node">
<title>TwoFactorAuthenticationService</title>
<ellipse fill="#fdb462" stroke="black" cx="1531" cy="-283.8" rx="139.51" ry="18"/>
<text text-anchor="middle" x="1531" y="-279.6" font-family="Times,serif" font-size="14.00">TwoFactorAuthenticationService</text>
</g>
<!-- TwoFactorAuthenticationService&#45;&gt;AuthenticationModule -->
<g id="edge26" class="edge">
<title>TwoFactorAuthenticationService&#45;&gt;AuthenticationModule</title>
<path fill="none" stroke="black" d="M1656.72,-275.91C1656.72,-265.87 1656.72,-249.8 1656.72,-249.8 1656.72,-249.8 2115.88,-249.8 2115.88,-249.8 2115.88,-249.8 2115.88,-331.64 2115.88,-331.64"/>
<polygon fill="black" stroke="black" points="2112.38,-331.64 2115.88,-341.64 2119.38,-331.64 2112.38,-331.64"/>
</g>
<!-- AuthorizationService -->
<g id="node26" class="node">
<title>AuthorizationService</title>
<ellipse fill="#fdb462" stroke="black" cx="2179" cy="-66.8" rx="93.76" ry="18"/>
<text text-anchor="middle" x="2179" y="-62.6" font-family="Times,serif" font-size="14.00">AuthorizationService</text>
</g>
<!-- AuthorizationService&#45;&gt;AuthorizationModule -->
<g id="edge27" class="edge">
<title>AuthorizationService&#45;&gt;AuthorizationModule</title>
<path fill="none" stroke="black" d="M2208.99,-84.05C2208.99,-84.05 2208.99,-114.56 2208.99,-114.56"/>
<polygon fill="black" stroke="black" points="2205.49,-114.56 2208.99,-124.56 2212.49,-114.56 2205.49,-114.56"/>
</g>
<!-- CategoriesService -->
<g id="node27" class="node">
<title>CategoriesService</title>
<ellipse fill="#fdb462" stroke="black" cx="2394" cy="-66.8" rx="81.08" ry="18"/>
<text text-anchor="middle" x="2394" y="-62.6" font-family="Times,serif" font-size="14.00">CategoriesService</text>
</g>
<!-- CategoriesService&#45;&gt;CategoriesModule -->
<g id="edge28" class="edge">
<title>CategoriesService&#45;&gt;CategoriesModule</title>
<path fill="none" stroke="black" d="M2366.21,-84.05C2366.21,-84.05 2366.21,-114.56 2366.21,-114.56"/>
<polygon fill="black" stroke="black" points="2362.71,-114.56 2366.21,-124.56 2369.71,-114.56 2362.71,-114.56"/>
</g>
<!-- CommentsService -->
<g id="node28" class="node">
<title>CommentsService</title>
<ellipse fill="#fdb462" stroke="black" cx="2597" cy="-66.8" rx="81.68" ry="18"/>
<text text-anchor="middle" x="2597" y="-62.6" font-family="Times,serif" font-size="14.00">CommentsService</text>
</g>
<!-- CommentsService&#45;&gt;CommentsModule -->
<g id="edge29" class="edge">
<title>CommentsService&#45;&gt;CommentsModule</title>
<path fill="none" stroke="black" d="M2536.63,-79.01C2536.63,-79.01 2536.63,-114.66 2536.63,-114.66"/>
<polygon fill="black" stroke="black" points="2533.13,-114.66 2536.63,-124.66 2540.13,-114.66 2533.13,-114.66"/>
</g>
<!-- DatabaseFilesService -->
<g id="node30" class="node">
<title>DatabaseFilesService</title>
<ellipse fill="#fdb462" stroke="black" cx="3659" cy="-207.8" rx="94.33" ry="18"/>
<text text-anchor="middle" x="3659" y="-203.6" font-family="Times,serif" font-size="14.00">DatabaseFilesService</text>
</g>
<!-- DatabaseFilesService&#45;&gt;DatabaseFilesModule -->
<g id="edge31" class="edge">
<title>DatabaseFilesService&#45;&gt;DatabaseFilesModule</title>
<path fill="none" stroke="black" d="M3577.24,-198.8C3434.21,-198.8 3153.63,-198.8 3153.63,-198.8 3153.63,-198.8 3153.63,-170.83 3153.63,-170.83"/>
<polygon fill="black" stroke="black" points="3157.13,-170.83 3153.63,-160.83 3150.13,-170.83 3157.13,-170.83"/>
</g>
<!-- EmailConfirmationService -->
<g id="node32" class="node">
<title>EmailConfirmationService</title>
<ellipse fill="#fdb462" stroke="black" cx="3680" cy="-359.8" rx="115.18" ry="18"/>
<text text-anchor="middle" x="3680" y="-355.6" font-family="Times,serif" font-size="14.00">EmailConfirmationService</text>
</g>
<!-- EmailConfirmationService&#45;&gt;EmailConfirmationModule -->
<g id="edge35" class="edge">
<title>EmailConfirmationService&#45;&gt;EmailConfirmationModule</title>
<path fill="none" stroke="black" d="M3566.37,-356.8C3381.52,-356.8 3036.11,-356.8 3036.11,-356.8 3036.11,-356.8 3036.11,-311.84 3036.11,-311.84"/>
<polygon fill="black" stroke="black" points="3039.61,-311.84 3036.11,-301.84 3032.61,-311.84 3039.61,-311.84"/>
</g>
<!-- EmailService -->
<g id="node34" class="node">
<title>EmailService</title>
<ellipse fill="#fdb462" stroke="black" cx="87" cy="-283.8" rx="63.11" ry="18"/>
<text text-anchor="middle" x="87" y="-279.6" font-family="Times,serif" font-size="14.00">EmailService</text>
</g>
<!-- EmailService&#45;&gt;EmailModule -->
<g id="edge37" class="edge">
<title>EmailService&#45;&gt;EmailModule</title>
<path fill="none" stroke="black" d="M87,-265.6C87,-241.44 87,-201.8 87,-201.8 87,-201.8 2882.46,-201.8 2882.46,-201.8"/>
<polygon fill="black" stroke="black" points="2882.46,-205.3 2892.46,-201.8 2882.46,-198.3 2882.46,-205.3"/>
</g>
<!-- EmailSchedulingService -->
<g id="node35" class="node">
<title>EmailSchedulingService</title>
<ellipse fill="#fdb462" stroke="black" cx="4680" cy="-207.8" rx="106.51" ry="18"/>
<text text-anchor="middle" x="4680" y="-203.6" font-family="Times,serif" font-size="14.00">EmailSchedulingService</text>
</g>
<!-- EmailSchedulingService&#45;&gt;EmailSchedulingModule -->
<g id="edge39" class="edge">
<title>EmailSchedulingService&#45;&gt;EmailSchedulingModule</title>
<path fill="none" stroke="black" d="M4680,-225.83C4680,-246.57 4680,-277.8 4680,-277.8 4680,-277.8 3262.06,-277.8 3262.06,-277.8"/>
<polygon fill="black" stroke="black" points="3262.06,-274.3 3252.06,-277.8 3262.06,-281.3 3262.06,-274.3"/>
</g>
<!-- FilesService -->
<g id="node37" class="node">
<title>FilesService</title>
<ellipse fill="#fdb462" stroke="black" cx="4016" cy="-207.8" rx="58.55" ry="18"/>
<text text-anchor="middle" x="4016" y="-203.6" font-family="Times,serif" font-size="14.00">FilesService</text>
</g>
<!-- FilesService&#45;&gt;FilesModule -->
<g id="edge41" class="edge">
<title>FilesService&#45;&gt;FilesModule</title>
<path fill="none" stroke="black" d="M4016,-189.67C4016,-179.49 4016,-168.8 4016,-168.8 4016,-168.8 3274.19,-168.8 3274.19,-168.8 3274.19,-168.8 3274.19,-168.01 3274.19,-168.01"/>
<polygon fill="black" stroke="black" points="3277.69,-170.86 3274.19,-160.86 3270.69,-170.86 3277.69,-170.86"/>
</g>
<!-- GoogleAuthenticationService -->
<g id="node38" class="node">
<title>GoogleAuthenticationService</title>
<ellipse fill="#fdb462" stroke="black" cx="1861" cy="-359.8" rx="125.62" ry="18"/>
<text text-anchor="middle" x="1861" y="-355.6" font-family="Times,serif" font-size="14.00">GoogleAuthenticationService</text>
</g>
<!-- GoogleAuthenticationService&#45;&gt;GoogleAuthenticationModule -->
<g id="edge44" class="edge">
<title>GoogleAuthenticationService&#45;&gt;GoogleAuthenticationModule</title>
<path fill="none" stroke="black" d="M1861,-377.91C1861,-397.14 1861,-424.8 1861,-424.8 1861,-424.8 2226.82,-424.8 2226.82,-424.8"/>
<polygon fill="black" stroke="black" points="2226.82,-428.3 2236.82,-424.8 2226.82,-421.3 2226.82,-428.3"/>
</g>
<!-- LocalFilesService -->
<g id="node40" class="node">
<title>LocalFilesService</title>
<ellipse fill="#fdb462" stroke="black" cx="4308" cy="-207.8" rx="80.51" ry="18"/>
<text text-anchor="middle" x="4308" y="-203.6" font-family="Times,serif" font-size="14.00">LocalFilesService</text>
</g>
<!-- LocalFilesService&#45;&gt;LocalFilesModule -->
<g id="edge46" class="edge">
<title>LocalFilesService&#45;&gt;LocalFilesModule</title>
<path fill="none" stroke="black" d="M4308,-189.69C4308,-170.46 4308,-142.8 4308,-142.8 4308,-142.8 3443.49,-142.8 3443.49,-142.8"/>
<polygon fill="black" stroke="black" points="3443.49,-139.3 3433.49,-142.8 3443.49,-146.3 3443.49,-139.3"/>
</g>
<!-- CustomLogger -->
<g id="node42" class="node">
<title>CustomLogger</title>
<ellipse fill="#fdb462" stroke="black" cx="1848" cy="-66.8" rx="68.95" ry="18"/>
<text text-anchor="middle" x="1848" y="-62.6" font-family="Times,serif" font-size="14.00">CustomLogger</text>
</g>
<!-- CustomLogger&#45;&gt;LoggerModule -->
<g id="edge48" class="edge">
<title>CustomLogger&#45;&gt;LoggerModule</title>
<path fill="none" stroke="black" d="M1879.82,-83.04C1879.82,-103.71 1879.82,-136.8 1879.82,-136.8 1879.82,-136.8 2016.99,-136.8 2016.99,-136.8"/>
<polygon fill="black" stroke="black" points="2016.99,-140.3 2026.99,-136.8 2016.99,-133.3 2016.99,-140.3"/>
</g>
<!-- LogsService -->
<g id="node43" class="node">
<title>LogsService</title>
<ellipse fill="#fdb462" stroke="black" cx="1702" cy="-66.8" rx="59.11" ry="18"/>
<text text-anchor="middle" x="1702" y="-62.6" font-family="Times,serif" font-size="14.00">LogsService</text>
</g>
<!-- LogsService&#45;&gt;LoggerModule -->
<g id="edge49" class="edge">
<title>LogsService&#45;&gt;LoggerModule</title>
<path fill="none" stroke="black" d="M1725.05,-83.39C1725.05,-107.35 1725.05,-148.8 1725.05,-148.8 1725.05,-148.8 2016.95,-148.8 2016.95,-148.8"/>
<polygon fill="black" stroke="black" points="2016.95,-152.3 2026.95,-148.8 2016.95,-145.3 2016.95,-152.3"/>
</g>
<!-- PostsService -->
<g id="node44" class="node">
<title>PostsService</title>
<ellipse fill="#fdb462" stroke="black" cx="2779" cy="-66.8" rx="60.28" ry="18"/>
<text text-anchor="middle" x="2779" y="-62.6" font-family="Times,serif" font-size="14.00">PostsService</text>
</g>
<!-- PostsService&#45;&gt;PostsModule -->
<g id="edge50" class="edge">
<title>PostsService&#45;&gt;PostsModule</title>
<path fill="none" stroke="black" d="M2743.16,-81.3C2743.16,-89.77 2743.16,-98.8 2743.16,-98.8 2743.16,-98.8 2621,-98.8 2621,-98.8 2621,-98.8 2621,-114.65 2621,-114.65"/>
<polygon fill="black" stroke="black" points="2617.5,-114.65 2621,-124.65 2624.5,-114.65 2617.5,-114.65"/>
</g>
<!-- ProductsService -->
<g id="node45" class="node">
<title>ProductsService</title>
<ellipse fill="#fdb462" stroke="black" cx="2953" cy="-66.8" rx="73.59" ry="18"/>
<text text-anchor="middle" x="2953" y="-62.6" font-family="Times,serif" font-size="14.00">ProductsService</text>
</g>
<!-- ProductsService&#45;&gt;ProductsModule -->
<g id="edge51" class="edge">
<title>ProductsService&#45;&gt;ProductsModule</title>
<path fill="none" stroke="black" d="M2900.32,-79.57C2900.32,-92.88 2900.32,-111.8 2900.32,-111.8 2900.32,-111.8 2767.72,-111.8 2767.72,-111.8 2767.72,-111.8 2767.72,-114.77 2767.72,-114.77"/>
<polygon fill="black" stroke="black" points="2764.22,-114.77 2767.72,-124.77 2771.22,-114.77 2764.22,-114.77"/>
</g>
<!-- UsersService -->
<g id="node47" class="node">
<title>UsersService</title>
<ellipse fill="#fdb462" stroke="black" cx="370" cy="-283.8" rx="61.97" ry="18"/>
<text text-anchor="middle" x="370" y="-279.6" font-family="Times,serif" font-size="14.00">UsersService</text>
</g>
<!-- UsersService&#45;&gt;UsersModule -->
<g id="edge56" class="edge">
<title>UsersService&#45;&gt;UsersModule</title>
<path fill="none" stroke="black" d="M370,-265.75C370,-251.43 370,-233.8 370,-233.8 370,-233.8 3022.01,-233.8 3022.01,-233.8 3022.01,-233.8 3022.01,-233.01 3022.01,-233.01"/>
<polygon fill="black" stroke="black" points="3025.51,-235.86 3022.01,-225.86 3018.51,-235.86 3025.51,-235.86"/>
</g>
</g>
</svg>
