<?xml version="1.0" encoding="UTF-8" standalone="no"?>
<!DOCTYPE svg PUBLIC "-//W3C//DTD SVG 1.1//EN"
 "http://www.w3.org/Graphics/SVG/1.1/DTD/svg11.dtd">
<!-- Generated by graphviz version 3.0.0 (20220226.1711)
 -->
<!-- Title: dependencies Pages: 1 -->
<svg width="4957pt" height="486pt"
 viewBox="0.00 0.00 4957.00 485.80" xmlns="http://www.w3.org/2000/svg" xmlns:xlink="http://www.w3.org/1999/xlink">
<g id="graph0" class="graph" transform="scale(1 1) rotate(0) translate(4 481.8)">
<title>dependencies</title>
<polygon fill="white" stroke="transparent" points="-4,4 -4,-481.8 4953,-481.8 4953,4 -4,4"/>
<text text-anchor="middle" x="2474.5" y="-8.2" font-family="sans-serif" font-size="14.00">dependencies</text>
<g id="clust1" class="cluster">
<title>cluster_AppModule</title>
<polygon fill="none" stroke="black" stroke-dasharray="1,5" points="2011,-108.8 2011,-469.8 3679,-469.8 3679,-108.8 2011,-108.8"/>
</g>
<g id="clust3" class="cluster">
<title>cluster_AppModule_imports</title>
<polygon fill="none" stroke="black" points="2019,-116.8 2019,-461.8 3579,-461.8 3579,-116.8 2019,-116.8"/>
</g>
<g id="clust7" class="cluster">
<title>cluster_AuthenticationModule</title>
<polygon fill="none" stroke="black" stroke-dasharray="1,5" points="574,-260.8 574,-328.8 2003,-328.8 2003,-260.8 574,-260.8"/>
</g>
<g id="clust10" class="cluster">
<title>cluster_AuthenticationModule_exports</title>
<polygon fill="none" stroke="black" points="1835,-268.8 1835,-320.8 1995,-320.8 1995,-268.8 1835,-268.8"/>
</g>
<g id="clust12" class="cluster">
<title>cluster_AuthenticationModule_providers</title>
<polygon fill="none" stroke="black" points="582,-268.8 582,-320.8 1827,-320.8 1827,-268.8 582,-268.8"/>
</g>
<g id="clust13" class="cluster">
<title>cluster_AuthorizationModule</title>
<polygon fill="none" stroke="black" stroke-dasharray="1,5" points="2244,-32.8 2244,-100.8 2464,-100.8 2464,-32.8 2244,-32.8"/>
</g>
<g id="clust18" class="cluster">
<title>cluster_AuthorizationModule_providers</title>
<polygon fill="none" stroke="black" points="2252,-40.8 2252,-92.8 2456,-92.8 2456,-40.8 2252,-40.8"/>
</g>
<g id="clust19" class="cluster">
<title>cluster_CategoriesModule</title>
<polygon fill="none" stroke="black" stroke-dasharray="1,5" points="2472,-32.8 2472,-100.8 2666,-100.8 2666,-32.8 2472,-32.8"/>
</g>
<g id="clust24" class="cluster">
<title>cluster_CategoriesModule_providers</title>
<polygon fill="none" stroke="black" points="2480,-40.8 2480,-92.8 2658,-92.8 2658,-40.8 2480,-40.8"/>
</g>
<g id="clust25" class="cluster">
<title>cluster_CommentsModule</title>
<polygon fill="none" stroke="black" stroke-dasharray="1,5" points="2674,-32.8 2674,-100.8 2870,-100.8 2870,-32.8 2674,-32.8"/>
</g>
<g id="clust30" class="cluster">
<title>cluster_CommentsModule_providers</title>
<polygon fill="none" stroke="black" points="2682,-40.8 2682,-92.8 2862,-92.8 2862,-40.8 2682,-40.8"/>
</g>
<g id="clust31" class="cluster">
<title>cluster_DatabaseFilesModule</title>
<polygon fill="none" stroke="black" stroke-dasharray="1,5" points="3687,-184.8 3687,-252.8 4071,-252.8 4071,-184.8 3687,-184.8"/>
</g>
<g id="clust34" class="cluster">
<title>cluster_DatabaseFilesModule_exports</title>
<polygon fill="none" stroke="black" points="3907,-192.8 3907,-244.8 4063,-244.8 4063,-192.8 3907,-192.8"/>
</g>
<g id="clust36" class="cluster">
<title>cluster_DatabaseFilesModule_providers</title>
<polygon fill="none" stroke="black" points="3695,-192.8 3695,-244.8 3899,-244.8 3899,-192.8 3695,-192.8"/>
</g>
<g id="clust43" class="cluster">
<title>cluster_EmailConfirmationModule</title>
<polygon fill="none" stroke="black" stroke-dasharray="1,5" points="3687,-336.8 3687,-404.8 4143,-404.8 4143,-336.8 3687,-336.8"/>
</g>
<g id="clust46" class="cluster">
<title>cluster_EmailConfirmationModule_exports</title>
<polygon fill="none" stroke="black" points="3949,-344.8 3949,-396.8 4135,-396.8 4135,-344.8 3949,-344.8"/>
</g>
<g id="clust48" class="cluster">
<title>cluster_EmailConfirmationModule_providers</title>
<polygon fill="none" stroke="black" points="3695,-344.8 3695,-396.8 3941,-396.8 3941,-344.8 3695,-344.8"/>
</g>
<g id="clust49" class="cluster">
<title>cluster_EmailModule</title>
<polygon fill="none" stroke="black" stroke-dasharray="1,5" points="8,-260.8 8,-328.8 284,-328.8 284,-260.8 8,-260.8"/>
</g>
<g id="clust52" class="cluster">
<title>cluster_EmailModule_exports</title>
<polygon fill="none" stroke="black" points="166,-268.8 166,-320.8 276,-320.8 276,-268.8 166,-268.8"/>
</g>
<g id="clust54" class="cluster">
<title>cluster_EmailModule_providers</title>
<polygon fill="none" stroke="black" points="16,-268.8 16,-320.8 158,-320.8 158,-268.8 16,-268.8"/>
</g>
<g id="clust55" class="cluster">
<title>cluster_EmailSchedulingModule</title>
<polygon fill="none" stroke="black" stroke-dasharray="1,5" points="4695,-184.8 4695,-252.8 4941,-252.8 4941,-184.8 4695,-184.8"/>
</g>
<g id="clust60" class="cluster">
<title>cluster_EmailSchedulingModule_providers</title>
<polygon fill="none" stroke="black" points="4703,-192.8 4703,-244.8 4933,-244.8 4933,-192.8 4703,-192.8"/>
</g>
<g id="clust61" class="cluster">
<title>cluster_FilesModule</title>
<polygon fill="none" stroke="black" stroke-dasharray="1,5" points="4079,-184.8 4079,-252.8 4341,-252.8 4341,-184.8 4079,-184.8"/>
</g>
<g id="clust64" class="cluster">
<title>cluster_FilesModule_exports</title>
<polygon fill="none" stroke="black" points="4229,-192.8 4229,-244.8 4333,-244.8 4333,-192.8 4229,-192.8"/>
</g>
<g id="clust66" class="cluster">
<title>cluster_FilesModule_providers</title>
<polygon fill="none" stroke="black" points="4087,-192.8 4087,-244.8 4221,-244.8 4221,-192.8 4087,-192.8"/>
</g>
<g id="clust67" class="cluster">
<title>cluster_GoogleAuthenticationModule</title>
<polygon fill="none" stroke="black" stroke-dasharray="1,5" points="1719,-336.8 1719,-404.8 2003,-404.8 2003,-336.8 1719,-336.8"/>
</g>
<g id="clust72" class="cluster">
<title>cluster_GoogleAuthenticationModule_providers</title>
<polygon fill="none" stroke="black" points="1727,-344.8 1727,-396.8 1995,-396.8 1995,-344.8 1727,-344.8"/>
</g>
<g id="clust79" class="cluster">
<title>cluster_LocalFilesModule</title>
<polygon fill="none" stroke="black" stroke-dasharray="1,5" points="4349,-184.8 4349,-252.8 4687,-252.8 4687,-184.8 4349,-184.8"/>
</g>
<g id="clust82" class="cluster">
<title>cluster_LocalFilesModule_exports</title>
<polygon fill="none" stroke="black" points="4543,-192.8 4543,-244.8 4679,-244.8 4679,-192.8 4543,-192.8"/>
</g>
<g id="clust84" class="cluster">
<title>cluster_LocalFilesModule_providers</title>
<polygon fill="none" stroke="black" points="4357,-192.8 4357,-244.8 4535,-244.8 4535,-192.8 4357,-192.8"/>
</g>
<g id="clust85" class="cluster">
<title>cluster_LoggerModule</title>
<polygon fill="none" stroke="black" stroke-dasharray="1,5" points="1802,-32.8 1802,-100.8 2236,-100.8 2236,-32.8 1802,-32.8"/>
</g>
<g id="clust88" class="cluster">
<title>cluster_LoggerModule_exports</title>
<polygon fill="none" stroke="black" points="2108,-40.8 2108,-92.8 2228,-92.8 2228,-40.8 2108,-40.8"/>
</g>
<g id="clust90" class="cluster">
<title>cluster_LoggerModule_providers</title>
<polygon fill="none" stroke="black" points="1810,-40.8 1810,-92.8 2100,-92.8 2100,-40.8 1810,-40.8"/>
</g>
<g id="clust97" class="cluster">
<title>cluster_PostsModule</title>
<polygon fill="none" stroke="black" stroke-dasharray="1,5" points="1659,-108.8 1659,-176.8 2003,-176.8 2003,-108.8 1659,-108.8"/>
</g>
<g id="clust102" class="cluster">
<title>cluster_PostsModule_providers</title>
<polygon fill="none" stroke="black" points="1667,-116.8 1667,-168.8 1995,-168.8 1995,-116.8 1667,-116.8"/>
</g>
<g id="clust103" class="cluster">
<title>cluster_ProductsModule</title>
<polygon fill="none" stroke="black" stroke-dasharray="1,5" points="3030,-32.8 3030,-100.8 3210,-100.8 3210,-32.8 3030,-32.8"/>
</g>
<g id="clust108" class="cluster">
<title>cluster_ProductsModule_providers</title>
<polygon fill="none" stroke="black" points="3038,-40.8 3038,-92.8 3202,-92.8 3202,-40.8 3038,-40.8"/>
</g>
<g id="clust115" class="cluster">
<title>cluster_UsersModule</title>
<polygon fill="none" stroke="black" stroke-dasharray="1,5" points="292,-260.8 292,-328.8 566,-328.8 566,-260.8 292,-260.8"/>
</g>
<g id="clust118" class="cluster">
<title>cluster_UsersModule_exports</title>
<polygon fill="none" stroke="black" points="448,-268.8 448,-320.8 558,-320.8 558,-268.8 448,-268.8"/>
</g>
<g id="clust120" class="cluster">
<title>cluster_UsersModule_providers</title>
<polygon fill="none" stroke="black" points="300,-268.8 300,-320.8 440,-320.8 440,-268.8 300,-268.8"/>
</g>
<!-- AuthenticationModule -->
<g id="node1" class="node">
<title>AuthenticationModule</title>
<polygon fill="#8dd3c7" stroke="black" points="2169.25,-388.8 2166.25,-392.8 2145.25,-392.8 2142.25,-388.8 2026.75,-388.8 2026.75,-352.8 2169.25,-352.8 2169.25,-388.8"/>
<text text-anchor="middle" x="2098" y="-366.6" font-family="Times,serif" font-size="14.00">AuthenticationModule</text>
</g>
<!-- GoogleAuthenticationModule -->
<g id="node11" class="node">
<title>GoogleAuthenticationModule</title>
<polygon fill="#8dd3c7" stroke="black" points="2439.97,-453.8 2436.97,-457.8 2415.97,-457.8 2412.97,-453.8 2256.03,-453.8 2256.03,-417.8 2439.97,-417.8 2439.97,-453.8"/>
<text text-anchor="middle" x="2348" y="-431.6" font-family="Times,serif" font-size="14.00">GoogleAuthenticationModule</text>
</g>
<!-- AuthenticationModule&#45;&gt;GoogleAuthenticationModule -->
<g id="edge44" class="edge">
<title>AuthenticationModule&#45;&gt;GoogleAuthenticationModule</title>
<path fill="none" stroke="black" d="M2098,-388.82C2098,-406.17 2098,-429.8 2098,-429.8 2098,-429.8 2245.97,-429.8 2245.97,-429.8"/>
<polygon fill="black" stroke="black" points="2245.97,-433.3 2255.97,-429.8 2245.97,-426.3 2245.97,-433.3"/>
</g>
<!-- AppModule -->
<g id="node20" class="node">
<title>AppModule</title>
<polygon fill="#8dd3c7" stroke="black" points="3670.66,-453.8 3667.66,-457.8 3646.66,-457.8 3643.66,-453.8 3587.34,-453.8 3587.34,-417.8 3670.66,-417.8 3670.66,-453.8"/>
<text text-anchor="middle" x="3629" y="-431.6" font-family="Times,serif" font-size="14.00">AppModule</text>
</g>
<!-- AuthenticationModule&#45;&gt;AppModule -->
<g id="edge1" class="edge">
<title>AuthenticationModule&#45;&gt;AppModule</title>
<path fill="none" stroke="black" d="M2169.27,-379.8C2467.06,-379.8 3596.46,-379.8 3596.46,-379.8 3596.46,-379.8 3596.46,-407.77 3596.46,-407.77"/>
<polygon fill="black" stroke="black" points="3592.96,-407.77 3596.46,-417.77 3599.96,-407.77 3592.96,-407.77"/>
</g>
<!-- AuthenticationService  -->
<g id="node21" class="node">
<title>AuthenticationService </title>
<polygon fill="#fb8072" stroke="black" points="1987.18,-312.8 1842.82,-312.8 1842.82,-276.8 1987.18,-276.8 1987.18,-312.8"/>
<text text-anchor="middle" x="1915" y="-290.6" font-family="Times,serif" font-size="14.00">AuthenticationService </text>
</g>
<!-- AuthenticationModule&#45;&gt;AuthenticationService  -->
<g id="edge22" class="edge">
<title>AuthenticationModule&#45;&gt;AuthenticationService </title>
<path fill="none" stroke="black" stroke-dasharray="5,2" d="M2102.61,-352.49C2102.61,-332.65 2102.61,-303.8 2102.61,-303.8 2102.61,-303.8 1997.27,-303.8 1997.27,-303.8"/>
<polygon fill="black" stroke="black" points="1997.27,-300.3 1987.27,-303.8 1997.27,-307.3 1997.27,-300.3"/>
</g>
<!-- AuthorizationModule -->
<g id="node2" class="node">
<title>AuthorizationModule</title>
<polygon fill="#8dd3c7" stroke="black" points="2398.81,-160.8 2395.81,-164.8 2374.81,-164.8 2371.81,-160.8 2261.19,-160.8 2261.19,-124.8 2398.81,-124.8 2398.81,-160.8"/>
<text text-anchor="middle" x="2330" y="-138.6" font-family="Times,serif" font-size="14.00">AuthorizationModule</text>
</g>
<!-- AuthorizationModule&#45;&gt;AppModule -->
<g id="edge2" class="edge">
<title>AuthorizationModule&#45;&gt;AppModule</title>
<path fill="none" stroke="black" d="M2330,-161.22C2330,-170.08 2330,-178.8 2330,-178.8 2330,-178.8 3652.24,-178.8 3652.24,-178.8 3652.24,-178.8 3652.24,-407.73 3652.24,-407.73"/>
<polygon fill="black" stroke="black" points="3648.74,-407.73 3652.24,-417.73 3655.74,-407.73 3648.74,-407.73"/>
</g>
<!-- CategoriesModule -->
<g id="node3" class="node">
<title>CategoriesModule</title>
<polygon fill="#8dd3c7" stroke="black" points="2535.92,-160.8 2532.92,-164.8 2511.92,-164.8 2508.92,-160.8 2416.08,-160.8 2416.08,-124.8 2535.92,-124.8 2535.92,-160.8"/>
<text text-anchor="middle" x="2476" y="-138.6" font-family="Times,serif" font-size="14.00">CategoriesModule</text>
</g>
<!-- CategoriesModule&#45;&gt;AppModule -->
<g id="edge3" class="edge">
<title>CategoriesModule&#45;&gt;AppModule</title>
<path fill="none" stroke="black" d="M2503.8,-161.24C2503.8,-226.81 2503.8,-444.8 2503.8,-444.8 2503.8,-444.8 3577.28,-444.8 3577.28,-444.8"/>
<polygon fill="black" stroke="black" points="3577.28,-448.3 3587.28,-444.8 3577.28,-441.3 3577.28,-448.3"/>
</g>
<!-- CommentsModule -->
<g id="node4" class="node">
<title>CommentsModule</title>
<polygon fill="#8dd3c7" stroke="black" points="2674.22,-160.8 2671.22,-164.8 2650.22,-164.8 2647.22,-160.8 2553.78,-160.8 2553.78,-124.8 2674.22,-124.8 2674.22,-160.8"/>
<text text-anchor="middle" x="2614" y="-138.6" font-family="Times,serif" font-size="14.00">CommentsModule</text>
</g>
<!-- CommentsModule&#45;&gt;AppModule -->
<g id="edge4" class="edge">
<title>CommentsModule&#45;&gt;AppModule</title>
<path fill="none" stroke="black" d="M2614,-161.05C2614,-225.97 2614,-441.8 2614,-441.8 2614,-441.8 3577.32,-441.8 3577.32,-441.8"/>
<polygon fill="black" stroke="black" points="3577.32,-445.3 3587.32,-441.8 3577.32,-438.3 3577.32,-445.3"/>
</g>
<!-- DatabaseFilesModule -->
<g id="node5" class="node">
<title>DatabaseFilesModule</title>
<polygon fill="#8dd3c7" stroke="black" points="3330.08,-160.8 3327.08,-164.8 3306.08,-164.8 3303.08,-160.8 3191.92,-160.8 3191.92,-124.8 3330.08,-124.8 3330.08,-160.8"/>
<text text-anchor="middle" x="3261" y="-138.6" font-family="Times,serif" font-size="14.00">DatabaseFilesModule</text>
</g>
<!-- UsersModule -->
<g id="node19" class="node">
<title>UsersModule</title>
<polygon fill="#8dd3c7" stroke="black" points="3127.94,-236.8 3124.94,-240.8 3103.94,-240.8 3100.94,-236.8 3036.06,-236.8 3036.06,-200.8 3127.94,-200.8 3127.94,-236.8"/>
<text text-anchor="middle" x="3082" y="-214.6" font-family="Times,serif" font-size="14.00">UsersModule</text>
</g>
<!-- DatabaseFilesModule&#45;&gt;UsersModule -->
<g id="edge56" class="edge">
<title>DatabaseFilesModule&#45;&gt;UsersModule</title>
<path fill="none" stroke="black" d="M3261,-160.83C3261,-181.57 3261,-212.8 3261,-212.8 3261,-212.8 3138.1,-212.8 3138.1,-212.8"/>
<polygon fill="black" stroke="black" points="3138.1,-209.3 3128.1,-212.8 3138.1,-216.3 3138.1,-209.3"/>
</g>
<!-- DatabaseFilesModule&#45;&gt;AppModule -->
<g id="edge5" class="edge">
<title>DatabaseFilesModule&#45;&gt;AppModule</title>
<path fill="none" stroke="black" d="M3330.13,-142.8C3338.3,-142.8 3343.8,-142.8 3343.8,-142.8 3343.8,-142.8 3343.8,-423.8 3343.8,-423.8 3343.8,-423.8 3577.22,-423.8 3577.22,-423.8"/>
<polygon fill="black" stroke="black" points="3577.22,-427.3 3587.22,-423.8 3577.22,-420.3 3577.22,-427.3"/>
</g>
<!-- DatabaseFilesService  -->
<g id="node31" class="node">
<title>DatabaseFilesService </title>
<polygon fill="#fb8072" stroke="black" points="4055.01,-236.8 3914.99,-236.8 3914.99,-200.8 4055.01,-200.8 4055.01,-236.8"/>
<text text-anchor="middle" x="3985" y="-214.6" font-family="Times,serif" font-size="14.00">DatabaseFilesService </text>
</g>
<!-- DatabaseFilesModule&#45;&gt;DatabaseFilesService  -->
<g id="edge32" class="edge">
<title>DatabaseFilesModule&#45;&gt;DatabaseFilesService </title>
<path fill="none" stroke="black" stroke-dasharray="5,2" d="M3226.48,-161.04C3226.48,-168.23 3226.48,-174.8 3226.48,-174.8 3226.48,-174.8 3985,-174.8 3985,-174.8 3985,-174.8 3985,-190.65 3985,-190.65"/>
<polygon fill="black" stroke="black" points="3981.5,-190.65 3985,-200.65 3988.5,-190.65 3981.5,-190.65"/>
</g>
<!-- DatabaseModule -->
<g id="node6" class="node">
<title>DatabaseModule</title>
<polygon fill="#8dd3c7" stroke="black" points="2803.36,-160.8 2800.36,-164.8 2779.36,-164.8 2776.36,-160.8 2692.64,-160.8 2692.64,-124.8 2803.36,-124.8 2803.36,-160.8"/>
<text text-anchor="middle" x="2748" y="-138.6" font-family="Times,serif" font-size="14.00">DatabaseModule</text>
</g>
<!-- DatabaseModule&#45;&gt;AppModule -->
<g id="edge6" class="edge">
<title>DatabaseModule&#45;&gt;AppModule</title>
<path fill="none" stroke="black" d="M2748,-160.87C2748,-225.14 2748,-438.8 2748,-438.8 2748,-438.8 3577.1,-438.8 3577.1,-438.8"/>
<polygon fill="black" stroke="black" points="3577.1,-442.3 3587.1,-438.8 3577.1,-435.3 3577.1,-442.3"/>
</g>
<!-- EmailConfirmationModule -->
<g id="node7" class="node">
<title>EmailConfirmationModule</title>
<polygon fill="#8dd3c7" stroke="black" points="3166.42,-312.8 3163.42,-316.8 3142.42,-316.8 3139.42,-312.8 2997.58,-312.8 2997.58,-276.8 3166.42,-276.8 3166.42,-312.8"/>
<text text-anchor="middle" x="3082" y="-290.6" font-family="Times,serif" font-size="14.00">EmailConfirmationModule</text>
</g>
<!-- EmailConfirmationModule&#45;&gt;AuthenticationModule -->
<g id="edge20" class="edge">
<title>EmailConfirmationModule&#45;&gt;AuthenticationModule</title>
<path fill="none" stroke="black" d="M2997.54,-294.8C2768.64,-294.8 2153.41,-294.8 2153.41,-294.8 2153.41,-294.8 2153.41,-342.79 2153.41,-342.79"/>
<polygon fill="black" stroke="black" points="2149.91,-342.79 2153.41,-352.79 2156.91,-342.79 2149.91,-342.79"/>
</g>
<!-- EmailConfirmationModule&#45;&gt;AppModule -->
<g id="edge7" class="edge">
<title>EmailConfirmationModule&#45;&gt;AppModule</title>
<path fill="none" stroke="black" d="M3082,-313.01C3082,-349.86 3082,-429.8 3082,-429.8 3082,-429.8 3576.99,-429.8 3576.99,-429.8"/>
<polygon fill="black" stroke="black" points="3576.99,-433.3 3586.99,-429.8 3576.99,-426.3 3576.99,-433.3"/>
</g>
<!-- EmailConfirmationService  -->
<g id="node33" class="node">
<title>EmailConfirmationService </title>
<polygon fill="#fb8072" stroke="black" points="4127.35,-388.8 3956.65,-388.8 3956.65,-352.8 4127.35,-352.8 4127.35,-388.8"/>
<text text-anchor="middle" x="4042" y="-366.6" font-family="Times,serif" font-size="14.00">EmailConfirmationService </text>
</g>
<!-- EmailConfirmationModule&#45;&gt;EmailConfirmationService  -->
<g id="edge36" class="edge">
<title>EmailConfirmationModule&#45;&gt;EmailConfirmationService </title>
<path fill="none" stroke="black" stroke-dasharray="5,2" d="M3039.89,-312.92C3039.89,-315.77 3039.89,-317.8 3039.89,-317.8 3039.89,-317.8 4005.92,-317.8 4005.92,-317.8 4005.92,-317.8 4005.92,-342.56 4005.92,-342.56"/>
<polygon fill="black" stroke="black" points="4002.42,-342.56 4005.92,-352.56 4009.42,-342.56 4002.42,-342.56"/>
</g>
<!-- EmailModule -->
<g id="node8" class="node">
<title>EmailModule</title>
<polygon fill="#8dd3c7" stroke="black" points="2119.49,-236.8 2116.49,-240.8 2095.49,-240.8 2092.49,-236.8 2026.51,-236.8 2026.51,-200.8 2119.49,-200.8 2119.49,-236.8"/>
<text text-anchor="middle" x="2073" y="-214.6" font-family="Times,serif" font-size="14.00">EmailModule</text>
</g>
<!-- EmailModule&#45;&gt;EmailConfirmationModule -->
<g id="edge34" class="edge">
<title>EmailModule&#45;&gt;EmailConfirmationModule</title>
<path fill="none" stroke="black" d="M2111.05,-237.11C2111.05,-256.95 2111.05,-285.8 2111.05,-285.8 2111.05,-285.8 2987.53,-285.8 2987.53,-285.8"/>
<polygon fill="black" stroke="black" points="2987.53,-289.3 2997.53,-285.8 2987.53,-282.3 2987.53,-289.3"/>
</g>
<!-- EmailSchedulingModule -->
<g id="node9" class="node">
<title>EmailSchedulingModule</title>
<polygon fill="#8dd3c7" stroke="black" points="3339.98,-312.8 3336.98,-316.8 3315.98,-316.8 3312.98,-312.8 3184.02,-312.8 3184.02,-276.8 3339.98,-276.8 3339.98,-312.8"/>
<text text-anchor="middle" x="3262" y="-290.6" font-family="Times,serif" font-size="14.00">EmailSchedulingModule</text>
</g>
<!-- EmailModule&#45;&gt;EmailSchedulingModule -->
<g id="edge40" class="edge">
<title>EmailModule&#45;&gt;EmailSchedulingModule</title>
<path fill="none" stroke="black" d="M2043.51,-236.85C2043.51,-251.17 2043.51,-268.8 2043.51,-268.8 2043.51,-268.8 3187.98,-268.8 3187.98,-268.8 3187.98,-268.8 3187.98,-269.59 3187.98,-269.59"/>
<polygon fill="black" stroke="black" points="3184.48,-266.74 3187.98,-276.74 3191.48,-266.74 3184.48,-266.74"/>
</g>
<!-- EmailModule&#45;&gt;AppModule -->
<g id="edge8" class="edge">
<title>EmailModule&#45;&gt;AppModule</title>
<path fill="none" stroke="black" d="M2051.95,-236.86C2051.95,-248.24 2051.95,-260.8 2051.95,-260.8 2051.95,-260.8 3615.06,-260.8 3615.06,-260.8 3615.06,-260.8 3615.06,-407.73 3615.06,-407.73"/>
<polygon fill="black" stroke="black" points="3611.56,-407.73 3615.06,-417.73 3618.56,-407.73 3611.56,-407.73"/>
</g>
<!-- EmailService  -->
<g id="node35" class="node">
<title>EmailService </title>
<polygon fill="#fb8072" stroke="black" points="268.41,-312.8 173.59,-312.8 173.59,-276.8 268.41,-276.8 268.41,-312.8"/>
<text text-anchor="middle" x="221" y="-290.6" font-family="Times,serif" font-size="14.00">EmailService </text>
</g>
<!-- EmailModule&#45;&gt;EmailService  -->
<g id="edge38" class="edge">
<title>EmailModule&#45;&gt;EmailService </title>
<path fill="none" stroke="black" stroke-dasharray="5,2" d="M2026.29,-224.8C1738.75,-224.8 221,-224.8 221,-224.8 221,-224.8 221,-266.77 221,-266.77"/>
<polygon fill="black" stroke="black" points="217.5,-266.77 221,-276.77 224.5,-266.77 217.5,-266.77"/>
</g>
<!-- EmailSchedulingModule&#45;&gt;AppModule -->
<g id="edge9" class="edge">
<title>EmailSchedulingModule&#45;&gt;AppModule</title>
<path fill="none" stroke="black" d="M3340,-300.8C3441.43,-300.8 3605.76,-300.8 3605.76,-300.8 3605.76,-300.8 3605.76,-407.59 3605.76,-407.59"/>
<polygon fill="black" stroke="black" points="3602.26,-407.59 3605.76,-417.59 3609.26,-407.59 3602.26,-407.59"/>
</g>
<!-- FilesModule -->
<g id="node10" class="node">
<title>FilesModule</title>
<polygon fill="#8dd3c7" stroke="black" points="3434.28,-160.8 3431.28,-164.8 3410.28,-164.8 3407.28,-160.8 3347.72,-160.8 3347.72,-124.8 3434.28,-124.8 3434.28,-160.8"/>
<text text-anchor="middle" x="3391" y="-138.6" font-family="Times,serif" font-size="14.00">FilesModule</text>
</g>
<!-- FilesModule&#45;&gt;UsersModule -->
<g id="edge57" class="edge">
<title>FilesModule&#45;&gt;UsersModule</title>
<path fill="none" stroke="black" d="M3399.68,-160.81C3399.68,-183.29 3399.68,-218.8 3399.68,-218.8 3399.68,-218.8 3137.85,-218.8 3137.85,-218.8"/>
<polygon fill="black" stroke="black" points="3137.85,-215.3 3127.85,-218.8 3137.85,-222.3 3137.85,-215.3"/>
</g>
<!-- FilesModule&#45;&gt;AppModule -->
<g id="edge10" class="edge">
<title>FilesModule&#45;&gt;AppModule</title>
<path fill="none" stroke="black" d="M3417.03,-161.04C3417.03,-222.89 3417.03,-420.8 3417.03,-420.8 3417.03,-420.8 3577.12,-420.8 3577.12,-420.8"/>
<polygon fill="black" stroke="black" points="3577.12,-424.3 3587.12,-420.8 3577.12,-417.3 3577.12,-424.3"/>
</g>
<!-- FilesService  -->
<g id="node38" class="node">
<title>FilesService </title>
<polygon fill="#fb8072" stroke="black" points="4325.21,-236.8 4236.79,-236.8 4236.79,-200.8 4325.21,-200.8 4325.21,-236.8"/>
<text text-anchor="middle" x="4281" y="-214.6" font-family="Times,serif" font-size="14.00">FilesService </text>
</g>
<!-- FilesModule&#45;&gt;FilesService  -->
<g id="edge42" class="edge">
<title>FilesModule&#45;&gt;FilesService </title>
<path fill="none" stroke="black" stroke-dasharray="5,2" d="M3364.97,-160.92C3364.97,-163.77 3364.97,-165.8 3364.97,-165.8 3364.97,-165.8 4281,-165.8 4281,-165.8 4281,-165.8 4281,-190.56 4281,-190.56"/>
<polygon fill="black" stroke="black" points="4277.5,-190.56 4281,-200.56 4284.5,-190.56 4277.5,-190.56"/>
</g>
<!-- GoogleAuthenticationModule&#45;&gt;AppModule -->
<g id="edge11" class="edge">
<title>GoogleAuthenticationModule&#45;&gt;AppModule</title>
<path fill="none" stroke="black" d="M2440.13,-450.8C2440.13,-450.8 3577.28,-450.8 3577.28,-450.8"/>
<polygon fill="black" stroke="black" points="3577.28,-454.3 3587.28,-450.8 3577.28,-447.3 3577.28,-454.3"/>
</g>
<!-- HealthModule -->
<g id="node12" class="node">
<title>HealthModule</title>
<polygon fill="#8dd3c7" stroke="black" points="2918.37,-160.8 2915.37,-164.8 2894.37,-164.8 2891.37,-160.8 2821.63,-160.8 2821.63,-124.8 2918.37,-124.8 2918.37,-160.8"/>
<text text-anchor="middle" x="2870" y="-138.6" font-family="Times,serif" font-size="14.00">HealthModule</text>
</g>
<!-- HealthModule&#45;&gt;AppModule -->
<g id="edge12" class="edge">
<title>HealthModule&#45;&gt;AppModule</title>
<path fill="none" stroke="black" d="M2870,-161.13C2870,-225.27 2870,-435.8 2870,-435.8 2870,-435.8 3577.11,-435.8 3577.11,-435.8"/>
<polygon fill="black" stroke="black" points="3577.11,-439.3 3587.11,-435.8 3577.11,-432.3 3577.11,-439.3"/>
</g>
<!-- LocalFilesModule -->
<g id="node13" class="node">
<title>LocalFilesModule</title>
<polygon fill="#8dd3c7" stroke="black" points="3571.15,-160.8 3568.15,-164.8 3547.15,-164.8 3544.15,-160.8 3452.85,-160.8 3452.85,-124.8 3571.15,-124.8 3571.15,-160.8"/>
<text text-anchor="middle" x="3512" y="-138.6" font-family="Times,serif" font-size="14.00">LocalFilesModule</text>
</g>
<!-- LocalFilesModule&#45;&gt;UsersModule -->
<g id="edge58" class="edge">
<title>LocalFilesModule&#45;&gt;UsersModule</title>
<path fill="none" stroke="black" d="M3512,-161C3512,-185.16 3512,-224.8 3512,-224.8 3512,-224.8 3138.02,-224.8 3138.02,-224.8"/>
<polygon fill="black" stroke="black" points="3138.02,-221.3 3128.02,-224.8 3138.02,-228.3 3138.02,-221.3"/>
</g>
<!-- LocalFilesModule&#45;&gt;AppModule -->
<g id="edge13" class="edge">
<title>LocalFilesModule&#45;&gt;AppModule</title>
<path fill="none" stroke="black" d="M3571.53,-151.8C3613.23,-151.8 3661.54,-151.8 3661.54,-151.8 3661.54,-151.8 3661.54,-407.6 3661.54,-407.6"/>
<polygon fill="black" stroke="black" points="3658.04,-407.6 3661.54,-417.6 3665.04,-407.6 3658.04,-407.6"/>
</g>
<!-- LocalFilesService  -->
<g id="node41" class="node">
<title>LocalFilesService </title>
<polygon fill="#fb8072" stroke="black" points="4671.08,-236.8 4550.92,-236.8 4550.92,-200.8 4671.08,-200.8 4671.08,-236.8"/>
<text text-anchor="middle" x="4611" y="-214.6" font-family="Times,serif" font-size="14.00">LocalFilesService </text>
</g>
<!-- LocalFilesModule&#45;&gt;LocalFilesService  -->
<g id="edge47" class="edge">
<title>LocalFilesModule&#45;&gt;LocalFilesService </title>
<path fill="none" stroke="black" stroke-dasharray="5,2" d="M3571.48,-133.8C3800.28,-133.8 4611,-133.8 4611,-133.8 4611,-133.8 4611,-190.77 4611,-190.77"/>
<polygon fill="black" stroke="black" points="4607.5,-190.77 4611,-200.77 4614.5,-190.77 4607.5,-190.77"/>
</g>
<!-- LoggerModule -->
<g id="node14" class="node">
<title>LoggerModule</title>
<polygon fill="#8dd3c7" stroke="black" points="2242.98,-160.8 2239.98,-164.8 2218.98,-164.8 2215.98,-160.8 2143.02,-160.8 2143.02,-124.8 2242.98,-124.8 2242.98,-160.8"/>
<text text-anchor="middle" x="2193" y="-138.6" font-family="Times,serif" font-size="14.00">LoggerModule</text>
</g>
<!-- LoggerModule&#45;&gt;AppModule -->
<g id="edge14" class="edge">
<title>LoggerModule&#45;&gt;AppModule</title>
<path fill="none" stroke="black" d="M2234.78,-160.9C2234.78,-171.89 2234.78,-183.8 2234.78,-183.8 2234.78,-183.8 3642.94,-183.8 3642.94,-183.8 3642.94,-183.8 3642.94,-407.68 3642.94,-407.68"/>
<polygon fill="black" stroke="black" points="3639.44,-407.68 3642.94,-417.68 3646.44,-407.68 3639.44,-407.68"/>
</g>
<!-- CustomLogger  -->
<g id="node43" class="node">
<title>CustomLogger </title>
<polygon fill="#fb8072" stroke="black" points="2219.99,-84.8 2116.01,-84.8 2116.01,-48.8 2219.99,-48.8 2219.99,-84.8"/>
<text text-anchor="middle" x="2168" y="-62.6" font-family="Times,serif" font-size="14.00">CustomLogger </text>
</g>
<!-- LoggerModule&#45;&gt;CustomLogger  -->
<g id="edge49" class="edge">
<title>LoggerModule&#45;&gt;CustomLogger </title>
<path fill="none" stroke="black" stroke-dasharray="5,2" d="M2200.56,-124.79C2200.56,-124.79 2200.56,-94.95 2200.56,-94.95"/>
<polygon fill="black" stroke="black" points="2204.06,-94.95 2200.56,-84.95 2197.06,-94.95 2204.06,-94.95"/>
</g>
<!-- OptimizeModule -->
<g id="node15" class="node">
<title>OptimizeModule</title>
<polygon fill="#8dd3c7" stroke="black" points="3047.65,-160.8 3044.65,-164.8 3023.65,-164.8 3020.65,-160.8 2936.35,-160.8 2936.35,-124.8 3047.65,-124.8 3047.65,-160.8"/>
<text text-anchor="middle" x="2992" y="-138.6" font-family="Times,serif" font-size="14.00">OptimizeModule</text>
</g>
<!-- OptimizeModule&#45;&gt;AppModule -->
<g id="edge15" class="edge">
<title>OptimizeModule&#45;&gt;AppModule</title>
<path fill="none" stroke="black" d="M2977.25,-160.94C2977.25,-224.43 2977.25,-432.8 2977.25,-432.8 2977.25,-432.8 3577.24,-432.8 3577.24,-432.8"/>
<polygon fill="black" stroke="black" points="3577.24,-436.3 3587.24,-432.8 3577.24,-429.3 3577.24,-436.3"/>
</g>
<!-- PostsModule -->
<g id="node16" class="node">
<title>PostsModule</title>
<polygon fill="#8dd3c7" stroke="black" points="2226.62,-236.8 2223.62,-240.8 2202.62,-240.8 2199.62,-236.8 2137.38,-236.8 2137.38,-200.8 2226.62,-200.8 2226.62,-236.8"/>
<text text-anchor="middle" x="2182" y="-214.6" font-family="Times,serif" font-size="14.00">PostsModule</text>
</g>
<!-- PostsModule&#45;&gt;AppModule -->
<g id="edge16" class="edge">
<title>PostsModule&#45;&gt;AppModule</title>
<path fill="none" stroke="black" d="M2226.66,-209.8C2307.98,-209.8 2471.89,-209.8 2471.89,-209.8 2471.89,-209.8 2471.89,-447.8 2471.89,-447.8 2471.89,-447.8 3577.13,-447.8 3577.13,-447.8"/>
<polygon fill="black" stroke="black" points="3577.13,-451.3 3587.13,-447.8 3577.13,-444.3 3577.13,-451.3"/>
</g>
<!-- ProductsModule -->
<g id="node17" class="node">
<title>ProductsModule</title>
<polygon fill="#8dd3c7" stroke="black" points="3174.05,-160.8 3171.05,-164.8 3150.05,-164.8 3147.05,-160.8 3065.95,-160.8 3065.95,-124.8 3174.05,-124.8 3174.05,-160.8"/>
<text text-anchor="middle" x="3120" y="-138.6" font-family="Times,serif" font-size="14.00">ProductsModule</text>
</g>
<!-- ProductsModule&#45;&gt;AppModule -->
<g id="edge17" class="edge">
<title>ProductsModule&#45;&gt;AppModule</title>
<path fill="none" stroke="black" d="M3170.24,-161C3170.24,-223.68 3170.24,-426.8 3170.24,-426.8 3170.24,-426.8 3577.07,-426.8 3577.07,-426.8"/>
<polygon fill="black" stroke="black" points="3577.07,-430.3 3587.07,-426.8 3577.07,-423.3 3577.07,-430.3"/>
</g>
<!-- SearchModule -->
<g id="node18" class="node">
<title>SearchModule</title>
<polygon fill="#8dd3c7" stroke="black" points="2124.64,-160.8 2121.64,-164.8 2100.64,-164.8 2097.64,-160.8 2027.36,-160.8 2027.36,-124.8 2124.64,-124.8 2124.64,-160.8"/>
<text text-anchor="middle" x="2076" y="-138.6" font-family="Times,serif" font-size="14.00">SearchModule</text>
</g>
<!-- SearchModule&#45;&gt;PostsModule -->
<g id="edge52" class="edge">
<title>SearchModule&#45;&gt;PostsModule</title>
<path fill="none" stroke="black" d="M2124.81,-142.8C2128.68,-142.8 2131.13,-142.8 2131.13,-142.8 2131.13,-142.8 2131.13,-218.8 2131.13,-218.8 2131.13,-218.8 2131.75,-218.8 2131.75,-218.8"/>
<polygon fill="black" stroke="black" points="2127.37,-222.3 2137.37,-218.8 2127.37,-215.3 2127.37,-222.3"/>
</g>
<!-- SearchModule&#45;&gt;AppModule -->
<g id="edge18" class="edge">
<title>SearchModule&#45;&gt;AppModule</title>
<path fill="none" stroke="black" d="M2073.34,-160.84C2073.34,-173.36 2073.34,-187.8 2073.34,-187.8 2073.34,-187.8 3633.65,-187.8 3633.65,-187.8 3633.65,-187.8 3633.65,-407.56 3633.65,-407.56"/>
<polygon fill="black" stroke="black" points="3630.15,-407.56 3633.65,-417.56 3637.15,-407.56 3630.15,-407.56"/>
</g>
<!-- UsersModule&#45;&gt;AuthenticationModule -->
<g id="edge21" class="edge">
<title>UsersModule&#45;&gt;AuthenticationModule</title>
<path fill="none" stroke="black" d="M3036.06,-227.8C3000.3,-227.8 2956.71,-227.8 2956.71,-227.8 2956.71,-227.8 2956.71,-361.8 2956.71,-361.8 2956.71,-361.8 2179.37,-361.8 2179.37,-361.8"/>
<polygon fill="black" stroke="black" points="2179.37,-358.3 2169.37,-361.8 2179.37,-365.3 2179.37,-358.3"/>
</g>
<!-- UsersModule&#45;&gt;EmailConfirmationModule -->
<g id="edge35" class="edge">
<title>UsersModule&#45;&gt;EmailConfirmationModule</title>
<path fill="none" stroke="black" d="M3104.86,-236.81C3104.86,-236.81 3104.86,-266.65 3104.86,-266.65"/>
<polygon fill="black" stroke="black" points="3101.36,-266.65 3104.86,-276.65 3108.36,-266.65 3101.36,-266.65"/>
</g>
<!-- UsersModule&#45;&gt;GoogleAuthenticationModule -->
<g id="edge45" class="edge">
<title>UsersModule&#45;&gt;GoogleAuthenticationModule</title>
<path fill="none" stroke="black" d="M3036.28,-218.8C2887.72,-218.8 2428.14,-218.8 2428.14,-218.8 2428.14,-218.8 2428.14,-407.67 2428.14,-407.67"/>
<polygon fill="black" stroke="black" points="2424.64,-407.67 2428.14,-417.67 2431.64,-407.67 2424.64,-407.67"/>
</g>
<!-- UsersModule&#45;&gt;AppModule -->
<g id="edge19" class="edge">
<title>UsersModule&#45;&gt;AppModule</title>
<path fill="none" stroke="black" d="M3127.77,-230.8C3258.53,-230.8 3624.35,-230.8 3624.35,-230.8 3624.35,-230.8 3624.35,-407.61 3624.35,-407.61"/>
<polygon fill="black" stroke="black" points="3620.85,-407.61 3624.35,-417.61 3627.85,-407.61 3620.85,-407.61"/>
</g>
<!-- UsersService  -->
<g id="node49" class="node">
<title>UsersService </title>
<polygon fill="#fb8072" stroke="black" points="549.86,-312.8 456.14,-312.8 456.14,-276.8 549.86,-276.8 549.86,-312.8"/>
<text text-anchor="middle" x="503" y="-290.6" font-family="Times,serif" font-size="14.00">UsersService </text>
</g>
<!-- UsersModule&#45;&gt;UsersService  -->
<g id="edge59" class="edge">
<title>UsersModule&#45;&gt;UsersService </title>
<path fill="none" stroke="black" stroke-dasharray="5,2" d="M3082,-236.99C3082,-245.08 3082,-252.8 3082,-252.8 3082,-252.8 503,-252.8 503,-252.8 503,-252.8 503,-266.74 503,-266.74"/>
<polygon fill="black" stroke="black" points="499.5,-266.74 503,-276.74 506.5,-266.74 499.5,-266.74"/>
</g>
<!-- AuthenticationService -->
<g id="node22" class="node">
<title>AuthenticationService</title>
<ellipse fill="#fdb462" stroke="black" cx="1722" cy="-294.8" rx="97.27" ry="18"/>
<text text-anchor="middle" x="1722" y="-290.6" font-family="Times,serif" font-size="14.00">AuthenticationService</text>
</g>
<!-- AuthenticationService&#45;&gt;AuthenticationModule -->
<g id="edge23" class="edge">
<title>AuthenticationService&#45;&gt;AuthenticationModule</title>
<path fill="none" stroke="black" d="M1777.29,-309.78C1777.29,-316.44 1777.29,-322.8 1777.29,-322.8 1777.29,-322.8 2094.17,-322.8 2094.17,-322.8 2094.17,-322.8 2094.17,-342.65 2094.17,-342.65"/>
<polygon fill="black" stroke="black" points="2090.67,-342.65 2094.17,-352.65 2097.67,-342.65 2090.67,-342.65"/>
</g>
<!-- JwtRefreshTokenStrategy -->
<g id="node23" class="node">
<title>JwtRefreshTokenStrategy</title>
<ellipse fill="#fdb462" stroke="black" cx="1495" cy="-294.8" rx="111.17" ry="18"/>
<text text-anchor="middle" x="1495" y="-290.6" font-family="Times,serif" font-size="14.00">JwtRefreshTokenStrategy</text>
</g>
<!-- JwtRefreshTokenStrategy&#45;&gt;AuthenticationModule -->
<g id="edge24" class="edge">
<title>JwtRefreshTokenStrategy&#45;&gt;AuthenticationModule</title>
<path fill="none" stroke="black" d="M1495,-312.84C1495,-320.55 1495,-327.8 1495,-327.8 1495,-327.8 2085.72,-327.8 2085.72,-327.8 2085.72,-327.8 2085.72,-342.31 2085.72,-342.31"/>
<polygon fill="black" stroke="black" points="2082.22,-342.31 2085.72,-352.31 2089.22,-342.31 2082.22,-342.31"/>
</g>
<!-- JwtStrategy -->
<g id="node24" class="node">
<title>JwtStrategy</title>
<ellipse fill="#fdb462" stroke="black" cx="1309" cy="-294.8" rx="56.77" ry="18"/>
<text text-anchor="middle" x="1309" y="-290.6" font-family="Times,serif" font-size="14.00">JwtStrategy</text>
</g>
<!-- JwtStrategy&#45;&gt;AuthenticationModule -->
<g id="edge25" class="edge">
<title>JwtStrategy&#45;&gt;AuthenticationModule</title>
<path fill="none" stroke="black" d="M1309,-312.91C1309,-322.7 1309,-332.8 1309,-332.8 1309,-332.8 2077.28,-332.8 2077.28,-332.8 2077.28,-332.8 2077.28,-342.69 2077.28,-342.69"/>
<polygon fill="black" stroke="black" points="2073.78,-342.69 2077.28,-352.69 2080.78,-342.69 2073.78,-342.69"/>
</g>
<!-- JwtTwoFactorStrategy -->
<g id="node25" class="node">
<title>JwtTwoFactorStrategy</title>
<ellipse fill="#fdb462" stroke="black" cx="1135" cy="-294.8" rx="99.01" ry="18"/>
<text text-anchor="middle" x="1135" y="-290.6" font-family="Times,serif" font-size="14.00">JwtTwoFactorStrategy</text>
</g>
<!-- JwtTwoFactorStrategy&#45;&gt;AuthenticationModule -->
<g id="edge26" class="edge">
<title>JwtTwoFactorStrategy&#45;&gt;AuthenticationModule</title>
<path fill="none" stroke="black" d="M1135,-313.29C1135,-324.94 1135,-337.8 1135,-337.8 1135,-337.8 2068.84,-337.8 2068.84,-337.8 2068.84,-337.8 2068.84,-342.76 2068.84,-342.76"/>
<polygon fill="black" stroke="black" points="2065.34,-342.76 2068.84,-352.76 2072.34,-342.76 2065.34,-342.76"/>
</g>
<!-- LocalStrategy -->
<g id="node26" class="node">
<title>LocalStrategy</title>
<ellipse fill="#fdb462" stroke="black" cx="953" cy="-294.8" rx="65.4" ry="18"/>
<text text-anchor="middle" x="953" y="-290.6" font-family="Times,serif" font-size="14.00">LocalStrategy</text>
</g>
<!-- LocalStrategy&#45;&gt;AuthenticationModule -->
<g id="edge27" class="edge">
<title>LocalStrategy&#45;&gt;AuthenticationModule</title>
<path fill="none" stroke="black" d="M953,-312.95C953,-326.54 953,-342.8 953,-342.8 953,-342.8 2060.39,-342.8 2060.39,-342.8 2060.39,-342.8 2060.39,-343.78 2060.39,-343.78"/>
<polygon fill="black" stroke="black" points="2056.89,-342.59 2060.39,-352.59 2063.89,-342.59 2056.89,-342.59"/>
</g>
<!-- TwoFactorAuthenticationService -->
<g id="node27" class="node">
<title>TwoFactorAuthenticationService</title>
<ellipse fill="#fdb462" stroke="black" cx="730" cy="-294.8" rx="139.51" ry="18"/>
<text text-anchor="middle" x="730" y="-290.6" font-family="Times,serif" font-size="14.00">TwoFactorAuthenticationService</text>
</g>
<!-- TwoFactorAuthenticationService&#45;&gt;AuthenticationModule -->
<g id="edge28" class="edge">
<title>TwoFactorAuthenticationService&#45;&gt;AuthenticationModule</title>
<path fill="none" stroke="black" d="M730,-313.04C730,-328.37 730,-347.8 730,-347.8 730,-347.8 2035.07,-347.8 2035.07,-347.8 2035.07,-347.8 2035.07,-348.29 2035.07,-348.29"/>
<polygon fill="black" stroke="black" points="2031.57,-342.68 2035.07,-352.68 2038.57,-342.68 2031.57,-342.68"/>
</g>
<!-- AuthorizationService -->
<g id="node28" class="node">
<title>AuthorizationService</title>
<ellipse fill="#fdb462" stroke="black" cx="2354" cy="-66.8" rx="93.76" ry="18"/>
<text text-anchor="middle" x="2354" y="-62.6" font-family="Times,serif" font-size="14.00">AuthorizationService</text>
</g>
<!-- AuthorizationService&#45;&gt;AuthorizationModule -->
<g id="edge29" class="edge">
<title>AuthorizationService&#45;&gt;AuthorizationModule</title>
<path fill="none" stroke="black" d="M2330,-84.43C2330,-84.43 2330,-114.74 2330,-114.74"/>
<polygon fill="black" stroke="black" points="2326.5,-114.74 2330,-124.74 2333.5,-114.74 2326.5,-114.74"/>
</g>
<!-- CategoriesService -->
<g id="node29" class="node">
<title>CategoriesService</title>
<ellipse fill="#fdb462" stroke="black" cx="2569" cy="-66.8" rx="81.08" ry="18"/>
<text text-anchor="middle" x="2569" y="-62.6" font-family="Times,serif" font-size="14.00">CategoriesService</text>
</g>
<!-- CategoriesService&#45;&gt;CategoriesModule -->
<g id="edge30" class="edge">
<title>CategoriesService&#45;&gt;CategoriesModule</title>
<path fill="none" stroke="black" d="M2511.71,-79.69C2511.71,-79.69 2511.71,-114.71 2511.71,-114.71"/>
<polygon fill="black" stroke="black" points="2508.21,-114.71 2511.71,-124.71 2515.21,-114.71 2508.21,-114.71"/>
</g>
<!-- CommentsService -->
<g id="node30" class="node">
<title>CommentsService</title>
<ellipse fill="#fdb462" stroke="black" cx="2772" cy="-66.8" rx="81.68" ry="18"/>
<text text-anchor="middle" x="2772" y="-62.6" font-family="Times,serif" font-size="14.00">CommentsService</text>
</g>
<!-- CommentsService&#45;&gt;CommentsModule -->
<g id="edge31" class="edge">
<title>CommentsService&#45;&gt;CommentsModule</title>
<path fill="none" stroke="black" d="M2689.91,-66.8C2674.02,-66.8 2662.2,-66.8 2662.2,-66.8 2662.2,-66.8 2662.2,-114.79 2662.2,-114.79"/>
<polygon fill="black" stroke="black" points="2658.7,-114.79 2662.2,-124.79 2665.7,-114.79 2658.7,-114.79"/>
</g>
<!-- DatabaseFilesService -->
<g id="node32" class="node">
<title>DatabaseFilesService</title>
<ellipse fill="#fdb462" stroke="black" cx="3797" cy="-218.8" rx="94.33" ry="18"/>
<text text-anchor="middle" x="3797" y="-214.6" font-family="Times,serif" font-size="14.00">DatabaseFilesService</text>
</g>
<!-- DatabaseFilesService&#45;&gt;DatabaseFilesModule -->
<g id="edge33" class="edge">
<title>DatabaseFilesService&#45;&gt;DatabaseFilesModule</title>
<path fill="none" stroke="black" d="M3726.74,-206.8C3588.73,-206.8 3295.52,-206.8 3295.52,-206.8 3295.52,-206.8 3295.52,-170.97 3295.52,-170.97"/>
<polygon fill="black" stroke="black" points="3299.02,-170.97 3295.52,-160.97 3292.02,-170.97 3299.02,-170.97"/>
</g>
<!-- EmailConfirmationService -->
<g id="node34" class="node">
<title>EmailConfirmationService</title>
<ellipse fill="#fdb462" stroke="black" cx="3818" cy="-370.8" rx="115.18" ry="18"/>
<text text-anchor="middle" x="3818" y="-366.6" font-family="Times,serif" font-size="14.00">EmailConfirmationService</text>
</g>
<!-- EmailConfirmationService&#45;&gt;EmailConfirmationModule -->
<g id="edge37" class="edge">
<title>EmailConfirmationService&#45;&gt;EmailConfirmationModule</title>
<path fill="none" stroke="black" d="M3702.64,-370.8C3505.33,-370.8 3124.11,-370.8 3124.11,-370.8 3124.11,-370.8 3124.11,-322.81 3124.11,-322.81"/>
<polygon fill="black" stroke="black" points="3127.61,-322.81 3124.11,-312.81 3120.61,-322.81 3127.61,-322.81"/>
</g>
<!-- EmailService -->
<g id="node36" class="node">
<title>EmailService</title>
<ellipse fill="#fdb462" stroke="black" cx="87" cy="-294.8" rx="63.11" ry="18"/>
<text text-anchor="middle" x="87" y="-290.6" font-family="Times,serif" font-size="14.00">EmailService</text>
</g>
<!-- EmailService&#45;&gt;EmailModule -->
<g id="edge39" class="edge">
<title>EmailService&#45;&gt;EmailModule</title>
<path fill="none" stroke="black" d="M87,-276.6C87,-252.44 87,-212.8 87,-212.8 87,-212.8 2016.35,-212.8 2016.35,-212.8"/>
<polygon fill="black" stroke="black" points="2016.35,-216.3 2026.35,-212.8 2016.35,-209.3 2016.35,-216.3"/>
</g>
<!-- EmailSchedulingService -->
<g id="node37" class="node">
<title>EmailSchedulingService</title>
<ellipse fill="#fdb462" stroke="black" cx="4818" cy="-218.8" rx="106.51" ry="18"/>
<text text-anchor="middle" x="4818" y="-214.6" font-family="Times,serif" font-size="14.00">EmailSchedulingService</text>
</g>
<!-- EmailSchedulingService&#45;&gt;EmailSchedulingModule -->
<g id="edge41" class="edge">
<title>EmailSchedulingService&#45;&gt;EmailSchedulingModule</title>
<path fill="none" stroke="black" d="M4818,-236.83C4818,-257.57 4818,-288.8 4818,-288.8 4818,-288.8 3350.23,-288.8 3350.23,-288.8"/>
<polygon fill="black" stroke="black" points="3350.23,-285.3 3340.23,-288.8 3350.23,-292.3 3350.23,-285.3"/>
</g>
<!-- FilesService -->
<g id="node39" class="node">
<title>FilesService</title>
<ellipse fill="#fdb462" stroke="black" cx="4154" cy="-218.8" rx="58.55" ry="18"/>
<text text-anchor="middle" x="4154" y="-214.6" font-family="Times,serif" font-size="14.00">FilesService</text>
</g>
<!-- FilesService&#45;&gt;FilesModule -->
<g id="edge43" class="edge">
<title>FilesService&#45;&gt;FilesModule</title>
<path fill="none" stroke="black" d="M4154,-200.55C4154,-186.62 4154,-169.8 4154,-169.8 4154,-169.8 3382.32,-169.8 3382.32,-169.8 3382.32,-169.8 3382.32,-168.92 3382.32,-168.92"/>
<polygon fill="black" stroke="black" points="3385.82,-170.96 3382.32,-160.96 3378.82,-170.96 3385.82,-170.96"/>
</g>
<!-- GoogleAuthenticationService -->
<g id="node40" class="node">
<title>GoogleAuthenticationService</title>
<ellipse fill="#fdb462" stroke="black" cx="1861" cy="-370.8" rx="125.62" ry="18"/>
<text text-anchor="middle" x="1861" y="-366.6" font-family="Times,serif" font-size="14.00">GoogleAuthenticationService</text>
</g>
<!-- GoogleAuthenticationService&#45;&gt;GoogleAuthenticationModule -->
<g id="edge46" class="edge">
<title>GoogleAuthenticationService&#45;&gt;GoogleAuthenticationModule</title>
<path fill="none" stroke="black" d="M1861,-389.08C1861,-410.12 1861,-441.8 1861,-441.8 1861,-441.8 2245.83,-441.8 2245.83,-441.8"/>
<polygon fill="black" stroke="black" points="2245.83,-445.3 2255.83,-441.8 2245.83,-438.3 2245.83,-445.3"/>
</g>
<!-- LocalFilesService -->
<g id="node42" class="node">
<title>LocalFilesService</title>
<ellipse fill="#fdb462" stroke="black" cx="4446" cy="-218.8" rx="80.51" ry="18"/>
<text text-anchor="middle" x="4446" y="-214.6" font-family="Times,serif" font-size="14.00">LocalFilesService</text>
</g>
<!-- LocalFilesService&#45;&gt;LocalFilesModule -->
<g id="edge48" class="edge">
<title>LocalFilesService&#45;&gt;LocalFilesModule</title>
<path fill="none" stroke="black" d="M4446,-200.79C4446,-178.31 4446,-142.8 4446,-142.8 4446,-142.8 3581.49,-142.8 3581.49,-142.8"/>
<polygon fill="black" stroke="black" points="3581.49,-139.3 3571.49,-142.8 3581.49,-146.3 3581.49,-139.3"/>
</g>
<!-- CustomLogger -->
<g id="node44" class="node">
<title>CustomLogger</title>
<ellipse fill="#fdb462" stroke="black" cx="1887" cy="-66.8" rx="68.95" ry="18"/>
<text text-anchor="middle" x="1887" y="-62.6" font-family="Times,serif" font-size="14.00">CustomLogger</text>
</g>
<!-- CustomLogger&#45;&gt;LoggerModule -->
<g id="edge50" class="edge">
<title>CustomLogger&#45;&gt;LoggerModule</title>
<path fill="none" stroke="black" d="M1887,-84.84C1887,-97.36 1887,-111.8 1887,-111.8 1887,-111.8 2162.19,-111.8 2162.19,-111.8 2162.19,-111.8 2162.19,-114.77 2162.19,-114.77"/>
<polygon fill="black" stroke="black" points="2158.69,-114.77 2162.19,-124.77 2165.69,-114.77 2158.69,-114.77"/>
</g>
<!-- LogsService -->
<g id="node45" class="node">
<title>LogsService</title>
<ellipse fill="#fdb462" stroke="black" cx="2033" cy="-66.8" rx="59.11" ry="18"/>
<text text-anchor="middle" x="2033" y="-62.6" font-family="Times,serif" font-size="14.00">LogsService</text>
</g>
<!-- LogsService&#45;&gt;LoggerModule -->
<g id="edge51" class="edge">
<title>LogsService&#45;&gt;LoggerModule</title>
<path fill="none" stroke="black" d="M2059.74,-83.17C2059.74,-91.05 2059.74,-98.8 2059.74,-98.8 2059.74,-98.8 2181.38,-98.8 2181.38,-98.8 2181.38,-98.8 2181.38,-114.65 2181.38,-114.65"/>
<polygon fill="black" stroke="black" points="2177.88,-114.65 2181.38,-124.65 2184.88,-114.65 2177.88,-114.65"/>
</g>
<!-- PostsSearchService -->
<g id="node46" class="node">
<title>PostsSearchService</title>
<ellipse fill="#fdb462" stroke="black" cx="1900" cy="-142.8" rx="86.83" ry="18"/>
<text text-anchor="middle" x="1900" y="-138.6" font-family="Times,serif" font-size="14.00">PostsSearchService</text>
</g>
<!-- PostsSearchService&#45;&gt;PostsModule -->
<g id="edge53" class="edge">
<title>PostsSearchService&#45;&gt;PostsModule</title>
<path fill="none" stroke="black" d="M1914.66,-160.57C1914.66,-174.94 1914.66,-192.8 1914.66,-192.8 1914.66,-192.8 2198.71,-192.8 2198.71,-192.8 2198.71,-192.8 2198.71,-193.59 2198.71,-193.59"/>
<polygon fill="black" stroke="black" points="2195.21,-190.74 2198.71,-200.74 2202.21,-190.74 2195.21,-190.74"/>
</g>
<!-- PostsService -->
<g id="node47" class="node">
<title>PostsService</title>
<ellipse fill="#fdb462" stroke="black" cx="1735" cy="-142.8" rx="60.28" ry="18"/>
<text text-anchor="middle" x="1735" y="-138.6" font-family="Times,serif" font-size="14.00">PostsService</text>
</g>
<!-- PostsService&#45;&gt;PostsModule -->
<g id="edge54" class="edge">
<title>PostsService&#45;&gt;PostsModule</title>
<path fill="none" stroke="black" d="M1735,-161.08C1735,-176.75 1735,-196.8 1735,-196.8 1735,-196.8 2170.86,-196.8 2170.86,-196.8 2170.86,-196.8 2170.86,-197.18 2170.86,-197.18"/>
<polygon fill="black" stroke="black" points="2167.36,-190.63 2170.86,-200.63 2174.36,-190.63 2167.36,-190.63"/>
</g>
<!-- ProductsService -->
<g id="node48" class="node">
<title>ProductsService</title>
<ellipse fill="#fdb462" stroke="black" cx="3120" cy="-66.8" rx="73.59" ry="18"/>
<text text-anchor="middle" x="3120" y="-62.6" font-family="Times,serif" font-size="14.00">ProductsService</text>
</g>
<!-- ProductsService&#45;&gt;ProductsModule -->
<g id="edge55" class="edge">
<title>ProductsService&#45;&gt;ProductsModule</title>
<path fill="none" stroke="black" d="M3120,-84.81C3120,-84.81 3120,-114.65 3120,-114.65"/>
<polygon fill="black" stroke="black" points="3116.5,-114.65 3120,-124.65 3123.5,-114.65 3116.5,-114.65"/>
</g>
<!-- UsersService -->
<g id="node50" class="node">
<title>UsersService</title>
<ellipse fill="#fdb462" stroke="black" cx="370" cy="-294.8" rx="61.97" ry="18"/>
<text text-anchor="middle" x="370" y="-290.6" font-family="Times,serif" font-size="14.00">UsersService</text>
</g>
<!-- UsersService&#45;&gt;UsersModule -->
<g id="edge60" class="edge">
<title>UsersService&#45;&gt;UsersModule</title>
<path fill="none" stroke="black" d="M370,-276.75C370,-262.43 370,-244.8 370,-244.8 370,-244.8 3059.14,-244.8 3059.14,-244.8 3059.14,-244.8 3059.14,-244.01 3059.14,-244.01"/>
<polygon fill="black" stroke="black" points="3062.64,-246.86 3059.14,-236.86 3055.64,-246.86 3062.64,-246.86"/>
</g>
</g>
</svg>
